<mxfile host="app.diagrams.net" modified="2021-06-02T07:49:27.072Z" agent="5.0 (Macintosh; Intel Mac OS X 10_15_7) AppleWebKit/605.1.15 (KHTML, like Gecko) Version/13.1.3 Safari/605.1.15" etag="xXTxZSD3xuhCVRqQDqTE" version="14.7.3" type="github" pages="2">
  <diagram name="Page-1" id="e7e014a7-5840-1c2e-5031-d8a46d1fe8dd">
    <mxGraphModel dx="830" dy="1392" grid="1" gridSize="10" guides="1" tooltips="1" connect="1" arrows="1" fold="1" page="1" pageScale="1" pageWidth="1169" pageHeight="826" background="none" math="0" shadow="0">
      <root>
        <mxCell id="0" />
        <mxCell id="1" parent="0" />
        <mxCell id="IrAmuLSXcjHjIv9oK982-61" value="" style="edgeStyle=orthogonalEdgeStyle;rounded=0;orthogonalLoop=1;jettySize=auto;html=1;" parent="1" target="IrAmuLSXcjHjIv9oK982-60" edge="1">
          <mxGeometry relative="1" as="geometry">
            <mxPoint x="535" y="170" as="sourcePoint" />
          </mxGeometry>
        </mxCell>
        <mxCell id="IrAmuLSXcjHjIv9oK982-63" value="" style="edgeStyle=orthogonalEdgeStyle;rounded=0;orthogonalLoop=1;jettySize=auto;html=1;" parent="1" source="IrAmuLSXcjHjIv9oK982-60" target="IrAmuLSXcjHjIv9oK982-62" edge="1">
          <mxGeometry relative="1" as="geometry" />
        </mxCell>
        <mxCell id="IrAmuLSXcjHjIv9oK982-67" value="" style="edgeStyle=orthogonalEdgeStyle;rounded=0;orthogonalLoop=1;jettySize=auto;html=1;" parent="1" source="IrAmuLSXcjHjIv9oK982-60" target="IrAmuLSXcjHjIv9oK982-66" edge="1">
          <mxGeometry relative="1" as="geometry" />
        </mxCell>
        <mxCell id="IrAmuLSXcjHjIv9oK982-60" value="流程" style="whiteSpace=wrap;html=1;strokeWidth=2;" parent="1" vertex="1">
          <mxGeometry x="475" y="260" width="120" height="60" as="geometry" />
        </mxCell>
        <mxCell id="IrAmuLSXcjHjIv9oK982-65" value="" style="edgeStyle=orthogonalEdgeStyle;rounded=0;orthogonalLoop=1;jettySize=auto;html=1;" parent="1" source="IrAmuLSXcjHjIv9oK982-62" target="IrAmuLSXcjHjIv9oK982-64" edge="1">
          <mxGeometry relative="1" as="geometry" />
        </mxCell>
        <mxCell id="IrAmuLSXcjHjIv9oK982-72" value="" style="edgeStyle=orthogonalEdgeStyle;rounded=0;orthogonalLoop=1;jettySize=auto;html=1;" parent="1" source="IrAmuLSXcjHjIv9oK982-62" edge="1">
          <mxGeometry relative="1" as="geometry">
            <mxPoint x="535" y="560" as="targetPoint" />
          </mxGeometry>
        </mxCell>
        <mxCell id="IrAmuLSXcjHjIv9oK982-62" value="判断" style="rhombus;whiteSpace=wrap;html=1;strokeWidth=2;" parent="1" vertex="1">
          <mxGeometry x="457.5" y="390" width="155" height="80" as="geometry" />
        </mxCell>
        <mxCell id="IrAmuLSXcjHjIv9oK982-64" value="输出文件" style="shape=document;whiteSpace=wrap;html=1;boundedLbl=1;strokeWidth=2;" parent="1" vertex="1">
          <mxGeometry x="240" y="390" width="120" height="80" as="geometry" />
        </mxCell>
        <mxCell id="IrAmuLSXcjHjIv9oK982-69" value="" style="edgeStyle=orthogonalEdgeStyle;rounded=0;orthogonalLoop=1;jettySize=auto;html=1;" parent="1" source="IrAmuLSXcjHjIv9oK982-66" target="IrAmuLSXcjHjIv9oK982-68" edge="1">
          <mxGeometry relative="1" as="geometry" />
        </mxCell>
        <mxCell id="IrAmuLSXcjHjIv9oK982-66" value="子流程" style="shape=process;whiteSpace=wrap;html=1;backgroundOutline=1;strokeWidth=2;" parent="1" vertex="1">
          <mxGeometry x="675" y="260" width="120" height="60" as="geometry" />
        </mxCell>
        <mxCell id="IrAmuLSXcjHjIv9oK982-68" value="数据库" style="shape=cylinder;whiteSpace=wrap;html=1;boundedLbl=1;backgroundOutline=1;strokeWidth=2;" parent="1" vertex="1">
          <mxGeometry x="905" y="250" width="60" height="80" as="geometry" />
        </mxCell>
        <mxCell id="IrAmuLSXcjHjIv9oK982-73" value="" style="strokeWidth=2;html=1;shape=mxgraph.flowchart.terminator;whiteSpace=wrap;" parent="1" vertex="1">
          <mxGeometry x="485" y="560" width="100" height="60" as="geometry" />
        </mxCell>
        <mxCell id="IrAmuLSXcjHjIv9oK982-74" value="" style="verticalLabelPosition=bottom;verticalAlign=top;html=1;shape=hexagon;perimeter=hexagonPerimeter2;arcSize=6;size=0.27;" parent="1" vertex="1">
          <mxGeometry x="485" y="120" width="100" height="60" as="geometry" />
        </mxCell>
        <mxCell id="IrAmuLSXcjHjIv9oK982-80" value="Pool" style="swimlane;html=1;childLayout=stackLayout;resizeParent=1;resizeParentMax=0;startSize=20;" parent="1" vertex="1">
          <mxGeometry x="280" y="640" width="360" height="480" as="geometry" />
        </mxCell>
        <mxCell id="IrAmuLSXcjHjIv9oK982-81" value="Lane 1" style="swimlane;html=1;startSize=20;" parent="IrAmuLSXcjHjIv9oK982-80" vertex="1">
          <mxGeometry y="20" width="120" height="460" as="geometry" />
        </mxCell>
        <mxCell id="IrAmuLSXcjHjIv9oK982-82" value="Lane 2" style="swimlane;html=1;startSize=20;" parent="IrAmuLSXcjHjIv9oK982-80" vertex="1">
          <mxGeometry x="120" y="20" width="120" height="460" as="geometry" />
        </mxCell>
        <mxCell id="IrAmuLSXcjHjIv9oK982-83" value="Lane 3" style="swimlane;html=1;startSize=20;" parent="IrAmuLSXcjHjIv9oK982-80" vertex="1">
          <mxGeometry x="240" y="20" width="120" height="460" as="geometry" />
        </mxCell>
        <mxCell id="IrAmuLSXcjHjIv9oK982-84" value="" style="shape=image;verticalLabelPosition=bottom;labelBackgroundColor=#ffffff;verticalAlign=top;aspect=fixed;imageAspect=0;image=http://image.woshipm.com/wp-files/2019/05/X7y4YOrIB7e87T7WZtkg.png;" parent="1" vertex="1">
          <mxGeometry x="325" y="-280" width="520" height="295" as="geometry" />
        </mxCell>
        <mxCell id="IrAmuLSXcjHjIv9oK982-85" value="" style="shape=image;verticalLabelPosition=bottom;labelBackgroundColor=#ffffff;verticalAlign=top;aspect=fixed;imageAspect=0;image=http://image.woshipm.com/wp-files/2019/05/LrMPHmEnePlIj2qS6pwf.png;" parent="1" vertex="1">
          <mxGeometry x="890" y="-280" width="520" height="459" as="geometry" />
        </mxCell>
      </root>
    </mxGraphModel>
  </diagram>
  <diagram id="LswuKR8-JDWvYCW7qgb3" name="第 2 页">
    <mxGraphModel dx="830" dy="566" grid="1" gridSize="10" guides="1" tooltips="1" connect="1" arrows="1" fold="1" page="1" pageScale="1" pageWidth="827" pageHeight="1169" math="0" shadow="0">
      <root>
        <mxCell id="NlQjg2sOnCsZT6vufGFp-0" />
        <mxCell id="NlQjg2sOnCsZT6vufGFp-1" parent="NlQjg2sOnCsZT6vufGFp-0" />
        <mxCell id="eUEFUCV-erVCPfTDp-cn-2" value="创建" style="edgeStyle=orthogonalEdgeStyle;rounded=0;orthogonalLoop=1;jettySize=auto;html=1;" parent="NlQjg2sOnCsZT6vufGFp-1" source="eUEFUCV-erVCPfTDp-cn-0" target="eUEFUCV-erVCPfTDp-cn-1" edge="1">
          <mxGeometry relative="1" as="geometry" />
        </mxCell>
        <mxCell id="eUEFUCV-erVCPfTDp-cn-7" value="创建" style="rounded=0;orthogonalLoop=1;jettySize=auto;html=1;exitX=0.145;exitY=0.855;exitDx=0;exitDy=0;exitPerimeter=0;entryX=0.75;entryY=0;entryDx=0;entryDy=0;" parent="NlQjg2sOnCsZT6vufGFp-1" source="eUEFUCV-erVCPfTDp-cn-0" target="eUEFUCV-erVCPfTDp-cn-5" edge="1">
          <mxGeometry relative="1" as="geometry" />
        </mxCell>
        <mxCell id="eUEFUCV-erVCPfTDp-cn-8" value="创建" style="rounded=0;orthogonalLoop=1;jettySize=auto;html=1;exitX=0.855;exitY=0.855;exitDx=0;exitDy=0;exitPerimeter=0;entryX=0.5;entryY=0;entryDx=0;entryDy=0;" parent="NlQjg2sOnCsZT6vufGFp-1" source="eUEFUCV-erVCPfTDp-cn-0" target="eUEFUCV-erVCPfTDp-cn-3" edge="1">
          <mxGeometry relative="1" as="geometry" />
        </mxCell>
        <mxCell id="eUEFUCV-erVCPfTDp-cn-0" value="master" style="strokeWidth=2;html=1;shape=mxgraph.flowchart.start_1;whiteSpace=wrap;" parent="NlQjg2sOnCsZT6vufGFp-1" vertex="1">
          <mxGeometry x="350" y="210" width="100" height="60" as="geometry" />
        </mxCell>
        <mxCell id="eUEFUCV-erVCPfTDp-cn-1" value="develop" style="whiteSpace=wrap;html=1;strokeWidth=2;" parent="NlQjg2sOnCsZT6vufGFp-1" vertex="1">
          <mxGeometry x="340" y="410" width="120" height="60" as="geometry" />
        </mxCell>
        <mxCell id="eUEFUCV-erVCPfTDp-cn-13" value="合并" style="edgeStyle=orthogonalEdgeStyle;rounded=0;orthogonalLoop=1;jettySize=auto;html=1;exitX=0.75;exitY=0;exitDx=0;exitDy=0;entryX=0.99;entryY=0.25;entryDx=0;entryDy=0;entryPerimeter=0;curved=1;" parent="NlQjg2sOnCsZT6vufGFp-1" source="eUEFUCV-erVCPfTDp-cn-3" target="eUEFUCV-erVCPfTDp-cn-0" edge="1">
          <mxGeometry relative="1" as="geometry" />
        </mxCell>
        <mxCell id="eUEFUCV-erVCPfTDp-cn-3" value="release" style="whiteSpace=wrap;html=1;strokeWidth=2;" parent="NlQjg2sOnCsZT6vufGFp-1" vertex="1">
          <mxGeometry x="690" y="410" width="120" height="60" as="geometry" />
        </mxCell>
        <mxCell id="eUEFUCV-erVCPfTDp-cn-9" value="合并" style="edgeStyle=none;rounded=0;orthogonalLoop=1;jettySize=auto;html=1;" parent="NlQjg2sOnCsZT6vufGFp-1" source="eUEFUCV-erVCPfTDp-cn-5" target="eUEFUCV-erVCPfTDp-cn-1" edge="1">
          <mxGeometry relative="1" as="geometry" />
        </mxCell>
        <mxCell id="eUEFUCV-erVCPfTDp-cn-12" value="合并" style="edgeStyle=orthogonalEdgeStyle;rounded=0;orthogonalLoop=1;jettySize=auto;html=1;exitX=0.5;exitY=1;exitDx=0;exitDy=0;entryX=0.567;entryY=1.05;entryDx=0;entryDy=0;entryPerimeter=0;" parent="NlQjg2sOnCsZT6vufGFp-1" source="eUEFUCV-erVCPfTDp-cn-5" target="eUEFUCV-erVCPfTDp-cn-3" edge="1">
          <mxGeometry relative="1" as="geometry">
            <Array as="points">
              <mxPoint x="80" y="550" />
              <mxPoint x="758" y="550" />
            </Array>
          </mxGeometry>
        </mxCell>
        <mxCell id="eUEFUCV-erVCPfTDp-cn-5" value="feature" style="whiteSpace=wrap;html=1;strokeWidth=2;" parent="NlQjg2sOnCsZT6vufGFp-1" vertex="1">
          <mxGeometry x="20" y="410" width="120" height="60" as="geometry" />
        </mxCell>
        <mxCell id="KvzWYjthbcAQmn2gK3JW-0" value="" style="shape=image;verticalLabelPosition=bottom;labelBackgroundColor=#ffffff;verticalAlign=top;aspect=fixed;imageAspect=0;image=data:image/png,iVBORw0KGgoAAAANSUhEUgAAAggAAAH9CAYAAAB/S4RUAAAAAXNSR0IArs4c6QAAAERlWElmTU0AKgAAAAgAAYdpAAQAAAABAAAAGgAAAAAAA6ABAAMAAAABAAEAAKACAAQAAAABAAACCKADAAQAAAABAAAB/QAAAADb2BxZAABAAElEQVR4Aey9B5hdV3X3vaYXadSt3kbNkiXbki25ywU7tFACPCEEEp4E3lBCCCTAR/LyACHkI18gBEIIJAQSAiS0ALENphhccLfcbVmWZDWr9z7S9G/91rnrzp6rO2PJ1ozuHa0tndn77LPr/+y713+vXU5FtxoJEwgEAoFAIBAIBAKBQIJAZeIOZyAQCAQCgUAgEAgEAoZAEIRoCIFAIBAIBAKBQCBwAgJBEE6AJDwCgUAgEAgEAoFAIAhCtIFAIBAIBAKBQCAQOAGBIAgnQBIegUAgEAgEAoFAIBAEIdpAIBAIBAKBQCAQCJyAQBCEEyAJj0AgEAgEAoFAIBAIghBtIBAIBAKBQCAQCAROQCAIwgmQhEcgEAgEAoFAIBAIBEGINhAIBAKBQCAQCAQCJyAQBOEESMIjEAgEAoFAIBAIBIIgRBsIBAKBQCAQCAQCgRMQCIJwAiThEQgEAoFAIBAIBAJBEKINBAKBQCAQCAQCgcAJCARBOAGS8AgEAoFAIBAIBAKBIAjRBgKBQCAQCAQCgUDgBASCIJwASXgEAoFAIBAIBAKBQBCEaAOBQCAQCAQCgUAgcAICQRBOgCQ8AoFAIBAIBAKBQCAIQrSBQCAQCAQCgUAgEDgBgSAIJ0ASHoFAIBAIBAKBQCAQBCHaQCAQCAQCgUAgEAicgEAQhBMgCY9AIBAIBAKBQCAQCIIQbSAQCAQCgUAgEAgETkAgCMIJkIRHIBAIBAKBQCAQCLwggtDd3S1cmNRW315+/rxYeH9mEZI/XV1ddofdK+1cfp2dnXn/JNpJOT29vgJ3dffkSZjC8H3dF/p7XPz9cr/+bJ4V1hs/N/7MMXL/Yrbn62XzuO7vcXhnnZ0dfms2YQrzSOOlbo+IX5hAIBAIBAKBoYPACyIIFRUVwoUQyQRJt93n+EEenY6ODhOQhE0NcRD0XG5cwFRWVuaFpMfDzoRSl1RVVWV5ecRTsD09z5+opOuko7JC4dCi8hx/z5dw+KXx8XPjZefe3Wlcj5f6eVgP73lS/9TwnIvn/swxSsMVuskrzc/vsd1AiHhnlZVV7pW3yYN88+9IoxGXcmA8bS8bfl4H/MIEAoFAIBAIlDcCFdqZv6DenGgubFLh5cn5cw/j94Vwub+n4fdu418sDfcrTK+/e9L0fIjPPcbT4t79XED6M8L5s9TPy8czi6MSt7sr586lXxjP4+OP221Py/PiWRo29cftz3CnBq0AZfC0vS4eBn8EP/4eJn2WltfL5uE9nNteBo/j/tj+LPULdyAQCAQCgUB5IPCCCEIqyLyaqaBxwcAIVUVcUSHk8VywkCbaAWyMCzVLl2FujsZ4Pp6Hp3OyNsKTMrngI57XBz/P18MVppuGScvg9SC8++f9GLQn5SeM54nbw1VUakDCYamAx/ayWjh9WKWj/Xx4FfR9GcKk5cCdxnOB73iDfRrHn6fx/HnqR/7t7e2GW3V1da80+ipb+AcCgUAgEAiUPgIviCCkgsaFhgk8FXD8Q7ggcPbs2SN1dXXS1NRkSBSLR1gXZAhnjAtnT9vTs4c8T4Sf+52MTRmNACCF9f/x48fllltuMWH98pe/XIYPH54vi+fhZUZYEwdDvbZv354PS7wJEyaY35EjRwRBienQuX0EOvWfMWOGlbutrU2efvppOeecc6SlpUUeeOABecUrXiFjx47Np4fAJf1Vq1bJwYMH5eqrr5YJEycYtimxsEz6+OPldsLjwSj75z//efnd3/1dmTVrlvznf/6nHDp0SD70oQ8ZNk7qPDw2Zf7pT38qL3nJS/LvkndGWe6991656aab5O1vf7vMmTvHyuhx/X36fdiBQCAQCAQC5YNAJslOsbwufHbt2iXbtm0z4YjAq67QEaT+gxw8+eST8s53vtOE25//+Z/L+PHjTaAUCizC7tu3T37yk5/IY489JiNGjJCXvexlcvfdd8vhw4flwx/+sDQ2NppwJd8XI3TycRmcq4BDEK9evVpajrXIS1/6UvMjD565AHS31xmy8qMf/Ui+8pWvWJlI8/LLL7e6/t3f/Z2sXbvW0kV41tTUGFl6y1veLO973/stTfD66Ec/aqRg7ty58oMf/MDi33777fLrX/9atm7dKnv37jXyQl4NDQ2Wzm/91m9JZ1en/OpXv5L77rvPMPYyFXt9lPvcc8+1fCAwGMoEIULYL1q0yAT/rb+8VeafO9/KRhhbh6E2eWN4P7ybz33uc1bvT37yk+YPuWKNyYEDB+TOO++Umc0zexG3iRMnysiRIy1s/AkEAoFAIBAoPwROmSAgZBjZ/tM//ZM8+uijJnQQFFOmTJE3vOEN8rrXvc5GmceOHTMbQYWwQaD87Gc/s9H1smXLjFQA19GjR+Ub3/iG/Nd//ZeMGjVKZs+eLTt37jSCsGXLFhOmCEIX3MRJ3dy/EAP5YLQPSWg93mpu0kWo79ixQ1asWKHP2jSvLD8EHiN5NCLXXHONNDc3W90ZjZNGVVWlCUxG0pdeeqkViZH5F77wBRXEmQqe9MHCNQxebvwhFuAJ2bjhhhtk5syZMnnyZJk2bZrhQliENdg8++yzeQx4H/jxDiZNmqhhqk3Yk+aoUSOtXLgxaA8gGNQFbQCCf+uWrTKscZh85jOfMXKXrp8gzNKlS+U1r3mNkQne09/8zd8YRps2bRIIImVC+/HTW34qN/7vjRYOsvjHf/zHcu2111q+8ScQCAQCgUCg/BDolyAgWBDwJmByKnbIAepohM3o0aOFUXBra6usXLlS/uM//sPCvvGNb5TFixfLRz7yEVOluzr9E5/4hAk+1PH4kfahw4dk/fr1htyb3vQm+Y3f+A1Tr5OnXw6rl8Xt1B9BiX/+GeV1k5saYJqAKRBU+1/96ldtpP7MM8+YUOMewY3anZHv17/+dXPX19fLhg0bVPhOMmEJQUBoIxjJi3vcXbmFibt377b6UHYIiO/k8KKgcWDqAQLF9AHPISuUH9Lxl3/5l3k1PnG8TpqV4QEBY0rCDelQ9v3795tQ9qkK8kf7UFtbZ/F4R7/85S8F0vXud7/bysbIf/r06VY/SNFll11myZInRAacwIy41113ndWb+pIuZOYf//Ef5corrxS0G4T59re/bWXn/dMuwgQCgUAgEAiULwL9EgSvFsLLhKAuOvzud79rI0dGoQiaCy+80IQDwuZLX/qSaQkYARNnzZo1piFAe/DUU09ZcgjDO+64w/yXLFkiN990s2zevNkEJerqxx9/3KYZEHAIKgQoo3rsRx55xNJh5Dp12lQjIbNnzbayMZeO4Lr++uttOmPN6jWmhWAUzogfwca0BSP1Cy64wEbRaCw2btookICpU6eaCp3ROCSF8r/tbW8zTcf3vvc9WbdunQlLKsG0BMIRTCgLQpa0yBuCcOONN9pUwcUXXyyXXHKJYUQ8F/ao8ZlSYG0Cgh038/ysO/j0pz9tRIWwpE+dXvva18r8+fM1hW4ZNmyYTbl4WhAEyg9GY8aMMeJF2T0/cMSAP9MZkJLly5cbAaLsvEPeG/X/sz/7MysjcbiY2mlrbbN4TP/8wR/8gZx//vmyceNGeeihh4xIQViYPiItpkaYQiEPiEqYQCAQCAQCgfJF4KQIAoIKQ8ePcGAUjDBkrQBuhBXaBAQUo87a2loTkP/+7/9uo1LmwhGy+JPGD3/4Q1OLM52AYEc48gwBhqBCMHu6NbUZOfjFL34h//Zv/2aaC/JAcKKF+NjHPiYLFy60eXDKNmfOHBk3bpzdkz95QETQCpAvgu5Tn/qUTYdAVtCIINyZHrnrrrvyWgvyR9NBWsQ1oauyFpvRNmTmD//wD01oUm/qBQmh/KwjwFA+CArTKEw3sL4Cg/Alz4suukguufQSmTF9hqDJII3bbr9Nxo4Za3EhGwh+RunEIW/eBXinJIB7yuvG3YTBTd6smWBagLAQpZtvvtmmg5jS+Nd//VcjNkw/oDkgDOTgVa96leXLeoVvfetbggaIKRSIGmnwzsCSfCgfeEJYIJHNqg3hvYcJBAKBQCAQKE8Enpcg0PEjMDAIYIQNQgehjI1wQJVOGObosRnRoj1gbp6L6QZU9AgYBC4jYkbWCNb3vve98v3vf9+EFwL3vPPOMyFIvph2nb9nVMr0BYL31a9+tZETBNwdqomAIPzP//yPxWN3wHPPPWeCFyGG2huNASNbRutPPPGE5U8ZEG6UFYHmUwbUB4GMEKZeXITB5hluDIIbwb/o/EUydcpUIzgIRcpIPhAYNB43//hm6WjvMIKAIOYZ/mDCKP6tb32rCVbwcmwQrFzvec97bJR///332widfCkXuCDEnbThn72jzPay4ufvh/xYCAp5YaRPnZlK+c3f/E0jLdQZbFlXgpt6QmZ4joFgffnLX7apJcqP4Kc+vFPqhLaANSiQRKaeIGaQnTCBQCAQCAQC5YtAvwQBQeGCGhvBgrBBCDGqRgAhvN/3vvfZiJp7DKpqBIzHRTAhVEiPUTaLFFG/c4+gRNBDPpgDZ8oC4U4erNonPGp/8kEbQF4IJdKHhDAqZl4dEoKGwAkBmgJU/whrdlSQF0SGBYQIMtJHc4FAoywIRu4RvpSb8KnBzy9IEkTke9/9no20KQ9xKQM7N9BEMN//p3/6p7YeAc0H+ZEm2gRsRuDkjaBn7QVkhjrNmzfPtg4iyFlEuGDBApsO8fjEtfMGdLqB/xj8KFulLpTkHXj53UYb8MEPftCmGdDYsOhw6bKlMm/uvPz7ZArjAx/4gJUzn0buXAbSh1D8xV/8hWloKBvEBSx5N6zRYDEj0y68w89+9rMyfsL4rHDxNxAIBAKBQKAsEejRSxcpvgslf4TKHGGDQUBimBNn0RwXan9U7wgwX6lvh/9oOISMXZyVkBNopK9i19JxoeRCjXvm6iEkjNixmev2ES5b99AEEI6yzJw5056jqmcBHWVZfvVy82dHAmsbyJfROep9ygVhIG3WU5Au5ID0vOxWsII/ngYaEMrElsEf//jH5qburE9gTUWb7oBg3QLkhTphsCFZ1Js8ID2sV2C0zQie+iGoGe1/5zvfMSy5h4BQLvL2dHCl9yyStMOVcv6eJ+HRliC4/ZwHnrG10dOkPGgxICcQEmxb85AjIISnruw0gbSwboJ6YsCPtRNgCWFjmoGpGX3L9jz+BAKBQCAQCJQnAielQXBBhBoZIYNAYZTMynbUy29+85ttXp7FdggaRu6o9U0NrkKG+AgZS0fvie9p+igYPxdYQJkPr26ICYYRtxsWPiKUEOqUC6HPQT0PP/Swjd4hMlcvv1oOHzpsZUXAofWAICAwSZ+RL0TCiQajeMrlqnzyIpzbPKOM1Puqq66yZ4yguYiDFoT5fEgAqnjm7SlfWl/KjbbhLW95i5UDQsNzCIILZ0brHD4E+WLBp2PlGFEmigVfIH3D2UqZ/XHsvOyUOYuj6xj4/kLOkK7fI9zRzhCO8GDEFs0sbpdNzzBFAzGCBFA/MIcHeNqUA5zdeHm5J4zXw5+HHQgEAoFAIFC6CPSrQaBD904dG+HP3njMgw8+KBwMdM8998jDDz9sawEYTc5fMD8//YDwwmAjsBE2CFNG+Ah7FyCk7UIOjYLni00cpgSY82f6gPntzZufkxtvutEWGCL02VKHep4dDQhn1Pf4M10xc+ZMm2bwufzpM6bnBRqLIll/AEHAINwQjJhMMPYINcqXCk/S56JuTIO8613vsoWRP//5z21nAPn+9V//tS3k5EwAyk986k8+TLlQZuqIyh4/yBYnLlImyAqLE/0ERspEWMJhu6FclAE/F9TudjsVzozs/d5sva+qztZckDZ+5A0BAANMhWpy0HRwjyYCMoO2hDqwRoR8uIgHfnfolBFrRCBCGNJMbbuJP4FAIBAIBAIljUC/GgQ6dhMiiUBCW8AcPPP9CAIuwqAyR2C8/W1vNxUzo2kXDAgxVPhsiUNwsG+fdQFf/OIXLQxEwfNiWgE3fggs7GYd9TPi5qCeb37zm2aTHpoK5vkRXAhpwqGOR3ixlRFh5bsa2HkAEZg+bbq9ELb9cXYD6U6eMtnU5ghv5tVJD6HL4kc0JqyJoA4IQYw/h4ygbidP1jogEBGs4EN8tCio4jmOmKONMYzUiU/ZIQbgBqGhrpAB1ghwoiJqejQyLNpk+gZtAtMVCGcnVuBEfkxVMKqHqLHws0vXbqhYt3woGwtKCeuEwadQnIyxkJLti//8z/9sZSRc+k4gfkzToOFAA4L2CDfaF5+aISJupks4yAkyx0JG3gvGsfOym2f8CQQCgUAgEChZBPokCAgUjHfs7ub+He94hwkztggijBFeLERkxM6WOAQg8/p/oPvmGQ2jPSAe5ILpAISIj4yJy3ZJ4vlInrl4th0yhYCQpyyvfOUr82sMEMpMOyDUWBjoZUMQsjOAeCx+JB5z6Rzcg9DG3dDYILt27pJ/+Id/sDKizucEQAgLghNC4cIUEoEQhFxQbgzPEOxoTiBBCGfOWWAdAmmQD/7g8rWvfc0EJOER3hAo/K+99lpLi5E7Ap4zBUif+Gw1hKQQhmkGP3yKhYWQKzQU4ItB2FJm0sCwGBJi4s8pKyN+SAaGe54x0of4ML2DH2kU00IQh/fG0c4QIMp022232ZoPFj1624A8kQYEgZ0kuMGVe8+TtDAeJ7uLv4FAIBAIBAKlikCfBIGOnM6dK+3UcSMAENichcAomlEigp6wbhgh/8l7/yT/2WGEGWQBkqBJqMnU0qjp0SyYTy5PyAbkAuMChvQRxFzkyXQHwo7npE25IB3E8zjEh3T8/u//vvlZPXJFJD7bLZtV64BWAsFN2TgkiUWPV1xxhbz+9a+3aQCmUxhFI/Aw5M9Hlhi1c4og5wWgjYC0MLLmnpG7EyOOJyZ9hDK4QZ4oc11tnczUqQjOQyAuixN/+7d/23YZcI9gR1NDvghhtnj62of0nZAWhjDUnYvnCH2mZ3DjR51ZNwDp8vj48w4oa7EPNZEuu0cgcRAEtCFoXSgHxqZKRo6wKRR2Y/CcuhOWNDHkgfE87Sb+BAKBQCAQCJQ0As/7NUeEDx08wgfDaBWCgHHB7B0/4fCzEaySAKUAeWGVhsdNnGICyfw1DWzSIy1XmXOPv6VPImq8DAhDF5DsUICDsLIfQxwuDGlgGOmjHSAOo2PSgehwsQOBuXUTmupP2lyEJx2mAyAJHgfBS5yuzmxET5qeH3kx1QA5IG3S4RlhSAdth5MdnlE3BHhW72wrJmkQBux71zHDiOduHCPuvQzEIz00B9SVtQ+8Qw+LRobnkAeOgcYNgh4f/I8fb7UyMI1CvR0Lphww1I36kD5ldGzJg/TceJ5+H3YgEAgEAoFAaSLwvASBYtOpu01nj4DwTp9n3LvgIhyCxYWd32P3ZYjvwshtD5s+wy8vYHIEBD+Ihq9dIL7Hwe3h8cN4uXHzjAuTkYqe8JSfOmE8nKfnaZAmbk/DWIkm53XweITxsGl6HtfTzcdjoaYl1lNf0so/z5WZtDwuz9N8vEyFcfw+LUfq5+lhp2QwzZ+4GK9TYV7+PrJQPXXgvlg6Hi7sQCAQCAQCgdJB4KQIQukUN0oSCAQCgUAgEAgEAoOBQI/udzByizwCgUAgEAgEAoFAoCwQCIJQFq8pChkIBAKBQCAQCAwuAkEQBhfvyC0QCAQCgUAgECgLBIIglMVrikIGAoFAIBAIBAKDi0AQhMHFO3ILBAKBQCAQCATKAoEgCGXxmqKQgUAgEAgEAoHA4CIQBGFw8Y7cAoFAIBAIBAKBskAgCEJZvKYoZCAQCAQCgUAgMLgIBEEYXLwjt0AgEAgEAoFAoCwQCIJQFq8pChkIBAKBQCAQCAwuAkEQBhfvyC0QCAQCgUAgECgLBIIglMVrikIGAoFAIBAIBAKDi0AQhMHFO3ILBAKBQCAQCATKAoEgCGXxmqKQgUAgEAgEAoHA4CIQBGFw8Y7cAoFAIBAIBAKBskAgCEJZvKYoZCAQCAQCgUAgMLgIBEEYXLwjt0AgEAgEAoFAoCwQCIJQFq8pChkIBAKBQCAQCAwuAkEQBhfvyC0QCAQCgUAgECgLBIIglMVrikIGAoFAIBAIBAKDi0AQhMHFO3ILBAKBQCAQCATKAoEgCGXxmqKQgUAgEAgEAoHA4CIQBGFw8Y7cAoFAIBAIBAKBskAgCEJZvKYoZCAQCAQCgUAgMLgIBEEYXLwjt0AgEAgEAoFAoCwQCIJQFq8pChkIBAKBQCAQCAwuAkEQBhfvyC0QCAQCgUAgECgLBIIglMVrikIGAoFAIBAIBAKDi0AQhMHFO3ILBAKBQCAQCATKAoEgCGXxmqKQgUAgEAgEAoHA4CIQBGFw8Y7cAoFAIBAIBAKBskAgCEJZvKYo5NmOQLd09wtBd3f/z/uNPAgPvXzYqduzLubnz07F9nSKxSl85vduexy/T23cfu/hsFO/1J2GCXcgUK4IBEEo1zcX5R6yCHR1dZngcaFkgqcf+V8omArvAQqCQbq47P4MEIq0PmkZ3d3Z2WllS+uPR1buTBh7WK9D+sz93Pb8COPh/Bk2pjA9v/fwnkYWuvhfwnj44iHCNxAoTwSCIJTne4tSD2EEKit7fpYVFRXiF1U2YdSdEQiHIH2OH/duXOBpKjn/7FkaxsMOlE0ZvIxeN7/38iFg/Rnl4Lk/w+3kwf07OjrseRrHyt9T9Xx1iEM40iOfwvS4x/gz3Pj5PXFxc2G8XNiE88v9LVD8CQSGAAIV2qj7GZsMgRpGFQKBMkMAQeSCj58nl9+nVfFnbvszF1jYqeHewxZLLw17ut2eL+kWliv166vuxCde+tzLCFmoqqrKP0vrSRgX8Nge1tNL0/QyEg5C4mkShgtTLP9ifhY4/gQCZY5AEIQyf4FR/KGMAOSgR6Ai3I4fPy4tLS1y7Ngxu44ePWp+bW1tJggRajU1NdLY2CjDhw+X+vp6c3NfXV1tYLmwGyzkELxuyNsEMVMdubpRJwTysGHDeghMlWpRctEQwNTLDfHxAwPq5fXxtF1gu63Kk3xapOHhcJOWEwhPh3jt7e2GI88wPMPv8OHD0tTUZFim6XgYCxx/AoEhgkDWYwyRykQ1AoGhggBCqqIyG7keOXJEdu3aJbt275ID+w/I3r17TVAhVAmHkENYucBywVhdUy0N9Q0ycuRIGTNmjIwfP14mTJggI0aMMKHowm+gMaNcPiL3sj7+2ONW3gsuuEDuve9e2bF9h7z5zW+Wp556StavXy/XXnttr3ISD0NamGeffVZ+/vOfyx/90R8ZCcLPw3i9yBPygT9+xN26bavs3bPXcPO0iIuZP3++5QkB+/rXvy6vf/3rZeLEiUYMnDR84QtfkNe85jVy7rnnWhyIS11dXT7vwjQtUPwJBMoUgSAIZfriothDFwEXoocPHZZ169aZwDx06JBpDhB6LoRcIIJE6kYYct/e1i4d7R1y8OBB2bJliwkytArTp0+XuXPnGlkYLBRdaFN2yvbFL35Rrr76ajnvvPPkkYcfMQ0Bz2pra03wb9m6Rf7P2/+PCX/CHzhwQNCW4Ob6xS9+IY899phs2rTJRvRGqDQ++KApOeecc+RXv/qVfP/73zcBT5wFCxZYPk888UReAwE248aNs3w//OEPC4QFbcyPfvQjueGGGyxt0rjzzjst7kMPPWT5QrIo66tf/WojDJTd38tgYRr5BAIDjUAQhIFGONIPBPpBwEf7CDAXMEwlMEJ+5JFHZN++febvAtDDkGTqdsFZmFWabmtrq3Dt379fnnzySRPOixcvlqYRTSxhtKikSRxMmr55vIg/XbqwsqoimybYsWOH3HXXXfJ//+//NdKzdetWedWrXmXrAxiZv/e975WPfOQjcv1LrreROhqUz3/+8/KDH/zAyg8W1IHR+z333GN+TKWAG+QAjcl3vvMdWbRokU0TfPCDH5Q/+ZM/kaVLlxoxIixE4uabbxbIAs8bGhpMy0AVITM8Jz2mMF75ylcaUYOk/O///q+sXr1avvvd78o73/lOmTFjRh6nFOsXAVVEDQRKBoEgCCXzKqIgZyMCLpCxEUgQgocfeVg2rN9g9/gjrLIROII7E+SnglUq6BFiCFhsRuBoFtAoTJs2TaZMmWJC1zUQ5OFCDxuTpmUeJ/GHuJUVmVYD99NPP22j71tuuUXQjDAqZ93EmjVr8qr/JRctkZ/+9KdGIJYsWSJ/9ud/Ju94xzsMi29+85sCyXjPe94jLcdapLqqWsaOHWsYsU4AlT9aAQjE6NGjTfiff/75AhnCUAamHtAwLF++3J4TlrpBVtBO7NmzR375y1/adA7vBPP444/Lvffea+QKogV+zz33nLzuda+zuC8EG0s4/gQCJYpAz36qEi1gFCsQGMoIuGaAee9Vq1aZUFz9zGoTlNQbYYbgwX4h5CDFjrMQMKTlJAHhh+C744475OGHHxZG6/4szfvFCD9Px+uK0EbYQ4g2bNhg5IA1EoTzkXvT8Cbz5568R44YKZMnT7bR+4MPPihvfOMbZebMmXLTjTfJrbfealMKkALWDLDWAoHPIsadO3daPgj8ffv3Wd0oBxoMpg02b95s0xTkg4E4bN++3XBA+KOpYP0H0wnXXHONaRLQQDBFQzgWLTo2lD9MIDCUEIhdDEPpbUZdygoBF5wIGYQ0BIH5b/xdSCPo3O3z+MUq+WKEk8clr3nz5slFF11kixrJJ9UmuCAsln9/fl5P6pGatvY2+fKXvmzTKW9605tMnU9Y8mSnQHNzswl68oVM3H777fKhD33I8HjZy15mmoLbbrvNiMSVV15pSRP37W9/u6n+V6xYId/61rfk29/+tvCcaYzf+73fM8H+rne9y7QXaCcQ+Kw/gFyQP4tAf+d3fkdYkMjCRTQNN974v7qAcaQRGMqDpgJS97nPfa7XIsn+3lFa93AHAuWAQEwxlMNbijIOOQRMKOtsAaPc+++/3xYi4kb4IGSwEdgIUdTzzK0XCtiTBcUFNOFJF4Mf6ZEX+fj9M888Y4LviiuusFE5awd8esAivoA/nj+250Uy7Mi48cYbTa2/ceNGE7QQAUbtzO1/+ctftq2PCGPWC3z605+Wl7zkJbbT4bLLLrOpAdYDsE6AqQLU/p/5zGfkta99rZELFiW++93vtnUKb33rW+XKq640DcHf/u3f2voLyrBs2TKb8vjkJz9pcX3bpGsUCMOCyaamEbYg0XFCe/CVr3zFCB0EA+PY2k38CQSGAAJBEIbAS4wqlB8CCBME2n333Sdr1641QePnFCCcEETYNdU1eTfCHP9TNX0JLvLr6OyQiu6MNJA+App1CYy+L7/8cpvDJ0/ScPtU8yddyIiTA9LBj2kNVP8LFy6Uv/qrvzKbKY5/+Zd/sYWGlI98WRfAlsaPf/zjtg2RaZFXvOIVpkFgTQALDF/+8pdbHmxPhGgxncJOA4gGQn/q1KkyrHGYjfgZ+f/93/+9fOpTn7Jn73vf++QNb3iD/OQnPzHby+p4QJBYMIpmgTJRD0gM0xdeRuL0hfOp4hXhA4FSQSAIQqm8iSjHWYUAc90InZUrV1q9XbhAChBM3CN0Cu893AsBy+MioLksbRV+GPNToUreuFkk2aAj4yuuuFLqG+rNL8uzL4KSkYwszIl/s/pk6wkq9XyHTZs2yle/+lXbycBCxa997WuC2n/t2jW6LmG9ILTr6mo1oS5dQDlFR/d/Z0TgoYceVo2GerMrQg9TUtoiVZmH4sW5EBy41CjdnSqwVZB3KuFhq+e2bdt1YeMu6ezqlr/92//PtBVd6q6srDJNCQQFLQZ1r1TsifO0TvmwbuG4Ejl2RKClYDEl7wUNwp49uxVDPfI5Tw7Apn8cTkRmsH36en/9lOOEapV6HfupSzw6JQSCIJwSXOURmE4uNS4YUr9SdOfLbQIgK+ELLTtp9RW3v2enG5d8nTRh3AhgVOas2OdQoNQgeCpV6HWr4PJ41MHdhE3dadyTcadxU2zy/t5stJyUZc3qNVJfVy/LLlmmI+WanOzzQMVy7EtwaJwKfR8Wpdu0Bp/85F/rmQOL5NV66FC7rrv4B53L/6N3/pE0aH7sTpg3b46KfhXy+g9C0dQ0PMu/QtcxdEM0NE0lCWYpGehUgX5E13K06q6GbiUJxF27ep3cfffdckTPk/jBD2/StRVL5G1ve7tMnjI5E+yiWFupKnQB4rVy3XWVuiBxp/zkxz+Rvbv3yPe+/131u06WLluqhGCrvP/977ftkqxJmDNnjjBt0apED80E71ULVQyUgfEr9hr6yZ7gkCn+W5XzpXIPt3ngbrVNu8R9Yuxx78wKQvTOIokazvJCIAhCmbwvW4Fe8CtMhUfa4XuVCv0QBIV+HhY7LyjU3V+4NM4Lcaf5EN/zctvS7N3/vJBsLI7nlaadul9wwqcY0fOkPKyKhxygRUCwuJbAbBVaZ9pk/X+2EI+tfOwwmL9gvomNTLqc6svRrZo6kq9S9fxBPUvgS1/6F8Vgj3ziE5+0NG+/89fyqJ6sOG78JOlS8nTTzbfI8KZRsvyqq6RWtyxWVkKYyFnz7a5T0V8rnd26bkKxUqqg9zpd8eu75Rvf+IbsP3BIdztMNcEGCduhI/2/+vjH5NyF58mkSRNl5KiRmp7qJdAwWGxqy9qIrGaQib067fHRj31Uzr9ooUyfOl2O6AFNbe2t8nu//xb5w7f9gRw4dFAuv+xyeelLXy4f+YuPyLv++F0yq3kmyZxZ4/nDmqww7pHVDZwgMT2+OUw1tGGbKz2kKXvDaltaabVI48xXNS1RuAcOgSAIA4ftaUsZoWICJvvV9krXBU8vT70p5l/ML43X13MXsoQ9mTDPl2Z/aeTrWpBX6p+m35fb88BOy99X+IHyJ28bXWoGlAVSwDkAzGFjmPPPnnfn1ddnsryUifyrVPXerSN03BwmNGnyJBWuo3j8ggwaCNL6le46YGrls5/9rK29+Pgn/kqOHT8m73/f++W3Xvtbti7j2//9PfnQBz5sI/OPffyj8rKX32C0SYsjC+YvlPd/4AM63dCoJEHx092JlZr2xRcv1V0Ik2SUEoCJkyYbCXjlq35TXqGHHFlbqIRKuMnq1dnVbsQA8s20QqeShtmqGfjg//MhlBRKPNrk3//9a3oa4w9k1qxZ8v/qmoXamjqp0y2PP/ifH8jKJ5+RG2+6Wc9oeL/m4WkPkk1+SHrPN3X3ogBOB7IAmcakp4z4FlJST5JQHjuL0fOkMPvsefwdagjENscyfqN0uC4IcWP8vrBa/jz1xy/1Z8U6PULq78/dTuPjxj/Ns9DNvV8e1wUm92n4YvceJ7VTbUoav7CM6bM0/mC60zKhtmcBIAvujrfqNwJsDjxbbwBRYMEbYc60ofNnDIlGgwV5ldVVttqfg4aYg38hhnpV6HoHFiVijxkz2hZCPvXU43pS4W/q2QXnWF7SpRoBbYfscPjxzT+R2bNny5XLsy2MOnOgUzDa5nRU6+3uhz/4oZKBKnmN7lxgKoKfQacyh+rqzG0CVP0qK3StAAXXAAq7rjHotB0Uzc2zrG72jMc8VANhaG1pk6/861d0/cFCueTSS2RYU/YxKU65vPXWX+huj6O2JfTa667VOtGWs9G1xiYlSwckoRqZnfPyQvmthS0Wp5gf6ZE6GhD7JaidvTE0Km4slBfBPckHgDBZMpk7idfbv3ctssCeKLZfuWSw8AKHNE38w5QlAkEQyui10R1knQG/855OEkHIPZ0wFx27X+yrZ86be56xbQ71KvcIJffnGeEK0+De88qgIt+cK+cg//TiKSTAL4SMCRr1IxxCJn3mK8HTcPj5hb/HIT5x0/xwFzMuRIo9G0w/yoEByx//+Md2+h5+1AMbf9wepq/6WIBB+GP5a5FZBMhOi2p9X3zb4Prrrzf7VIvg70Grqe/NJIjVuaqq5/PNCGY+TmW2vU99p+DGVfh6jQjwa+B51h4MY42XYYmdEVdy0+DMKVibySfWneFNPAujZYEfY8g+K4fdWRkgJfbb4xn/KJe5svCU03Cz46TJkOcYd7td6Mc9Yft63lc6lMfjeZqkkTMejVt3nzBd4IGTeO6FnXtXaS49jz1Rt3nibrDtI82eBMJVBgjEFEMZvKR8EfX3197RblviEOZs12JLFzaqa8iA2zyHAHARB1JQaOjQuFzguhBOBTXP/CK+dYKJjZ91snS0yUW+dNZcTlb8nrJ5PHPk0nC3l6lKR64co0v+lAnCwIl2lDO1OVqXe2x3e9i07J6n18HzG0gbTDw/tutxch/3+IML9aKMbrgHpzNpyJ8ydWkZWTdAedlaSPnHjB1j0w+nVr5MWGgyeSwyTLTtqUBFmCNQ+OciBmFjA1EEjUpupjssDNjhZ6H1r0p/di5YepTXgutOEDLzkLbQTqdMIA2Wnj7KQZ6VQ3PV/0TRJOzdZFkYFbB0LAl7zshd/0FS1CZNS9VYiJdKo1gC2BjKgnG7L3ex58X9rB6WZpE/BiJ/NG5OyHsF7VH2pEjEQq8s77QEHiJ7B9wlYXJZepiwyx+BIAgv8h26ADDhqF2FHyqTdTy9E/ewvX2zu2LPEPycssfFnLV/0c5JAITAhQkdOkKSPeHYHN7CR2uGDRtme70RnC5YXWgiRJ0MUArK7OV22/qYXh1bsdL39qMubtyd2nT2CAUnDq7F8HsIBCNX6onNPV/yw+bre9jUnYs41If0sakjF/WiztQRTPiKIafzgQf++LE/Hqy8bPk6a+HxS++pD36ej9evP9vTdZsFf7g9XWx/f56Oh/X7M2F7+Sgbbi8nn2HmY0q0LQ+j1VF3/6VMn3t4pgMwNjLPBTD5YoI7az/aSiyM5ZULo1RB/+XKpU+VfpqKwFLLSfG88LR7S8LkmJc552N+lIdgpMrfrL17CLZRqtE/ZpsbV3bHX1WyUAIzpKC0KnfXY5FHfybFp79waTo6E6MGsDzxHpGdFQ9/kFDbMsjCZSUnLqbnDjJoUyTqm8TUO+qTew8W3lLUMKSdxSe8pZ5LjlLZa1Q7THkjEAThRbw/OnPv8Ol8/AdzQkeUyyP197guFOmMGaWxwn337t12KAvaAfwZjRMXYYdQQ/BzCAyry7kfNlxJgC7aQtghJK0slCd3pVX0fIs9S8OVktsxBgvw4t7dkAXTpOhCtyOHjxiR4B5iwf56noOpx6NejhE2ZAEsnUxBIvwCbwxYEdYv/LxMhW679+5T43k4yB0jcMpRTtiDM3Wg3LRLCJqfHEhdtYpmWODHlEQxQ3wM9U6NedsIN3uePsOtqCde2ZZEUmD3QY8Y6/ndGdbESPMx6aXlV0Kir9BMrjgm3mw9g4k3F+wZVbBkMrGXRbK/TlkoA8bLnQlNfJTa6t+eelqfkI7iCZTlnIQjHeJkefekTYF78si2ivpTXYyR4OOl7kEjS89Da2DLwcqjACDgs7aZgZKRg6wcFlOd3MHjsjRIgXjEhDgpppqOtWW98zBZCoQNMxQQCILwAt+id3oIDYzfe3LeGeLvF50so2IEGCfG0dlCChAeCDPi0Pk2NDbYCXZ8ZY+RLwKMC8HF6NjTJq/U7Xljp+VxN2H9SsMOtpvy9Ffuwmd+nwrotMwId4yHw+2YI+DQNPhUDDbkwUiFurnnOSQCMsHl0yMQBDQO4M574V1wjxsyll4+VYDt5fB6UgY+/MP79/ZCGUvZeJuhjNQHLMBtw4YN+W8WIDB41qlL/it1Kqg/k2JCvMxoe9S20COCEDMuanJBcpaF0kcZn8iFU6tn9K9utkNq/EzLkCWFtoH8dBVMbhysYYhnZfCQkE6IkBIAszU3LVcb5ynw+4WY6mUHMWldu3JXPo4+w02q7bozAsFtz8iFpJTQUC67UVdWR7f11vwybQU4uQBGaOutYexupmRIqq6iQadTsuk3FmnmL41Tqe8KTSZxCJ9hr24T7FkfQK5WpKxkVgZfd+FkwXo208Lou6UilMUjqq1LanP+Vkl74nWxgud8wipfBPr/VZdvvQa85N7hkZF3pvi5UMBG0CCAIAAc0+pEwNXlCBqE26RJk+yjMC6AUH/7lIBXJM0vzdOfWxnsB5yVwf2xC+Omz86Eu7/y9PcsLavjjF9fcZxQuOaFTwKnhjTo9NvasikNiAJCEBsi5xdkgmkeRtA8d0EPWTNCl3tfkAfeHVdKJCjHjp07rG2k5U7LUkruDE/aUabKp8zZDoFu1YJsURLVpkRVxYMJU/Cn9AjIjCz3rguCkCszFRx0pAYfRqHSpXHU6jbBaJ48NpPF0r/8rtTHr+osQ42DAGZUrwJY00Xo6/Jc0ZU3+q9NOrp0/U0nC3Q5TbHFfo9tHTotpb9LTkps69DpK706tQ1w5DT+rNfhghS0aRhU7xZfn6El6dQ0IXxMkWWkQMul/uStQfWCNGVbRHPVsJJ3m6ClBhgAA4ecuLX64Pbn6jR3jiBwawKftDOMTdzr8B5CSvvmYs0OhKC2Nptiq6nJrdfRdgqBqKlt0KO763WbZp3U19bbVVet63eqaqW6slpqKtXWf5TLf1Nd3dxn61BysGdFs6JqWWBsuL3oVqWsXuobpswRCIJwGl4gP6ZM2GQqcMgA57RzsXYAQoCQYCSKkJo9e7ZNDyBcnAj4CNR/mBSLNLkKDWHScPnn9lulE8nKk/fPObLO68z/eL1OReuQlLWw/Gn41E04TxM3z7j6qm8atkpHvg0N1dlxwtrpp+kiCCADXLjRLhh50C2KrcczLQSaHy40QixAbG1rpXs1TY+vdYBI0BacWNAWKENaDspdKiZtco4jZUcK7N27R0lvi9avSbHK5ELWok5sp9lTMKVmiFAW+GXG7e5KRt+Zn1kq6BVtC48vd4TNYquwrlBCpyStVd8B5ye0tiuRa22RluNH5ejxI3KsTRfsth9TIX9cyYESPiUEEPW2rkNWHDQB1KVDD1BAwPMualS4VmCroGRRZpW68W+sG6YCuFrq6mukqXaYhlMBqmcuVFdlF0SA8yKy8Ahn0lBhbMI8a4PghzDHpG3LPJI/GQRoMDKXtQ8Qo+3RVrRtQmKwIWat3ce0Dlo/PcDJSI2SNg5zAo+DR49pHZUE5chOp5Ik4tq6Ba1XlZa7WutaB1mo0oW9SgyGNTRJY3WjNDXq9OWwJhneqJdqzBoaRmu9hylFYEoDCCGNmob+M02HvpzsWx5abiNBkIakYuEsawSCILyI1+cdPMKD6YL169fbp2sRGAgSRpJTpkwR9o9PmDDBRpWugvaOl+zTjoOOEAHj/ukz/LzjIAxuf+62h+Hey4cfpi+/7Ong/U3L2leuJxPG60fYYuHxM7zoYPWi00/DenzKAJ6sTHfDM94Vl6fBeg+Mp+X++KUE4vAR1Tbs2m3kEIIIYUQLwSiPOBAN0i1dg5AC06yM2UmG3COk2vRkwUN2JoDvFCBsJvz7qhOtOnsHmoiGVrwY+auqvq2yTaOTn6atM/jHunUdyfHDcvDwPjly/JAcPrpfDh7ZJ4eO6DTc0QN2fkRnV7UJeYSlMgYSk+4Ofjc6Sq6sMcHXoCPkxsbhMrJxhNQPb5CmhvMybU99o5JytDw6lafuah1lVyHQtW1UV2TCXcUntbd/1C0z1DEjO/4sQ6knBOGcAnms9GmPXy7JF2GhKSE3ypD9yRKjjJhMr6KhFGcIAruYjkOejjO9eVgOHDlomB7Wd9mq/s/uflbJhRILfQddaGY0haoaviJapcdtN8iYEWNk3NgJMn70JBk/ZqKMbhwnirAipdqKCj3tUjHUJZtOhXLYWVHiTxkjEOcgvICXx4gEVTOkgIVnmzZtMmHASBHWPXnyZGH9wPjx422eujALhAkGgYVBaKQCzu8zmxCZoCsWxuNjY9Iw3HtauEvFUKbUpGUuVt5ifmn8Qrenn6brYeyZ9tSZmMp80/CF7mJpeFq8R3teJD2PhyCkfdx5x53WXvDn8nw8rZO1TyUu7ZG2Sl5ctLeTyRdssg5f5a+OtCsY5WtTRWh0V3fJ8muulFlzZui0yTY5pqPVC+Yv1RhKfvL/EP66uNbU+4xe2W2SnbnBKJdpN6Zsjh47Irtadyrh0J06KrCOqvDq7m7X/PT3UE15Fd8qFVR66BFnMdTWKmFTgdUwbKwKeF2c2zBcGmsbZXidrg3REfCwOh0FVw3Tg5jrtTTZ2Ie6ZAK/TiHmDjHtojr7/aV+mdD3cEXeSu+mawFY9ZA3Jig9fffNxHaWj/v1bVvoXD7ejgpDo1nBpGn2FI0FndmdP+eecnIRl3ufkFG9mLl1w7Qcbj8oB1uUPBw+qCRCd04d2i0txw7ZdFtHqxKOdm27HdoWOipl5PDRMkrfxYQxk4w8jBw+SrUuSsBqdIpUpy7QtKBpQN+QratQXCiWtv/exktezB9ilpneT92XZ72f5CMUPPIYBaGzxONvUQTOKoJgnaO2Dn40aUdZ2On6jzIvABQ6wtOxsagQdfG2bdvypIBDZMadM04mTphoUwgsXgsTCDgCfM75zjvvtPZDO/L25m40E6i9EeiM2I4cOWoaCRam4s8UFW0RrQPTVMRHI4GWCoPgxx/DVAekYPTo0TJ37lzTarlA9kWV5OPrLIhDukyHoNnANOrUV+uRFhUGKqT199JZqXlV6YFbdSrkh3fL1HPHSO2Igyrkd8rI2olywaRXSXurlrt9j6r0j8nxDlX5t6rKXwVLi2oBjqlGoF1Hp8z5QxoqdLcDxxXX6Zz4iMoJuTnxBqlXVTYCvqFGBX99k9q6IFQJQGPtcA2j6vCaeq2railyxNoKG38GFAFIYYcuvDzWxnkrR+RQy3699snhViURbfvk4DF1c7XuNw1EfWOdam3GyqjG8TK66RwZU3+OusfKyIYxMrx+pC2udM0UBactZwQLBqrvNie9u1W7xIwFxAJqY2EJj0N/Q+hIuMmIkGqA0F3g7SzAbTighoPCOY0LtbmCcZLmrCMILvxTguAdtXfcbnsYNAWsQueYXAgCzydOnGiaAsgBWgM6WAzPuMIEAo7AKv1s8F133WWjMG8btC0u1qFcdNFF+fbDolW0Ugh5pqUQ6k8++aQRUs4gmDlzpvlxZPFDDz1kaTKFNWPGDCMgO3bssLa6bNky/UzyNNudQdvl+w9otubNm2eEAoJAfAgF7ff88883wkuYep0ae+Kpp2X92vW6sK1Cx5e7pG60fmxppHbVw3WFfJNOk1QeUNWyjmJbq+X43uHS0aIaBFX10/I53Irfw7BhKuhtpK9C39T6jVKvo0tbKMcCOp0Hx828f63O7bMqn9E+F706I89s5T2dv4+FeRS/L29bA28jgl204mKFSKaFaO3O1jwc0/UfLa1KINqPyIHDB/TrmUocDuyS/epmkWiVLmht1LYwauRoGTtivIwbNV61DpNlRK2ubxCdnjANg75vW8OQvd8udbNwFdFvRgV+z1vPbmy9hrWFrG3knxuByDGEvCfcIbtJWtLAw1fmOZxVZIrO2TtmV+/z/vBnpIbt/tyjBn388ceNGOBmVEZnTifK+gI6b08zr75NGmSZt40o/mlCgNE/F22P9uKmWjtODJoCCAFfeKSNXaVfMYQUPPzww9beLr74YlvHQHvzT0RDAKZOnWptc9GiReaPVot2SFo79bPFTHE9+uijNrVB3EsvvVRWr16tny7ebrtmuL/jjjuMpLB4FtL7wAMPSJWGPdByTLrVblMhoEN7aRylAnykTheoFqG9Qv1yuwZQ/c+dO0vGDJsso2rP0RG/agJ04Rsr4qt0PQBXJbbN76Nw1m263tWrEOi09QegkPf1p2a7L909V7JMhEhhBgGBbBEiGWUC24S2tuOaimEyTJWlXTX6ZkZkBenQdt7ZpdqnTtUedR6Vg6pZ2Hlgm2zauUE27l4rjz27QttGvTTVj5JxwyfKtAmzZNaMOTJxxDlSa78NfhNoErRvpQXYi09/N5nOgLLoj8ke+y8qIzKZZiErjYWycnOfbanF0ddaGUKFSRE4qwgCFaeTdhLgZAF/90PNyqIyOuh169aZP4TgmmuusQWHdPQsNsN4/LTT9w7NAsSfQEARoG3RRryd0G5oR5W6xY/FZrQnhLsfRAQh4FwGtAQsfL3sssssLoTBiSlpon1gLQzxzjvvPNMGEJ7tmWgfjCjodBg2a2LQTkB8sSkD22tJg7JQNjQNXHwRSfUFUqULD7q0jJUdw2XHRj0gaXSNNIxrlJqmY1Jdp1MFqno+p2miLJ+jX0wUXfGus//06Nmoj26750K0aDbmly1uxE2nnXXv3snjx9pDi6oWWxkxjCZREmeP0BuHGRQEdC2Jqob0fWS6ensNZMx7oy9VD1YYZIJclP5pm65qkg6dLqpXz9GNnTJr9GK5vFkXpMoxXRi5XzZt08Xcm/VT3Pu3y4ada+TOp7pkuG4Rnj19tpw7XT/LPXyqNFTpdERlo6acEUrra7Ut0E5Z3MpuWaab0ApkbccXbWYtRH9d9gwNFC7KahfuLMKgwFfumZx1BMGJgHeKNDgaH3O6dLTPPvusbVejI16wYIGNtBhdEc46eh3CwGFNnZrzy3f42mnjJmyYQMARYPQOCeBDWd5uuEdwpwKa9kW79LZJfMKwZoB1AjNnzjTtFW0MQY/N9avbfiUXLblILrjgAhP+HOlMeMKQJmnQnrG9HaNFYDoCQkz5SIepNMLjrkWrr+rhGsrUViGNlSOlfV+HqpDb5YKl58mwUe26vXOnNLQ1qZK4Tvtc1Rh0Z2tviK8Z8d/Ssl8D9ybXGef1dOt09GbovzUgcTTLvFFvNfzlV4dqu2etPE/CDCwCvClG3D19mr1N9WPBI25/ger0967+kEt6StYbWAx9VlOh+x50OmvCvMly0bxL5EjnYdm5f4ds3rFJduuUxOat22XVqjWqXRgmUydM1Wu6TBilUxGNo3VNykjdZaJHfKu4t7MgtKFwtgR5ZLtgcGWkAEQsHM3GMuePPjeyaTUiSJiTQOCsIgh0Mdae6IVyhgVcjN4YebHGAHXvhRdeaOpbiAEdLR0eP5C046YjTU3PDyj1DXcgoKfe6Xw8hICdAZy0l7Yp2o0JVAUKgU44jPu5oCeNhQsXWhtlTQPTB4RlgeO4ceO0Y11l8Zh2WL1mtWkRiDNq1CgjB2gj+MQ0cdASQDpYP0M+3pbJy8qjhwFV2QeQNElGanSsaBJUR1DZ2SCzxiyRaTNG60p3JRikqf+ygX7WEed/XggMNelf29PPSDD3oMoDq4d19vak5/dpCWgKmU+hf/Y0/g4gAtpmeX/QANCn18vep97Ze6RXxUffEV/Kwtb3zkbRHsObRZhDPvkdsDmyVkZXDpPR4ybIuePOl+Odqgk7skf2HNwuOw9ulq171sv6lats6+nE0dNl4qhpMnXcbN1iqdO7umiV1oix0xwtr8yFn5UzKxK35gH5zE7UYL9NmJNFYEhj5YI9b6vu0kdI2BCClStX2qIwiMHSpUuNGOCmI/VO2oU/trtTgFO/1J2GCffZiQBtCC2BtyfaR9YeGSlno3sX0N5OPQz+kFL8sZk6QKvFjgWE/7Tp0+x0TvxYaOhtmkOc2GmDVuy6666zxYf33HOPPLTiIVmyZIl9cAltAhozjk52TYPnJbr4sLuKKYQ63eaoSwYpB128+teqe8yIkTb/PH7ELJUH+pvqrtOnqlrOyYQe0YBQyO7cz762aBImEzPklRkPgd3jdpdmkPftcZydbWowa53KWdyJviD3nlDzI/4z4kAYPy0ze2O5N0i7t2eIHFqL3hmrxFe3rupJjlNHNsrkkdOktet8O/hqf8se2bZvi2zYslruX3W3Ln69TyaNmSAzJjXLnJnzZHTdeI2bW/yg4j87hUHz0zaZy8yKQA69y60eYU4KgSG7i8E7W2yMd7rco1Z98MEHbdSFPwsPOd2QuVkP5+hxHyYQeDEIoKW69dZb7TwEhDGjZ3DoiQAAQABJREFUdxfKtEWOZebcgLbWNhPyTiZ4htBneqBFTy/k1D40BvjTjhnxswWSKQJLQ0kEpADhTxi0B6SFm8O7IBXkDWEhDFMK3JOW26xpqNSzDrq6tSzduq1Qpw84dlg3uymj6bRDh978u2/WNFSbkPvHEX38ynRrfF5286vJX9lPsAfC5J6TFAnJP7yL/tqS8JZI0UA9yYfr9CFQCH1hyjwvDOPvvTBs73tIhcekDWjjyQ7byIJpIixg1fNK9fCsQ3K0Y588+swDsmr1Y9rmD+vBV00yS9crLFn4Epmg62D0yyi2/gEthbUim69CawC1zfbDcDx2Vaxy7f0anuduSBIEOrxUsHPPxTG4W7dslfvvv9860ubmZhtR+RoDsPKwHt/t58ExHgcCfSJAm2IEz9oAhDWCHcOIHQGODUEwMamE1DUKHiYNhx/ppWl4GyUcxuP7lAXheUY43DzH5h5/0sLGD6LQzjHEKGK1TLVaPg46yuKKzJzdLK985Sv0nvIqRUg6dZxueslwlwP+0OysrF3ZwgTzIZgn0Ss+T9M0Tnho0ePPgCDAe8reVU/y/pYyO301hMkrBtL3pG7CpWH9MakTR8/HSoz6ans0T9Uy8YUNtli2dB2VZ7c+K0+se0p27tuqZy/sl+njZ8viuUtl+uhmXb8wWjUN2VoFWjFlz4isOjv1nh0MQRISnPt3DlmCkFabzo+dCUwncKodc7bz58+3ld10iN7BeqdJXNxc3tmm6YU7EDhZBGh7tCF2xNxyyy3W1hDctLlM6PYW1LQ54qTGtQCk4+0RDUAhSSA9T5s4hMEQx57pugK0EIXpp+2e8BU6RyzdquXoalUCA5HJ4ukTufqaa2XR+Qs1VK43p88lkpmcn7ndFxt/tc0Ld3ZlY0gXNhYpn1bv0WX2rOdvbFPrwWKAXQhpf9f5rPxd8sjdhMsZ/Ioa7VPzj7I37KnTCirzeeV87Z4nRNJLnRAFPjOtX56QXfu3yrrtT8hz2zbp+TR79GCmUTKveYHMmDhLxo+cotNhjRpFF85a0ciPFqcpJaRUb8P0gwATQkPOeKdMxVCZrlmzxg6KofNkz/isWbNM/UqnmRq/p8PE+H0aJtyBwKkgQBuiPbGlkOkBphtcyJOOC2f8aJ/YCH78/VmqdXA/wrmg93aKH24uPs7jefvvAQ2Fx/E6kB75WZwcoTDtQIWuQdDumM6Ve8IN04/4TJ0y0Rah0WHT4XLiHf0tOwxsyyK/qVyHrBFzbs0t91PLflnknnnQ/Z9oCOUh3T4xVPgMBgK8p9zLS7NLX0venXf0jmLe/NEWqO0oSw5h3UMSSDr7oidtihttT9qe7SuYRGH3mPJm/RyWrjUQqe3SabWRc2XSqCmyf8Yu2XZwvazZ8oTcs/Ln8uT6UTJr/AJZ1LxUJo6doQsddZpM1Vt8YwIzJIWe1ez0/xmyGgRGT5CDFQ+tkLVr1hoh4AAaVn+7SpUO1Q0dZJhA4HQjgGB1c++999rphWlboy3SVhnxQxDcEM8FvhOHLBwagCxNJxKkh+DnIh5pYXs+/py0nVi4n4fx/EiTzx9zj/DnJ0InzX73BQvmy9VXX63pc2qoPtCfjG3bVN0wBMH8yMQkAN1/j0ndPb64emtLskQ1dD5CVtceFHun2zutuBsIBHqwT16LZ5Q+dD8IpRE8f4lZP+t3Hkxbjzqzy9qbtikf3ZOCv2lCZCnQVjItQD6qNlC0CvqBdp1uOKo7IbbLw6sflLXrVunR3HVy7qxFsmT+JTJ++BQlFtnnrLN1Cj2lCFffCAxZgsAKbeZ9OXCG/eGXXHJJfmQGHHSM3onSmL0xplD589Qv3IHAqSBAG3LDscb//d//bbsRENQIftqhE1bCZSOlnnUC+CH4nQxYR6pppuQ2TYfnhE+JgJMB/LxNu+3p+5QE/pWM1nS01a1DtiyOHqZYVyvXX3+9zJ41W8ucHVBjXbv+0SroL8h0CCRnJuvQM4HigsFtC5CHJSEIFoDE9OoVOBMjuaQLH7l32AOAgL3jJN30teTd+XeZC5gjCJkoJ1Q+ZN6V+WhE+32orR7a8nQtDsHzTy1B7pQC2wWhpF3SpjmiSb8eZmFoMjr5wPdAlSwclc1H1smKJ++VTRs36Ke6R8vSc6+Qi+ddpoeC6hco9ZTPrEzFen1LLv7kEChbgkBH5oLdO0Bs1LGbntskKx5cYY3owgsv0PPnz7UOludhAoHTjQBt0Y23Mdom/9maePToEd2aOMJ2EfBNhieeeMK0BoT18E4C0BKkwt/TfTG251EsjbTs/tzDW5n041F8KphdPsuXL7dzQjxc2IHAmUfAGIX91vi9mdFuPvt4eJus3bJKntrwuGzcuU4aRtbKBQsXy3ljLtRdEHrGDed66F+jCfxcNZ5JCEiyJoR/LnV7lku9l5WF7+WlETNNhx0ZXfCo3G7LezqGl6r/vKNlixcHxvD9BA6BYc8358sz+vJOr9xeUJS39BGgbfk0gJcW1TtbENm5sH//fvu+Agti+eDS5s2b7RjlfFg6pJxGwTUF/uxM2RAH6gU5YO0EBIGzFsIEAqWDAOKbC+PSPbvjvloX286ZNlenlcfJxl3NslJ3Ptx/z/2yddJmuWCObm2fcK4uZBxGSE1Fpzc0KQR+Ns1hwsXuyaJnbOn59eSTBfJ7bEsl9Shbd9kSBBf4brP4i84YgjBz5kybUqBD8xGSq13L9k1FwUsaAQQ8bZH2xsUxxitWrLDdMyyMRcjyfMyYMUYSOJeALyrmBXFuWmAwK+m/jcI8vQ4+9cF3HJqbm638hWHjPhA4kwhkWmQtgf62zOTkN9MPnN/BdMLIurGycNoImTZuumzYvkEeXHmn/PKem2TzdF1Tc8kNujJheO4YZ6Ys0BugOejRHqgzZ0jcL7z8gdseLHdf4J17WlZWWU8xgDSCn473zjvvtC/V8dnaSy5ZpguperYvEs47YtxhAoHTiYCTT9oYbr7ncffdd5v7ZS97mZ3O6eQB+4hOOdx5x52yceNGa7vEcaHM89Nt+kqTPPsyEB6m6/i65Kte9SrhrBBMX2n1lU74BwIDhwD0gIW9Ss5tUkCd3qSx+SnpGQqcn5B5Zwd+7WvZKb9+/Jd6lsJDOtUwTF73kjdJ8+hzVY/QqL9ZJQYaj+OgM8PaB0tIb0nFM8g9NosJCV91k/P3/NNgZeguW4LgWLe0HNXO+B47X56R2uLFi22u15+7HR2bIxH2QCCAsOWT4Giw+CQzU1xXXHGFaQzIj/bH5YSW73/cdtttpmHwXQekgWAmzOk0fbX9lCAQxu+9nJzOyMLEGTNmWHHw7yut01neSCsQODkEIAj8VjJSfQJJ0CdM9fE4a99syWW5Y5sclkPyxPoVsmLl3dKtRHjpgivlguZlMqL+HNU9sAuIOKSv/5QxVHLAkpn0twkLcJOQBPfOiuUBytIuW4JAZ8ZIjPPlOeeA9QZoDzhG1jsxOlrvcLHDBAIDgQBtkY8hsfYFwc98PTtnbIrLRxzaaXhb9Pa5du1a22kDscC4vwvq01VWT7cwvTQfwqT3HO986aWXynkLz9OT6XpvmyxMJ+4DgTOHQCqwe/fxJuS9YC609d6/6thR0SZbDj4r9626QzbqJ6hnT1wglyy4WqaNmqkUQTUIRhBIQNewoVbAsFAhbzxv9ysgCUEQ8kgNmCPttLwTw2YB2COPPGIjNr6+yMVZ8311hgNWwEh4SCLg7S5tc1S00B8SylQB618Q9MuWLZPm5mb7fgLhPb67sUkDfxY2PvPMM/ZdELZA+kJHG+Xo4kDCQCp8G2OaFumcrPF4pEXenr8TaO55xg4KFlJyOeHG7QsnSSdMIFBSCMAC3OTaZ94HhzbZXjJd/ZD15qffAdHTcmR/2x55YuPD8tDKB6WpcaRcPv9qWTRjiVTrR8gwTDKgP7B09Y//DOx3ZOdD84SL3wckIVm/oHflbMpCg+AqVzooLg5AYrT26KOP2oeWmFagg+OKTqycm+OZL7sLTS9JKlDx8/aFPwIVAf/QQw/ZB5NQxzNXf7JtEcGPCnP9uvVy33332QeVyAN/hDKGfFLb8zfPk/jj5yoUpkkZMfjjphxoCjCQHAg3H4FyQzk8jvuFHQiccQR6Zhgy+WwtmdactW+ntG7rA9Mg5EmDxu9SonCk+6BsOPC0/PSuG6X7WKVcecENctHcK/TchAb9zWtaOlXBYWGkwwwgn3OwX6YmlH29MvudQhAK8z7jGL2IApQ8QXByYJ2YdlLcswiMRYlsGbvsssvs5Dgf5YDFqXaiLwK/iDrEEEAQevtJ3Wk1IQYI1ieffNJIKsco81ll36ngJMPtNK676cL4T16Ee+6554STFjngyw8tcoHsNnmeqvEykCbx/Z50cJO/r4HA5qTEuXPn5gkKz1OS4mU51XJE+EBgQBAoQhD8HEfyQ6BnYj2jCNlfhHnm4jeIwK+o1I9BVRyT/Z075fu3fkf2HNonl16wXC6Ze6U0VY3S0LUaLusbTJtAEqRiGfC7zHloyIwgZLlaoDL+U9IEwTsm70R5p7t27pKf//zn9sGlyy+/3FZZp50eYcMEAi8GgbTdkY7fe5oHDhyw6S0+/IUwRR0POXAS6+Gwn689upAmD079ZNqMcxLss8s6soeMkIZvOUzTPhm355/+RjiJjg7Sn7EYke2XaA1mzpyZT5bnXj51Wpz8w3AEAqWAgMtlypLr+iEIPQI7750E0OeqFSAUUUyboMeKi2oS2iuOyoG2XXLHY7+SdZuelcXnLpOLFiyTMTVTNSzUIDtYyc5CIq4lwO+JCxMahAyHQfrrHRTZ8UVGyIGPdPiuAp2YqVFRgcZXugbprQztbBDWLjzT9oc/ixAR4rRFBCpfBWVBH+GdSLhg7W+07XnkVfyaNobzPNavX28fF2Pho2sN0rRPFX3Py+tEfPwgBhCcKVOmGEEYNWpU0aQL61Y0UHgGAiWEABq6jC9kv6teRdNFCHwYCgNXZrrACIUyha5u1Q5WHJf9uhXyoVX3yiPPPiKz58yVl85/rYwYNkbTrNWrRuAT1dksRo5hpAQhSzv7S9rla0pagwCs3jHScXJMLaMr33rlHV6XvmU+Y+sdYfm+jih5KSHg5IB2hqDesmWLPPDAA3Y+wJVXXSmTJ002supEwNtfGq+/+hCOy1X8aAtwc/4ACx43bNhgi3DRWPiURH/pFXvmwh0bLQRpQwxmzpxpXzaFFLDWgOceljJ5nfA72foUyz/8AoGBQgDRnxGBPgRyEW5ADOQFdtbGiQu5R9aoHkAXB1fW6Oeku4/J0bYD8sDqu+Thpx6QC6ddJFdefI2MbBynoes1MJoEYua0CHkNAlMMfZRHw5abKWmC4B0un6596smn5MEVD8olyy6xkZsDTQcWJhA4XQh4m3OBTPvixEOIKecWIFBvuOEGGTlypGXpgpQb4nLhlwrZYmXzfPwZ925cUOPHVAMahZUrV8ruPbuls+PU1yG4kIcYoPFYsGCB1YNypuXAndYHUpRfLElXzEItjRMmECgFBPjFcPQRxyQhqvOSoOenBA/IpHhS4G6dH0CMGyNQf12ea8EIQutu69B2riSBb0S2dx+Se5+6Q55Q2bNoPiThemmsG63xlVSjfcj/HCAdWTk8+3x5SLhMTUkQBO+ksDE9Qp+V4p2yb98+uf32221fOdqD2M5Ypq2tRIpNO3NhmLY9F8ze/niGgF69erVtRUQVzwr/ceN0FJEjph5/IKqWpg1JQZPAlkp+DxzVzLdH0DoQDuPhEeIIdjQDrI2gvJR9woQJ+emQgShvpBkIDEUEOrs65JePfFceXveILLxwiSyfd70MrxxpZyVUcl5CV249gzIC001gq5aiZghMeft5kmf8vXrnhp3v8JTX4eZkOkYzfkqid85nvNBRgLJEwNuPtzmvRL7d5QQuZxOwU4H2x1w97W/EiBEePN9O8x6nyZEvVzIE4TwCTmdE2PNb4CuRkBdIAjZEAQM5gBhwYBjkAJu41NnrfZqKGckEAmcFApU6fX3xosvkuE69Pf3YUzKqZpRcPPsyXa7YpKw8+5H2/FSRWZy8mFctlDVGJUMQ6LzoGLno5NSl6p5KWbNujW0BQy1KBxmdXFm3t5IqvLe5tFDuBzl48MEHZevWrTZXz4JEBO5gGG/jKE2NtGjv437kj8BnrQInNUIY8mFMxZmV0PzU6fG450rv3Z3FiL+BQCBQDAGE//D6cXLpwivk2BE92v/h26W2pk6WTL9cf081UglJMCUeZ4qQQpV06n1VD2solmxZ+JUEzUk7qrxbAWZ0xKIwOkLOPGBkxNxumEDgxSJAOysUmp4mC2J//etfC9sYL774YptWYP6eOH552IG2LT8nCpoZ9xj/HbjmIJmBzeqV9VgWNv0D8cZ4OumzcAcCgUAxBNjg2Chjh02Say+5XuqVHNz7+K9lw551+hmo9owc2M/SiUL2GyuWUrn5lQRBADQf3dBx4cZwWiKqVD7C1NTUlF/4hYo1TCBwOhAoXHTH/P7PfvYz+1wz52xATBmxI5CdULhwNuGdE9inoyxpGv4bcL9Cgc4aA3Y6oOVgEWManrCoOP23xDMvqxOJNLznEXYgEAgUR4C1BpW6vfGc4ZPk1de9Xo4ePioPPHOX7Du+Qzc06PQeOyNsWiE7J6Eyf1Rj8fTKxbekCAKgeefLiXJs80KFOmvWLJt28OeFnXq5gB3lLC0EXEhis6ho+/bttlOB73xADvxEQdokbc6FbNr+iOuj8oGqXZp+SlRYe4CWg8WLlA1jdUnIDH4pUeAe4+Gzu/gbCAQC/SHANEJ3t+5O6q6R5lEL5Nql18vWXevksfX3ydHO/axTNI7A2LZC+5IKNAtDwJQMQfBODJu92oyK0B7wRTlGcBieRcc2BFrdIFXBCQDZmSBHmPMLzt2bI+fetnWb3H///bYAkM80ozlglE74lBB4HLetTSZz/+7/Yu1e7TzRWDpR8fR7hVNP7j2MlS1HHFK3xw07EAgEThYB1cIpQahQglDZXS/nz1ws86bOkSfXPiwbD6zRw5VUiwBJsORYP5f8aE82ixIMV1IEwfFBdcqhNGzN4pz7tHPDHSYQOFkEnBikbYi4aTvidES+g8DU1ZVXXinNzc1GDtIwJ5vfQIQrLAd1KvQbiHwjzUAgEMghoFMGfKypimmEzkoZUTtGls65TBrqa+VOPZa5RfRrrJyv4OJJycRQMCVRC+vElXHR6eFm5Tj7vM8777z8KA6wvVMkTJhA4PkQ8PZCONT0qOe9jaVTWRzfjT8fKoKU4vbnnka0uedDO54HAkMXAQ5kQvbb4Ujq0lNGZOqYZlk0a6ls26EDjJW368FKLRqiSzrbWSPnTKG8MSkZgoBGhsNgmFdl7QGHuvgWLu+kHer+VL4eJuxAwAmBIaHty9sN7QmBz+mILEjkVEQ0B3zbA8MzwmJ723PbAsSfQCAQOMsQUIFvDEEtlZrdqkWo7KqXRc0Xy4xxzfLYmvtl2+F1+kXINqmq1dMD9CjmoWBKgiB458ucL6vIWXQ1Y8YM29boI7dCeyiAH3UYHAQK2057R7st7mNagYOEIAdoDtw4OfB7iIan4X5hBwKBwNmDQHacc4/mGplVUVErI6rHylUXXifHWg7JE6tXyLGOg7r1UU831edDwZQEQQBIAKdjfuaZZ+xAGjQIEAbvrKODHgrNbXDr4G0m+zFnP1j8tm7ZagsSOduAaQXaGsaJqru5J3wa3wLGn0AgEDjLEOD8Hb0qlSTkZD8TDWx9bJ7YLItnL5YNz62VjXvX6/4F/UT7EEGnRAhCtrqcXQvr1q2zExNHjx5tnbN18oo2nXQvlfEQeQFRjYFDAILpxskCWxnvvvtu+ybBZZddZtMKTkJTTQHhU3LAszCBQCBwdiKQCnw7ONE8sgFEtZ6RcNmFVyh/6JY1256W1o5WFj0NCVMSBKHCDpgQ29oIEZg6dWp+FbmN3pSPYdORhwkEUgRckLtf4T3+7rdz105hQSInckIOfI0LYbx9eRuzdqdtzo37+33YgUAgcPYgoB9l18rSH6hGEeGvzgp1VHfX6TVamurmSfOsC2Tj1idlz+H10lp5xBQO2debcHZJe2erxuabKbnBhpEI3J3qz7/SMyUhcenA2WLG4kS+1Dhx4sTSQypKVJIIIMj5aaUjfPwwtCv3R3Nwx+132JoDyAHTCh7OwxI+TCAQCAQCxRGgX8n6luygRO0vModU6+B1zvR50tVeKZu2b9RvMbR5UO2HcFZIdVX26aNy6mVKgiDQUR84eEA4PZFzD5gbDhMInCwCHCvs0wSFQp62Rbvimx64l1+93DRUuAkbmoGTRTnCBQJnLwI6wZ1VnvkFM4h59VOCoDMLuhqhWiY0TZbpE+bIqrUrpaXroD5TzUCOQGRsQVOxQYinQUKp2xIuqT8lQRDoqHds32FbHGfPnm0A0YGHCQROFgEnBk4UODqZNsSOGMgBW2ivuuoqmTxpcl5zEOTgZNGNcIHA2Y1AniA4DDnx1G39TLcShCoZUTdaZoyfJ4daDsuze1aZZlPpQ3bCoqkNdJpcBzMWlfsyEHElQRBQA+/du9dGdH5yor+HsAOBk0XAtQKmGdAfIl86ZEEibYsju5m6clLgYX0K4mTziHCBQCBw9iKQVyDkIEBDwFiWA5RqpE6mjp8lw5qGy4NP360rC9pMg2BcwMgAEw2FrID7Qr/SwbckCAKf192/f79MnjzZ5ojp4H1EWDpQRUlKEQFvK2l7QfgfOXLEPrzE9AKfbJ42bZotfKUOkALWLRDONQ6MBNI0SrGuUaZAIBA4QwikzAB5bhoBvtzITintR3SeoaKzQs4ZMV6mTJoqW/dslR37t6r+oDM3raBRmKXQeMX6mVKlCSVBEOjMuTgcCQOAdN5hAoHnQ8DbiduEZ7ssnwrfuHGjLF68WObPn9/ryO7C7Y8ZUcjO3Hi+/OJ5IBAInI0IICqdGehOBFtbkIh1lVfsxrNzEabP1cfVsu65NUoQOvRiQEJs/atRTLLZnxRHQnCVljnjBAEywHcXUAf7Ubc+qistqKI0pYwA7QjNAGsNVq1aJWvXrpULL7xQFi1alP8aqJefcK7qS4mFPw87EAgEAoHeCCDREeCoAfjWgl4mz9UfLwgDA1vVNEwbN0NG1o2VjdufleOdut2R+QeC5Ae9Gofg6pddzha4Ky1zxgkCnTUEAVIwatSoBMTSAipKU5oIQAxc44S9adMmeeyxx6S5WU83U+0BZx5g+HH6D9TXIZRmjaJUgUAgULoIIOwzgU8ZTZGg/Q4koBsioARhWMUImTNhgew9sl12H9ypJIDwJyP8TyYMuQ6eOeMEAc0Bn3dma2N1dW6fKEwsz7YGD4zIqfwQoJ0g8LH5jsf9999vZxxcdNFF+W958AzyECYQCAQCgReDQDbW56+P+tVVhVu1kpU6CKlkw2OtLJm1TI526Nb9/dv1Saeei5DLFRsi0RM9ScsD5cKWgHXGCQIqYdYfjBkzJr/CHFyiQy+B1lFGRdizZ48tSmxoaBDIwfDhw/Nag7QtdXahHgwTCAQCgcALQQDJXqX6AB10JEJeP89kEw9MXlZ118i0UTOkqq5L9hzaKR0cmpTXOqBlgAhkZKD0KEFvTM4oQaDjbm9vl5aWFpteYCTo+9d7FzPuAoG+EWCKCs3B0aNHZenSpfm1LExf+Q8RLYK1rd7Uve9E40kgEAgEAo6AkQEnBxCERHQi5Suq8hSAhYp1FcNk9NhRsvfQbjneeqy3RjwhFp58plIo+qAnyBlwJbUc3NwhB1xMMUASGhsbrQC+eGxwSxO5lSsC7Fh44oknZMeOHfbZ5unTp+c1UZAC1+XR1mhbRhSMOJRrjaPcgUAgcEYQsIE/fQpis1CYs0chE6cVXfqsu9LOXTl89JAcPX5Uw7uuwO0zUoNTzvSMEIR0D/qx48ds5Tmq4XTxWNa5n3J9IsIQRQABj0bAiSXV5J6vf65evVrOP/98mTdvXtE2RFtKr7SdDRW4Mm2JdkOKU2r8vtjzQjw9rMf3e2yPzzNIPQZ/D2Me8ScQGMoI5MYbvShCzq9ayUGtkoZqiANHI+ja6DkjL5Bjh1vlQMtu1S7oNIMdhKAPu7OzE1y/ab9Y5ivSOYsSwfGMEAQnU3Quba1ttg2tpqbGIAliUCIto8SK4QI+FUibN2+Wp556SqZMmSLnnXdeXo3nYUusCgNaHJueU8JE3cEIgc7FPQL9ueeekyeffFLVncfNnzAeh4KxhuPRRx+1uIRnXRBTNyz8ZJ0QaTGFg6aGo6t5hvYG7V+YQCAQOBGBhvpGO3+lpaNFRR4LE2ET5WWybQNnqMx0Uqw/YCuab0ejKC4E6NzCBAKOgLcH2gcCiu2MHHrEeQfsgsHfw3ics8V2MkB9wcBxwH/nzp1GpJjG456DoyDkCP+DBw/KzJkzTfizRZQFngh+zpHgiGpOouSY6vr6etm6davtOIKYseMI4nDOOefIueeeazB7nmcL5lHPQKA/BIZXD5e62jo5dPSg/e6MIOTOS0inKEpZyg2aBoFpBTfekWAzKoEcnLDFsZRR84qEPagIINwwjHBXrFhhx3NfuPjCXp9udnI5qAUrgcz8N+X1ByvcHGG+6plVJsT5zPXRlqN2wiTPIAicNulx3IYMzJ07V8aOHWu/S3YY8fvEHjlypGkeOLOEPCAQEArPvwSgiCIEAiWBQE1VgwxrHC6HjkAQ0t1TPcKtx1USRT6hEIOnQYAfFEGD7zAwmkmPv6WULCgLEwikCCCEEGJPP/20jXCXLFkizTObTTi5gHIhl8Y7G9yODXUFA6YPOF+EBZxjRo+RGTNnSE11jcybO8/8/JPqnZ2dhp8TdOITFxK2ZcsW+44FfmhrCIvWAEKwZs0aI/eEgyxwYqW/A8KHCQTOdgQqq2pkxPARcvjoYens0qk4lh5gyki0DRpBKNZ50JG1trYaQfDntoCxnBDMXnn8HQQEaC+ouVeuXClTp061LY1V1XwwJSMOtCEuRrbuHoRilUQWYJP/Dakbwc00AWsJRo8eLRvWb7DfGYQcgY5moba2Jr8OgfCuoSEtCEBdnX6dbuoUrV+FXHPNNZYmGoMHH3xQrr76alsg2trWKgsXLiwJDKIQgUApIVBdWS/DGppk54Hd0t6pC3uzQ121iDpa1v+VDHh6FXjQFPq9cu3vZtAIQloIOiA3dEx0RIxaMKE5cGTC9naC4MN9+Mhhm0tH27R8+fL8tBRI8dwFpLelswlBx8hxQCMwe/Zsw4VpBL5zAvnet3effRQNoQ6BwLj2zrUIrAuCuKMtuOmmm226YcSIEfLss3q2vGoP/NwJCIV/nt2xP5swj7oGAv0hUF1Ra2sQ2tpa9CRFjlLKtlobO8h97AllQikrFAaNIHjHVQgoaks6dK6+whTGifuhiwBtwA3utE2sXbPWVttzGBICC+PPz0ZS4Di5jZBOBTXrBViYCDlYtmyZ/cb4yqWHc9s1Loa3dmKsQZi/YL5UV1XbzgawxY9PZjNtceDAAdPgQCjYnhwmEAgETkSgskIPTNL1dW3tx3SKga3BPRSB0KVMDLw2g6bT8I7LO3TucdM50QH5cy9Y2GcnAi60qD3twtvGtm3b7CuNfBKcC39vS2cnUidXa/99ERo3xn9r/vtzP+61DzPtwaaNmyw82gRIBlMTuJmygNSjYcDNOSbchwkEAoHeCFRWVKuWs0b7qXbd5IgGwX5eub89AyHzRaNQgoxh0DQIvaHL7uiQ6Fy8w/Iw0fE7EmeX7SNZaw/6Y3Hhhlr7rrvust0uLIZj1Bpt5OTahhMuCBZrNxDqbAvF8AwcIVsp9hAC/DmEavfuXXZCJYQALQI7jkiLHQ7EY3qC37BPT5xcqSJUIDD0EeDYpNrKWp1e6JQO3cUAJYADmA0Zx5QgKcgKlv0ddIJQSAYMI+2owgQCphWwnw+/GxbwZN/qeOSRR2xR3XXXXWcL7hwpPrxUpV9PC9M3Aq5pYUpmwYIFJuTZwcD2Ytb+sHWRdUD8LhHyrg3g8Knbb79dpxWm2zN2jkAiIGtcnF5JeOIuW7bUFkCSV5hAIBDIEKjUExOrKjkAsFO/A9Oe9GxOE/SRs4YSBW3QCEKxEV8xslCiOEWxBgkBiIFrDsiSrXYIIw73YdEdBuJQWaHTUiV4NKkVsMT+gCdaAYgBQhxhj0aAbaKTJ0/Oj/6ZRnCNAAsUcXNSIjseCIsGgQWKbJ286qqr8osbqW78lkvspUdxzjwCygPop+ixOlTLlq1AOPPFOpUSnBGC4GSBToWL+9REZ5OicXa5vW1QaxbEPfPMMybcWJjoamx+dITz0XG0l77bSG1drR1mxNcuEfjgxgFJEC7wZRoBHDlqmU9k89z9mc6BVLC18bnNz2WjHc0KrQEHVWEIz2mKaCfCBAKBQAECShLon/iSrB5dZp9zOpEolK4aYdAIQrFOnM6FTh+bq1iYArjjdogj4G2AkSvaA+a72XPvuxa8+h7ObfcPuzcCUyZPkcaGRtUYHNcHFUYG5syZY1MLaAlGjBwhHe0dwlcwmW4AT7QNHLkMYeD3iZYBjQPvBHLgv1dftwCJiN9vb9zjLhCwjzGplrNKf1PS3aorEtjJoJ9z4mNNuijRvs9gk6mZlsE+5mQah9LBbtAIQlpl79SxGb0w70kH4yY6G0fi7LN9eoHV8XyIiR0LCKgwLwwB1hmwzRHjGhd+X7h5BhlwzYL/LiEFHK7khnBc/hv1cDyP36qjFHYg0AcCDH5Ne4C23MP0rEMoXf2B9hle3IG2004lzcvnPOloinVAadhwD30EEFyQhMcfe9xGrXwICCEW5oUjAKZcGCfl/ntzf5757y/1w9+N/4YZ+7jBz9Nyv7ADgUBAf08KAr+NLr2q9EwRM/CCvkx/z/qKM8D+g0YQeurRQwQAj+8wuNqyWJgev3ANdQRc0DCtwFG/qMIZ/bpgGur1H8z6galf4J66ue/L2LvQx/6uCOdx+4oT/oHA2YpAl25xZKoh281QDAWjEbkHpccQBp0geN/DKISOBdUlBKH3eQhZ51UMzvAbugjQHtra2+ysf1bM80VB9t33J7CGLhqnv2Yu1N0umoP2UUYCij7MPJ0QeDhLL9Eq9BM1HgUCZw0CesqPHbGsE+lSrech6C9L/6XGxS+MW/1LcFeWlzAt9YC4T+iUFBA6GAgCi5/Y0+6GsGHOTgQ4TplV9kwtjDtnnE03nJ1InP5ap4IdN1M5/NZwY3Pf1amX2hj/zT7f79HSLej6Tn/pI8VAoNwQ0PMTO9v196VfK9ZTFW1GH7nXqxqDJoJ75XqyN4O/SBF0cuSAjocRIhoEOiYMfnQ4Yc4+BNhexweEWHOwePFiXdTL3F22Ne/sQ+P01biv3xRrDVz4m5Av+N0V+x16+LR0xcKlz8MdCJyNCHTrB5r4imNlZbXqELQf03/2E2P8y5WKuZxcLDWcBo2+eCdiSpYcMIxU2ErFditIAqZYB1RqoEV5XhwCvGO/SAk373/Dhg1y8OBBufTSS217HW0m1Sy9uFzP3tj+2yuGQH/P+gpPnPQqFi78AoGzHYFOPT3x2PGjUl/XqCShSkkCgk8HwikxUJ/8bd5ROsgNGkEoVmVGMEwxsP6AaQYMHU8qPIrFC7/yRsCFC78M3jX3HP3LoT0TJ060LwW6mjs7iay86xulDwQCgbMPAY5Xbtc1VTXVtbpIkTUIUIQeFtDjKl1szghBcJAQDBAEDMe8Mop04YEdZugiAAGgHfgZGByKxBQDaw+YVuhrq93QRSRqFggEAkMJga6udjmuB5RlGoTsQECrH9MLxUxf/sXCDpLfGSEI1M21BBzKwsU0Q5izDwHePdqjVatWybhx4+zYXvwwkESOKA0TCAQCgUC5IdDV1aGfSD+qa6qabB2CKkvV6B8+7ZxzZo7S/XvGCIJrWhAGnIWABsFHjSzmCDN0EYAc+gI53OvXr7e1B5x74Mf2omHgiimGodsOomaBwFBGoKOj3QjC8GHDrb+ryH24qZzE26ASBEaErjlAvcw95IBV66iXfd65nAAcyg18oOrm7QCbTwc/9vhjpj3gSGV/BoHAHSYQCAQCgXJEoL2r1fq3xvphugZBv8Fg/RmDX73yY2AcpaslHVSCwEsGpLTjd4Jw5MgRIwgQiDBDHwF/zxs3bpQ9u/fYoUh+pLJrkrytpO1l6CMTNQwEAoFSQ6CXVOIm54HVrvIdEY/mm8ORulXzyfN9XUekQ52ja0ZLjVVIz/rhQ02oz5G8OtWgQ2Z16HZj/dtZguOhQScIikMvw4I0BENLS0v+NEUEgguQXoHjZsggwDtmWokjldnq2tzcnJ9iGjKVjIoEAoHAkEcAxQACnss149wcajtoJKChpiG3xREoNDARzBAjMz0u9ykNuyQIAvPOEAQWKgYxKI2GMZCl8He8fft22bNnj31auKGhfiCzjLQDgUAgEBgQBKpU3meCNKMIlon67T+4Q2rrdAq9foR6oUOAHKRF6LnB1XOXhjmz7jNOECBTvjCNvfCmpolphjPbKgY6d33nkMHnnntOamprZN68eTq9VKoceqDBiPQDgUCgrBBIpHkq1PnmAmK+W3dedetHmnbv3aLa8XppqB+u/rozq6uHRmS9XRq7NBE44wQBQCEIHLm8a9cuvcvWKMS8c2k2mNNRKo5Q5sRE3vec2XPsLIyYVjodyEYagUAgMLgIIOqzNQeIe9OOGoHokj37t8mIpiaVbXyu3smBkgebjPBSWiy/KTm7BAiCSENjg61DQOUcxKDk2siAFGjHjh3S2tpqaw/s0CRVJcW7HxCoI9FAIBB4kQj40QW9k2FpIge+5aYHTC2gd/r/SMtBOXpkv4xsGi3VVRwGSCgMgTL9Qf42d+8hzL9E/pQEQairrTMtwv79+2MnQ4k0jIEsBsRg8+bNdijSiBEj7OTEgcwv0g4EAoFA4PQjoLoAO8gNopCJfVz6iSbZfXCnfWxuREOTTi7UJGcj2SS6hU95QimSAwpZEgSBrY4ICtTOrGzH+EI2u4k/ZYuAn23B+3T3oUOHZO/evTJ5ymSpr6/X30nCqMu2plHwQCAQGPoIpL1VTuuZdF+2zVEpwoatujurbpSMHTWeSfO8/gAiwB1EortUWUHyEkuCILDvfdSoUaZi3rlzpxUv1M3JWypTJ4TAT0ykCn6+wab/n733AK4ry+q9l66yZEuyZcuSo+TQzu1uu9vd7jQ93T0zDEPPMI8ZCuYRqngUBRQUUKRHqhqgCigeVVBFpuABHx/fR/rmkWaY1D09Pe0ODu3czpZzkm3ZVpbuvfr+v7Xvlq5lyTlcSWdL555zdjr7rLNX2GuvvfaxY+5eu2FmQ9AeCMESgXCcfuSk2QkEJg0EkASCNBB+A7uP6gFPVZS2HrSjpyUglNZb3ZR6jcJzkkBQNIwyIArpuVwFBc2CEBCAyPTp092rYhQQEoZRUP3kthsz8vtFI0SEhoMHD/r0Qm1trdcbhMGAcrf9oKRAAoEEAgkEHggEhoWDYQFBD5bRtd+7cJC1qwOXra3ztE2bMteqS2qDeEAGpSMEDOsTaHSI4aoQQ8EICEwxVFZWWltbWzKaLMSecpttgulHjUEUDqji9OnT7la7oaEhTC9o6oEdHYOf8tt8SJI9gUACgQQCDxgCQTiIugQ9XLSOlflhfULWzlw8Yb121eY1LJP2IGegiHfFopwKYWR7fa4h1joy8eHeF4yAUF5RbvX19YahIk6Twqjy4QInefrdQwBNQr42Yf/+/S4YzJkzxyvPFyTy8939k5MaEggkEEggcK8g4FYDqmwURi4lgGbJPQUh4dS54/Ko3G9zG5dIP1AqIUFlcsIBzpUxPhid8Y4hQNyrV7iDekZv5x1UdLdFULvMnz/fjRQvXbp0t9Ul5QsAAjD8fO1BZ1ensbwRQXDatGkuOOQLBYlQWAAfLWlCAoEEAqNA4AYCgnJHsaEv3WMXLp+3qimVNn1qgwQB7b1AIjMJunDRAO+A1wUyJQLCdWDJj2hqahIIB93CPZ9x5Oe5letYlnP+NWWjJX1u1siry89zTRn/svqsefVQIOb3wsnPLUJg0M6fO294y1ywYIELDnEK4hYrmGDZIAihF0bSoK1cZP+MkZNWfLjCkitiOQKBov+qO3rgjGCdguCE6obPykE6pagzkrf8fDw9PCmjdMY+obhOSUggkEAgDwKD0gDg8UBm15YC74RcrhQYTMkEoVgY2q/cPdbZed6uXumweU0rrVL7DAUDReEnWz37ds/gbAh+5scFBsbqBTNez7WwQFoUGe5UeZ2aOmWqoUEYGBgYauTtXsSRqI9enezxDfRx863qoYa5EJ/v5eLXU1o0Jon1xXzxHMsn59Eh4PAXIiEI4Er57LmznnHevHnX2ScA00kHVwhNHuhil+QcmHe48lxSSzKNCTEpShVZWtvEAVfypWXDwZnKYgmEg3jkPyPvccrOiIZi4S+mUUcSEggkEBiGADgRBQTHmRySgEFZZ/BgYL9dvnrOert7bNnCx53dO+5F4cDzBa5yPU4SU3gCghxEF0aAObCzI3PTrJHHDgH3y3cSEC5KSkqc4TgxzaTlzSrcUx+CAs8i8FwIbTCUC5/NCa/iY5ozLiWFT8t8U+F9SH+ZAvyJsO7t7fVtnZlayJ9eAJYIElEIK8BXuD9NiougRWjw0gbt8F7lXZCfYmf2PNxpEVE66IsXLl20bDotPLlgvQO91t3bZefaWB5cJNeuNW7jkcn1a+pOuWBBsi582BMr0xN5tpK8bl2gS+BGu9cTm4QEAgkEBAHpDXICAuCICBVAE8T0YokH/Xb2yilhTrEtqGkOieP8tyAEhDjSBJYICHjZu9px1WrrWCJy+4QKx0sw/CgEIBwQIuMnHkIbmVK8jvfkjdcwOK75c0EhL418SRgbAlE4AG4dHR1uX7Jo0aJrYE/pCP+xa5qAKXRr5/w65197JIw89DnenFGKZ5XXNikP7PSJ4/bWWxsFN6YezHZs3247duy0WVoZ8vLLr7iAUJLTLoSS8UGceZgOqUZHCyhRA84FAXq0PElcAoHJB4GAFSPfexi/UtajQdC5y6dsduMcKy9ig6bxH0anEg/4vWAQkfnOmDHDn365/bK7qrzdpsR6YOqx3qy7wxxmRDAuQszLddQKxDLxHOOpwwUFhnoK+WU9Ivm5DgJRyAJWeMlEixBXL5A5fqN4nkwwpQdm4dOhOwW+7WIATB9GzjlYD0CEyAayMve5bMkSmyVDz6KM8uko1l9JUbEtbF5k02qnKZ+ImfL5QV0+aarCCAXx0G2UE1xW0AMQDhALCoIo0L4kJBAoFAjkkMTRNf74Gd4V7Heudl+Vi+Xzsj9YYGVFbNA0/kNB0IJ8xltVVeVeFfGHcKd2CIxWjxw54lMJfKKU5oBgPjB7mNShQ4eG6mbmCIGBZ+UzKO537Nhhff19QxoE6iIv+SLzIy4Jo0MgwghtzqX2Sz5lhHOkGO/whjExWs4do9c08WIRAVxI4Ayh8YMfsWgXQrkmeA+ll8LqFbSyurzKHl29Ro7FKpS1xDKqaOrUWlu8eGnQknkpRjyoRTmYrqBeFzF0Vp06oukj7fC6XXhQPieGPCsJCQQSCAQIBA0CwrqL6845hTVCU4yE09Lmnb18VriYsZnTG620qGJCAK4gphiAJAwC5ovtwKxZs+zo0aPW39/vWwHfDqQp86UvfcnrSWuedunSpT7dQN3sAUD9+/bts+bmZhcKdu7c6cIEz2hpabFHHnnE0xEQ9u7da5cvX3aVLY6cSEeAgbElQsLNvopYGkKZmBKwvHrlqqEdyrcriYKCC12wsBTj18kRGK2HMOSINXefExKcEA2xbt05LRLzRpNlNnvuXKufOdNOyfFUkeC2fOUqq51WE/IpnVqAKw6oqIV7r0MXnCFz4UonpUL0yOMqDb/gJgkJBBIIRAiE0XTAXBe1MfDJIVV/tstOt53U7o31Nr1K2j2E7AmAR+GdIwQK4Ix9AOvk2fEP5hyZsY82c+3jGuIXj3hPmS1btxhW8i+++KJbzWPPACM6f/68bdmyRdbfaS9HVWgUlkhd+8QTT3jN7AdBXVOmTHGvjqRXV1d7/uPHj3tZ0jkic8s1KTldBwExHDiZAhtwIZzxXeOUTX524iaTcMC7h3G97GTEvqEzTmhyJ24zPveArQzGtSyXguAoRRaHjP4rqsps8SOLrLSyzKbKVmfpimUqo74pkPtZdbjCQNMUxfINb4Np1RMmLvREpYblWsUa+RQrrUh5qDerx0TRRZmSkEAggQAQAGVAv3ASjoClUfQ268pcshNnjtrsafOturJmCJ+VaVwH3rdgQmQojNbZ5Q+nOjEunmks1zCVeEatA+NHM9DX22fr1q0zVNlLFi9xTUR0vBTriGeEEQQABBG0FjhqYi8ItBCoxaPgwXVnZ6edOnXK42gDaUm4MQQGtbSRwLQOq1L4JqMJCDeuZSKn5qhO/isSpZASsy6StiClVQcIE0UYJGJzoJGJa2aKy2zOvPnSIjTao2vWWqnwRZl92mBQ+AHpoqRTKgQAr9eVo8EkQRl8lEMeJfLHpENGz0FQSEICgQQC+RDI4QQoqOhwB5Yx+Ze1U5ePW/9AnzVJQChLTYzpBd6+YKYYaAyMG8aLPwSYCbv+rV271lLF18oxqEdhPuRHi8Dos/VIq+eHyZ85c8ZXMKDaRtCAsUfjR+rnLwYEArQLa9ascebFyony8nJnanEbahgcI2A0CwTqSBhdhODoZ2AUvyewQxjjuyYhQEA9KNcPcXQUoRIYuDqYInRIQAhjFmXQbUb9PA2nl0HigISFkpo6m790rVXWzbTjF2TQqHLFxUVWWVZiFVohzOKdUpUpZZpBgkVK6gUle11UE4Jwi0dRrSJcGHHxYvJM90RIJOcEAmNBAIx0lNHFMO4EoTot7dsHB3fa1Oqp1jR9nvIJdzAMDiXGqnJcxBeEgAAzIcBQOJinnqn5VQQErN/Z6TE/DwSNfAQYNWnkR1OA7QKqbIQDNAMLFy6U8dZi3+MBYcKDylOGKQk2D0JTgYaAOpYtW+a2BwgFHOwdQN5oPBmfR1xsQ6g0+R0JAeCD9oX9NdDUIKwlIUAg4wLCMDRgzEPKfXXtQXHsLAaIIjJ0ddYzXJQS4Uib2ZlzaWu7dMXaO7qtpz8rR0nncn0xCBhoH0pFo2qmVNmsmmprbqiyOY1FVifDar5AicvbiCh6hp6DgILSAIxiMkMPDze6T0ICgQQCQGBYWAdPYsgWpa0j027HTh625QtWawfHGcIgeVaU1q64qDRmG7fnghAQRkIPxoLKnxE8DB8BYWSIzId4rqPWgamG9eufVFzKPvjgAx+5lpaWuNCBgSIMPk4foCnAiLGlpcWnFlpbW/1ZGzZs8GkGjB2xT6BuyiIkEBAOEg2Cg2LMH74JgTOCGzt18j1j/JgFJ1kCvJpxyJBwANMWiRnQGeetvdIUnL48aPsOt9vukz126qrgmiqxAWnQMmL35B2URqEI3x5azkBdJYxeNO2WvZK18tOdVrm33cqLe21hU4U9tnSGNc8qt5oyCeJ6eJxNcEJAM1SDPhIXSUggkEAgHwI5tCgGTxxHsCDqs/1HP7ABTUvPa2zW8kZEcKa/c4PR/PLj8LogBASYBkw3Bu4RCvC4d/DgQVu9erUz6HzmEpn0yDjq8K2D9THJg9agpKTUGT7CA3EwKhg8aTAvRrbYHTANwZQDggIaCOLQICBIICCsXLnSsI+I7c1/dmx7ch6GQJzKAcZocYA7ccx3T/YQFfiRQbuO35lzyqQUsEt9GTt0tte2t/bakXOa4urX9IKMFYs13cb0wqCmDgalYTAdQFTygob/Pv73JVcIHAgNXcKlq6lSKx+ssMtn+u2Apt+a68ttdXO1LZ5Tbo01FdpvjoBGzE/6Sb4PEElCAoEIgWswAlzTwUKF7myvfXBkt9VpmXHz7GZhjnLCy64pEGsZf+eCEBBGgg3GC9NGi/D++++7irpBXuJGhihUREbNmYPpgqPHjvrmQHO1HIzAHHicHohTDeRlGgGfCzAxvPwhCODMB8t7Vi7QBjQH5I3lqY/78RKAU2xvvB55zn8X4HOrGpJYTyzPvQeBB2Tp7QtTNdhv8A1ArImCPPGd4zuFN4dd6yr3nsHWIOSU7iq8/DVLoJRRAgFj/37p+ruV44Mzg7b9ULcEhE673KO9FlKVsj0o01SAjAizWm2gfEwNAEgcePmjpDHDLsfhr6QUBghMqTGFIEcLCBesiEhLUNhzfsCOXLhi845X2vL5ZkukWZgh85pabV2PsODTHRTlCRKkaV14q3zRjhjeB5EPwY9ySUggcOcQGI2WRLp1o1pDOXIEmjyyHlJiXDwTdzsB/ExB2/SfydE28OK8PCe2XT5tq5o1vVA20w1/g5FwMBG+nWcUYt6CERBGdgTum5ubXUA4efKkj+5HMq1Yho9O4ByZG+6VEQ7YIRJtAHnzhQTyE4cAgK0D+z88//zzPi2BoyXqQoOAfUJUjZOfuXTCnXY0L/yAfphKiQaewGUkvCKsaA7XBGAc83lE3g954nuTD42MM/1cnvxnRFYCLMmLwEe9Y9Wd95jxeUkXdPoU+iLEA+YMH48x11ypfwEL9lQokoaLKQUpCuyN3Rds2/GMnesQwy+eIjuEYCswKNg7YYrzmv6sPKbsBo2xDXqSf07NhurhxeHTqi36ZpqO6E+VWZdVa2+MtLV2dFnDEQnH9UX2oTWzrHFKykqUv5QKlJ/AsxEH1Jl4Kw88PgoI2ZwOIpeUnBII3BUEoDExRHoT70eeh/Oygdm19Ii8iK/RoJ37O6c/4ILaJXwEJ1lJpIk+O3H2iDR6ffb4svWyPND0goR/Wp8Vnk2EUDACwmjAhHkz1cBIfvny5T6PHZlaZFYwqBjHx4chwoyYDqDzYMOwZ88e27DhafvQhz7kewLkCxpoByJTpJ64mgHNAqsfHnvsMV9RwXNiZ6Ujomko1EA7OWhzbGs+YkR40X7ycR8ZvQsVYujExTLkAUYRbqSRDxhwDRIiEJAey1GGcOHCBbf/qKqeGK5H/aVG/CAEBIZJgggJr06EQo6s+DUkxaNZuuhURLDTtAtag5NXzL703lnbd6pX0wLlVirYpjO92ltJTL64VIxdmdS/Q+Ve3S390DYECxdY8sb4jIgwSWzvyggnBuxie58dPXXZPvnKcmuerk2flOZzrfQDXdMXEA7iqzkZHNRSCW/T0OvyoCQkELhDCECLhu27oCGRBo1WYaQxpHEdaTR0iPtYnjq8/+Zo2o3qHO05xIWpQPV+oQ1YPCCz4fbudjt15oTNqptlM6Y2uVav2G0PRAsdv8aqbfzEFy6XEwz50KwqwOUxlvBxFAp4I7OKoKYzwLCuXL7iyxadcSkO7QCjfl36ighWRcA0YXB0FIQH8jJH/tprr7mbZ2wRikuK3YkSKyFYpkceNAkLFiwoaOEAePBeEUHyBRniCCNhFxGL9HhNHQGRQNJhxk954iMSxjNlYzywis9AM0MbKisqKTqEtH4zQX5E1vQmIgkBvE5EuA8hsGIiEaO8I2qqgHSMCzWDYPsvDNhXtlywfWcHLFMsZ13KNqAdSNXptAupBNOhcXusM1f1LZxoEq6cXYDLaRkC+ZI2Qc0ur5Bn0HSJdQz22YB8iPzdV4/Zx56eZ0/MK7Ip+s4VrkWA2AZfCkP7PNJIf6fhN72F5iRZEgiMCQHojLrckCaAPQ4cr4gcJQT6dD1NibQoP5046FI+PRylyjGjaIGjN3QO4VnIfvbKSQnWF2zD2meUigE2WgPWJxU0Wx3zHUdLKOg34aM2Nzfbdu1Wh6q/sbFxiDHFl6ETsKUzX49liggA7LUQOwdMnaWOXV1dtnv3btMGpvUAAEAASURBVGdQ+EpgKSVCAisUmIpAKMDNMoIIdZAfJgeDiwFLfOqlo/lzdV2oIb5/ZNbAMgZvPzBTID6mRW0D8ZHxcx1fkzqZdiHEaZdYNj6P+3hNPmAJUmLomR9P2kQJQYMC0w9qRWfKuoOd4+zIJQfZAMCk4auMxREbNKNg+8/12Zc2tdmhy7ovrlF8SRi5qxJ2ZEQ/k8mKOWvKLMJaxW45+HyovltK7cABkjtfUp18fchvJk3rS10l2puVNkOf96vbLmtaosLWLajSVIOERr0IbSfwmy+m8K7EhVRdJCGBwB1CINIOBinQGXfLfpOOxfQxITL+WAfloWHER7pDvXcc6OjY/ghbiqXl6M9227GLB31A1TJrqTC/XCnQU/AjhxU3afsdt+UBFixoAYEPCwPHQBHnRzDw6KzoGhjxPRRYYfD4449fR0gjs3vqqac8Hx0ljpTRHMTAszhgiHzo2Nnyz1yPp8C7IxBgdMneEqwMQWCC4LuBm96HPBhpMpXDihEC/iEi0lGGqRsECFZ5RP8SaFlwUpWPhFEgoQ5ghcEowkH+HgykTaQQ6MBY/YLOBCsOoyFYKUJApzpZa1vW/vPts3b8qjQJ2v1tQFWUlYhhDwS1PmORLNMReDcSc89iUyJ4305AFHAdhqpgWiMKLYgFlSVl1p+BwCIB0E80Xae+cPZKl722/YqWRs62JxeUWzlqX5BCdbmhll+iESEmHDolIYHAXUMAmnFc25kfPnTYjcYxGI90aLTKsU/Dnw0G5nHQgnCwadMma1nYYk2NTU7ffFDkfXi0Wm4xzqX7gEgdXaKXZ/fbgjmLrap0muMYGMHeMyKsoUKQY5yHghYQgC3MC7X+tm3bfDSKgBAlQtLpUBxRCCAtMsUYF+thiiKW4Rwlylhf/giavuTlIYMMAnP1egX6iWXifSGegQuBM7tboh1B0AIOIB7xuKeePXu2dXV3ub0AcQgTwBukQsvyzDPPuMDAvhYgH/YZLAUlnX0v8HaZ1bp7mFeEC/UAT/LyzUBemFIciRYivO68TTk2yRyDq97za4IlIxwoTdnQM7ADw8lOs39775gdk1+DXraG1VLEUsEzJZgBQzZgQmDISEBIS4OA4yP6420HuoATKpXVN8k1w0c5mXS/e1mkyYyMKkpk6CWBoVSCw9mOPntt22mbVq0NzGTAWKpMvB7iBiFDG1Um2CLk2uXP8eTkJ4HAHUEAGrN502af3j1w4IDTDQzNI10ZWSla3V27drmxedwpFhrHwfQ05aBFEXe4HquukXWPvKd70/9FFbVz42m7cvWSPbW02SpKZUwsTAgiM5mEKMJj/JWM93AHFOfBvjIflKkDPioukWFK+YH4+PG5jh9/tLhYLubJz09alEDz4yGD1BXLkC//mvtCDREGjPpBPBg5jp/ee+8938gK2KIpYJ8E3jPCFob+6quvuqFn3bQ6t+HAodTLL7/scUzJIDQwVcMUQrDnCIZB8ZnAKK15dASK6GAK5jQRg3oIvUSvhiQZXnIIsQQHph4GJWiRzq/sAe0b2zvt2OVK69aqBC1cVJIMRcWES7NMMTBfSiy59WUkLPCtnLvr93YCDJxVDL6SwYUXYpi6oE9Tk/QLsi/ANZPJDqEU+wiNgNKDU+ykpj3+beNhu9iv+/jQ3PuF1vDLO1+LkzFrck4gMBICkcbQnznQYhKgEwxi3nvvXadRjz76qDN4NtiDRkFjYhnO2IUhBBAPfUGTAJ3DsJxBD9pk8jE1zXRxfO7I9tzyfQ6hWRExYD2288B2m1HTaHOmz5U9AtOHjqlglV8p8parLuSMBS3i+IhTVAy1P0ICnWDFihWusi5koBZK20AKEGTr1q2+CoSpAgKCws4dO/3MfUSeKBhxZnkiBpxM2XR2ddr+ffsdGYlHpYddCBoJtAR8F7Q8MYCYLiAMBMdUTC9wT/xEDJEU0F+d4YpMoCshoG1E+CrSSoQBfY9epe05cdUOn+mzngyrE0R5MG4S84ZWUi6UhfH6v9dzpz9FgrnWmuSKIxiE9oSIGM9d7lrMniVcWWwmZBPReqHdvrXjsn107TSrVTMRhJAzeDvey69ouAsJBU1OeMkkPGQIxAFEbAZ9iEHG4cOHneFv2PCM25pBK7A5Y8oTIQFNJdPBGJxTB4NFyiBgXGi74FOZ0DpoGVOg2CYwzUB+ph/i8nTo0J0ENGxFuY5/oee0HT9z2J5YucFqqmcoRcqCO6l0HJQpaIx2wirDEOawUTPhNIm5cq6TcGMIgAio93E3zRweSMNqEJALBg/yIVmDiKSDUJGx9/X32TvvvDOkmamuqna7BcohpYPQUe0HQnJNWQ5sFSISMioAgfl+hCgkxPQbv8E4SoVCON0J7J0b/jyaeF1oHO9bKbd1ZGzz/k4tL4Qls4kzronwLyANjkbnaR+hByKGJkGsOlSg39xD/OpWf4K+QKMvPYnn+RlhzduHPYOu9MygAaHFaonSU1pe2Z8ReSiut/dbO+V1sdpWzS6zEqXROkqG9iDgoF+gbBISCNwYAtCLfCGBqUq81dLnmC5AAwCjh5YQOMPcoTmbN2921/hMiTIgaW5u9kHL17/+dddsMm1KPUxNoHVgWTv3HNTD+U4DeIjBb0YO0N/e9U21tcoWNa0S9lZ4z6fma2q/i2fdaRvvR7mCFnxiJ6FDwYRKy0rd9fL9AMREqhO4gYhMmeDHAQEAlRyqOK5ZzYGAwAHSoKYDxhyUo8cjDGCrwPweyNnT2+N1dHR2uI0C9VE/SBkMEMV6VD6fTyB0ZLU/gNsf5BD+bpC0YL9RjjIE1hluIG9O4nIXsPke/ew51iMvhgM2IK0BWzkXM1KXcSCZs3I8kNZcQFpCMYycEQveF2Ht+XXfHhxiS3SWIMAgKAgjemTu3jeGUgICBAaUg3L2QgvIN1hSYed7S2ybhASmRoamGth+WnkQLcL4qaBJye2BLMl93yAA/kNjIt3hmhH++vXrraWlxX3OIChAq5jqRHvMlCYG5kxpRvoRDc2hOdA7aBV0JiXcIY50aF3MF58becrtviD4NyhBuK3zjLUeP2AN05usqX6BMAavCGBrwIRQb8SJ231K4eUvbA1CnhRWV1dnM2fMdAGBzhJHpYUH0offIpAhIhI7WxIQBlgFAuNHEwMSgUBuPyCkyqTlxleCAuVg+C+99JIjXvQTUT+93qokNRMupi66YSPlQUyQnPoiEsZnUx8ISb6JHGD+kIQid6HMXVjGSCxCAGfYdLcu39t9TjOYUzWPyVpqCWXOv8MInFL4LMAbG6N6NAjcwtWzjgueSMwtBwQCHkEr/FFeRWTrxCjEal1ICFHkZvVEt4S8MhlQ7jnVYasXV9jUxiorCzUpi8qrXWhHqCkRESLskvNYEIi0AZoB80Y4IHAPjSc9DliIz88fV5wx8GB1FLQFLSX3TH0iILDknWsMrdE2Uy/xCBo8704DwvpAUZ/tObrDemSz9fjK9VYuF+jDOI/ADAboiPh0pw8roHLjgnLTSWAyzc3NPu+EMQueFZMwNgRAjIhcUcrGXgBkIh7kIg9wxfDGpW4tWyQwNfG1r33Nnn32Wc8PYmH4Q3k0ByBnFDBAPLQUBOqMz4z1E0/5/Ph4TdpECDBHaILv3iJWycg8iAVESjUp4pKRMPDBobSd1w6LA1XywTEovxCafkkV9Yq9ykhQ6dnBUuuTar9IUkMQMZSusj4+kaYBDUAQNaj31gJtwwsjZ9pCO/3Qs4POgGpzz1AMzmoCo1cqzpH02Kzac0lOG/acGLAlM82qPQMEkTpKpePwt+cBSUggcFMIgP8c0AgCTJ5VUxgdEg+9iGkxHT810COYPXTojTfecBoErUIgYPqUgQ1pxDEQIg/0jWXy0Cg0E9A8aNftBjw8XklrW+fzB2xa7QxbOGMR2OLVoOeTazMdvE+u7gmCEgUvIESmQ8dB1YTaCUdIrOVHixDTg7JzgnwV73Z39wO8CJxBCg5WMmBDAKJUVlY4osR8wJHpAO6BK4wf7QH3IFS0M6A8SBfXJ3PNKgjy50v+sfXx+8T78XcG6W/Ur0I6tM4dEYlIkNs1AzoTz+i/Q1z63V0nbLBczpAUWaRloQKuyIqEX52DvYFYLcKERAb8DuBzgHlPnwIQ3cFBSyllYOi5dK0V0VPQPGDHwNQAdcG8WU6psb5rMEIe4sAT1KG4UcZ8kXtsHzxe9fJ0FfK6slrRUJRSrXKmlNVoaf9J7Sq5fKrVVkMSw7P8BVU+wGhsOI3WD4jTA2mI97PYvkh4uY9htPKR2Me0sc6xDs4xT35cvB5Oi+8TUmJ8PMf88TxWfExPzsMQyP9mMRYag5DQ0tLidIV48iEocMYYGloEnAlMP3zHd3yHXx+VK32O5557zoUH+vGB/QeczhFHHQRoGOWDcBC1evS0nCivPu9BJ4RznuR93J8pywPh0YmzrWpLm720/tuFodKmOr7QefP7C/XdvgASHl54vwUvIACy/I6BmpzOghUrAkMSRoeAcE5wU2dnlJpDDtYJc42qrqurW1J2v68OwQgIrQCICqxBKlYv/Nd//ZdPSyAEoLLD1wGSOVoIpHTqQqIHiWO5+K1iq7in3vESIqqHM786IvHIfwleCQAzqs+lMz3gc5GK9n0MxGuzxSXWp/gjF3vtWLd8TGi/+FLBMaN9FlKCXb/vZ4ChIh4qJRoIVvJ64I/FIsAvnMkHxl4iTUKPnhfmPqUBGuwXE9eoCQ2EyB0aB+wWWL2Qln8Fb6LaiCdF6kIYCAHVQLllJMmkUyyppC7aHQicFBnaLIp3y1qZXmxQwkZbZ6+duJi2WVPKdFca3lFCBO8ciOKNv3PsG5FJ0I4Y16++6Cpi+qD+Yl/kTP54RgilP8ZAeQ76JeUjQ4hlYj7OMS/XpMe88T72U2CW0RLd/OfEPOAB02qUjW0kjUD9sY4Qk/xeB4G8LgJZYGROANa1dbXu0TbCNZ5Jj9fxGwJ/hAq0Dqxw45uQh4N+AG1Co0D+SP9I01fSgQAQpsW4doEUDV0uNeOu0CWkk1X9YFD3l9OXrfXkfptRPd0eaVqtPq9N+0iXAA3eDgsFQcBWi/1fCeM6FLSoExEunoH0qlWrvGMwGoZYxMBHjp0nxk3mM0SO4J69dAY5WOaI9S92CcCPba7xb4DgQAB+8YyLaYSAuI64ublZS0xXen60N0uWLNG3WOkCBNoD6s//TvHeKxxHP5AQEN/Psd0waCLyDoeUM1sRIKZoPELMVoWH7AVgsoqHhBw72269WZZ7los0icGWVIr2iLX6RglaMQBb1xRDSVGZValfV2bF8AYHFIuOQfOoyoeWoEPPHGBkry0Xi9QuivdLKGC5JBoM+btUXEaCCXqIHuXRShJ/D83PartnBADqw0NjFuIme4cSrVYohshpjlW7RymfCKxyFStNZFJ5VUIvIp4qA61LrrPgdREq+OUdEUvGCrFf0Sc4INicCeBtt4TV3/7t3/blsjEPaY7PfIxc+NKXvmT/8i//MtTPIuFnQ7A//4s/91EjKub8Oiga6QRn8jJFyR4tWM8fPHjQD+6ZPuOZqKxpD3GE2FaEil/5lV9xj6TEU1+sezSBhDxJuBYC+fTIe436AjBn0NF+qd1XHwB3lk5Do1iNgNaSPFGg43twzzJHVmJB02Kf4nvwLQjeD2STEK8pEwSS2PdIQTDQQZSOQWnfZB2kPzCAOPXrohJr7zhmp8+ctMXNq6y8BFus2C/p9/l9n/wUnBhhWBQv4Pfh48fAaBcGRcdh1Atzip0j5knO6qM5AgwskKhZ+sNSR2DFaAsBAGNPJHDiMehBigeJ2i602Te+8Q37yEc+4qBEYwMiIqUjlVMH5ThDkFtaWlxg4J7RHwjq16orvx3j4rtEvOd8DaIz6iAiRgY1JO8UYwLDhOUpxoUHXemyWxr+M5e6LaXphV65US7RLkmlJbKyxgESzFpOkSpTYtASNNA8ZLwNPC080Wmc4mDqaUkiKeqWEJBh9OVTC2gOaAeTDIx4VAeEjTpVh1sV+AhJVxIQgo0EBWT7wInvpPgw1cAkg8qy/wOvoWvqQ6zI6KL11CXryzRaJXRV8fxIlAj00u+JuzbEPuAEWs+BSdBvIPj0FZjDt771Lfuu7/ou73+UduKuBmA8Sz7K0g/B++/93u913Gc1zrp167w/79q5yz7x7Z8Y6sPU+9WvftW+8IUvuPaLvs2aetyJY19D/eSJGgFw5M/+7M98nps42vOd3/mdLjT83d/9nX3zm9/0drCqhwMhG1pEnk996lPiI9cKyNdCILmLEOA7AnvOhHhNf0BgY/qYKQS0AwS+EQd0hzN9ASFg0+ZNduzoMe3Su8EHOKRBc6IQ4X1Ncf6d1ef4PlxfHxQXmqLGoHlTv5d2TEWDSZGelxZ+Hj692crkzrS5SbZvEuLp9aBYCCAD03gEnjHaczxx3P0UtIAQO0/+h6Uj4ELzDRmgIFniMSuG/HwxbjKfQSSQBiI6UuOCBoCVDRBM8mFBjDMSCClC1yc/+UknghBOJHQEBAQyEJlvEA8QMk5dROSPSMqZb0KZcROGiMVwiwPjR4VPYkR+SARBv2LYzpx9FQMiEgw3aLewH+juTVlHr87pHsvIjTFTEsXSDgwKjiVVFVYh98YrG8sE7yrbdbjDTnWBlrJNEBEtlq4fzUG/CFxKDF16B8kRIrDyw1wsQoZGQm4aXTOQ8mdibY0+APsCRAMRVSdeCG/SUmg05B4a0TYofwqiiEgggiixRc/hdWSdIOGjSIce5doJ2jMoIeNKj9lV+XAA7RBv/F0BQz5ouB8RYt/o6epxJoDdShQi6Vcspd21e5cz5BjPGduXuLyNvkSfoi768x//8R/bH/7hHw7Vg6CB4Etd9FkOhOD/9b/+l33uc59z7eP3fd/32ec//3nv81/84hddG/ATP/ETzpTox/RrAnXxPBgT6+nRNCCc/Omf/qkLKgjQn/rUJ13oIB/lOCfhxhBwWOWERL4jf3xTBn0IcAhewB64E4Ar/QM7g3y60jhLq7KWPOL5I/ypj/wYNMYph6HWqH96X/VvBO7mED13AoclVisTHkXRoAVBHb8kF3su2uHW923pvA9b3RTt7YBATG3giGsY4lP4/jmpYYJ0hYIWEAA7H58PHwNEY/r06S4YwNwgAnSGJFwPARAKhGGkw1RCJGAIBBHZQEwCMI7pbM3MkkbKRthjHMrBPd8ghpieXz6m8Qzy5gsI8Rkxz/g4R2yPQgGtZmydCySrizKyxyURIaP3zmh6oLO/ww6d6rar3bI5KJIhp4jjoHy0M+svPs6SEVs8t9yeWT3VznciQEigwjBQzBiG3K+lhux7wMGui4y+MUJEBJAux/qkjSgugaAxxsdQUYybqQmNhAZMwoPyI9jQNrQEomq+KoGpCcXQUpXSaJ7VE6oFgQCByKcclIpOIuy7oBsl9g3KL8JlsznDcjkFbinQR9BUvf7660POcBA8sWBnlcxv/9ZvuyYKGxn6KMIq7r1hGowuoxYMD3kwEDRh9FEEAlTS//AP/+DTAwgJf/EXf+EDCejDX/7lX9q3fdu3+Vp7Gkof5LnUg2U8jnfop7QP9Ta2Nwgg//RP/2RPP/20T8XRh4nbuXOnq7bRMhw/fkLPvmotLc2qc3jahGckYWwIRCziOwBzvjNCIN+AuEi34jWC25o1azyN/ISWlpahB9AHYl2URUCAR8S4+G0pS1wIuXPuFGpVurR6alQ4JJT3WbdtP7RJOKVdgecu1fSCbA9yeBPqERUgu+qN7xXiqTE+K8SMx9+CFhCu/aB8s/CBEQhAfFSMzBdidT/84cfjZ7j3bY6wAnki4hFHAIliOvcjYRfTImKRnp8npsf64j11ReGDOJ5DOeIILsEXOtJcg9PAKyI67DMk+mDD3yj+oD+AHPAr1b9++2RVwH7x7+142w6crrT23kVWUlwHJdEhtXqxahMTr0n12/z6GuvWxi9vbdFOmYO1EgM0/aDHMt3QK2EiI6LlNg4qiwhQXsSSKo36VU+1iFjjzCl25kKH2DzoXGJlEhDQYLA/PcJBEfllDEl9xUU9yoc/eRE2mJpKIHCUqC4EgzKpU1VAthC8eRAuECZ4PkQwLaHjgpZqqlYdQRxCzrlRiCM3+gQagR/6oR/yPkHfxCcH+Ms01/d///c7M/7pn/7poREkwi1W7G9IY8gUA6NJpghYtkb8b/3Wb7lGAgEBJt7S0mIbN250wYF76AN9EIEAps4KHgJCCloAGFMcaBBPnyfEvgutQbuGIx80cTAzmBUHeWFGoBUOevLxwCtJfq6DQIQRZwLfhusI9/z4/HSuY9pQvHog/5E2xbpIj7SLawJpMd3zh8crgd5JNbB3ejIdn0qZNOiXc7Aztm3/W7Zi9nJrrJcQoz9RNf0J1x1HQkk9MdRBZYr3hoULbsZtKGgBwT+kQDvyDJJCaNi+GFedIGkSroVAhBmwiiHGcR+vR57z00Zej7wfrSyENebj2eRhPjEid2QWnqkQfxy5aVggG5F05KhBaDFJMXAtngKDCMp6OW1JX7JNB961d3Zs1LzlVKuqe8lSbfWW7Zd5oj4HhlDZNIZQWa2nztiiRhkuyvBgRt00az/XaU3VxbZkXoMYXsb2npTfiX6RLmkVFs2qttnTquxiR1oeGa/6KoXH5tfZh9enbNMujez7SrXKoM+aps/w6bdM/4BNq8za/BllduCMtARq6KKZFZoiuGj1jbOsqydjR461iUaWW82UEmuZUyfhJGvHT7fbqU69FFqFUql6RURh5nzDjISOzh70H5oT1h8E86Z0MEc06QtMWTEi5JppBlyBs78KgsJLL71kzPdjRMhmYBB5njtr1ixjGoB+hJofW4Wf//mf9wHCxz72Mdcy/OM//qMLGAgEf/u3f+tlESp+53d+x9fI/9iP/Zh9z/d8j/3iL/6iCxmf//znfVoBLQLTB0xDYMTLyqjPfOYzro349Kc/7S58mYqgTtqM1iIyM97j7//+7/0+9u/YLZLz6BAAhoR4HnntiSN+8vPmJ8Gmb9r38gvo+vq6EOdpk9g+djocGPAi/Grzsh17N2rPlDZbtei/WwUCvqRllv76W4RXyT0h78bpwy3gRa5kIZ+GuUcht3KUtoHMEA5UkyzJA2kjcxolexL1ECBQVq75djHOaHAU8DkPkR5Cm272yBwvUzbHcp2F6By69YEFzefw5JAHnQEkpTPTbmfPH5Vg8E07eemUVJILbf3jL9qhc3PteLtG6VpWiBU1o49ybd6ENeI0Le2aUluicX+FzZyetj7ZFnz8+dnWJyac1fTCwpY6++o3D9vc+fX25OoaKxbTf2raLKveNsX2neqz5UumWF1VkS1ZVmnFFwata6DSnl9XYl97vciu9g1aQ22FbVhdbcfPt1mVRuovra+ztqvaMn2KdA2SVrLdfTarboo1L9SERalEnJ4iW7p4tn19S6cd19LMNIRSf1J4+GoNYJCWgAMAgv5BwBiCh6JHCRDlqFli2S2EHUb71ltvuUr/R37kR1ydz+gepvwf//Efbg+DTUwcCTKlABMGxxn1/9RP/ZT9yZ/8if3Q//ghebbrsX/+53924o+AgF0S+bE/+P3f/337gR/4AfvlX/5lN2hDk/Cbv/mbfo0Ay+6mGB0iIPzar/3a0Nw1z0GzwRntBgILdjmU4V3YM+AP/uAPfBlxfOXrmU9MSc4FBQHQ1tWAQThANxiCOjJpaJG0ouf85WN26Nhum63B6NyGlcJRDXikSqO7s6onrMjwynLldboJLgxnHB9XETLjo7V5rQR5m5ub3aAFTUKU6vOyJJcPGQJlGn0WSz0OMyC4xP+Q23Szx6Nm5w+mGEhBjmh4+0UYmEUgTaMMNm7JFvfLB4Hmo9uP2Fu7vmxffef/E7lJ27et/5R95oXvs5api61KI3RWHAyIqAxq9UJGjN80vcDoe9ehTtt7LGv7jly0A/uO2vpH51hff8beev+Svbm1w6ZPk1HuwjkSPNL2hdfa7f/9yim72GY2r6HMrnZ02YHDF61dPpz//qsn7aubWZraIy2A2RQNhDKMdmSUiFFkSSnP7LcKYXzr6S77my+32RdeZ2WK2StPVlu1DCy3v3/W3tp+xq70Zq15nsgh6le1mzOGkKpBb47AAHwIaIuIvXmA0cLgqQ/V/9tvv+12At/93d/tNgBoCghMHTCK/5u/+ZshO4VYO8yZOrByR3jgTP8iwJzRJjJ1EI0aERSwscHoFlqBDc1f//Vfu1bil37pl1ybQZ4f/dEfdTsIBBPaQV08h3Zyj0CAluHLX/6yffkrX/YpDlY5IPjSp2PbKZOE8QIB+hvfCxYY+jB3PgOo/t6f7bLDx3dZv/DpubUfloMy4ZHPKoR+GoQKptnCn4pOyDBuNQggI8ZFONdATYkDpcQWobD6KEwBop4/xTAeRlkQCgi/k408mg8pgEpkdODxIKNRRk9/t+04tsn2HNqp9fz9tuaRp23FgketoWaOGzZRvLJkQMsaRUz6KVuiEbhJXxDUlKxQkDWBxiY6iyHNbpQh34Viq58xXQ6WyuzwMS2T7O63vt5Oa2icZjPnzZZy36wMJsYKB92FWVCdtYQSb4v4ZfCRumwMUmJwTAZgnZ3VyIhllmcvpbVxVLW1XU7bKq2cqFGFF7WssaFmmvWUyl7iSsY6rubmhSnKhltqZxFMXPlKJWwE4Uk6BOjlTYYZ4Gr87ozgo8oe4YDAdr6M/BnJM+0ALuPz4Dd+4zfsZ3/2Z91ff9QkIGyyqx+2CEPMnO+igHEiDP/Hf/zHnannDxrwf4BPD/rkz/zMz7hzHcrTNoSH//k/f1HlLzmviPEYRca19uRjesTfQx2DurG2Jz62Lb6jNyb5GScQAMtDb9bHZQZB+JjRNJ62kz6xz1rmPmLzamTgLWVD0B6ICkAG6PR0O4oPX4y4Jm18h3ErIAD2CrkLXvrIUh81YGgEYUlC4UAAgomRGYSU0RgENp9ZFE5Lr21J4HdgvmP/EP67dkFLDfmT7z4733Ha3tn6lh0994E2EptlH37qu2Tdr73ni6XCF/Nm5QDeJ8ukMcAVUpkMDntlVzAooSk9kHYmj6pTYFI+jdQrxbSvSjBJy2Nh6yFNWVTakUzKplSVaLqiwubOrrR9u49aR1WDpI5qiRQaz2sFqbT2Vqn5UnQSxTIyZJReKTVCabZDxodTlE8uybWUsrSiSqseJNpkeKBKi/F398oUS4Quq1HyyWNHTRtNSpCosIFMuQ1kK2Uzoe+X0UhZQytG0qV6/5qp2qQG2DDcygU0KsOq2hgbzvQDvjuMF38CTAf86q/+qhsH/u7v/q7HM1X453/+524HgH0RyxEREljK+Ou//utuiLh161Y3QGQg8PIrL3udCG2lWsXBygemFBg0sPSRZ+KDn2kM7BYwZnzxxRfth3/4h23uvLn+LgivMTzzzLPejosXLtq///u/+9QH0w4/+IM/6LYRCBb4SfjJn/xJe+Obb9iihYv8HZgWSQSDCMXxc5ZYp8bmBgHebOkNpUVDP9Y/2GutZw9bh4TV555+VRq5Op9iA1eRDoJwEPq0rH5VGkkBSZnAddBq+e04/xnGkPH4IvoWbNq0adN7LumjdoxWyuPxdSZamxlZYciFtTleGePa5kJ+z1GZXI4PDmr+EeFgINttB87ttdff/or1Z7rtqeWv2FOrn9XqAlYKlMjiPxM8G8r+grWM5bIRqNCKwwr5XB7Ungxs51wiG4QBMXOYeq8YdZVoymUx7W9sbrPv+3C9vbhmnp1p77Daptl27kK/TS3R3HpJnzQNPVYmgSFTLs+YUzSKlQajWoaQz62YbWevpu1SZ9jdbs0jDYL3BVuxsNaqpkpaQABBo6Amles9yuXquVjtPX0xaxt3D1jznDLNxzfbmfMDyj/FLsmgctPeq1qe2S/NHBoOCR9ixFK0Wl3NdSKUPimEcfQQhUL6A8sKYeS4x2UJ4Wc/+1lfuYCdwO/93u/50kTywbzXrl3rfhFg8NgS4LcDT4qPPf6YHW096kweQQt7JFY+lJQGwYtVDtglscrpK1/5iv3CL/yCYczI1AWM3kf8gkcUXDhHbRcOwNBoYASJEyTsnNB6oLF44YUX3ICR5Y68w8c//nGfnvi5n/u5IUdho0MgiS0oCDg+8+MXOoe+i6DOdUdvu+1t/cCaGhdY49QWaeBqFIvkTJ+h74f+j6gQaqB8FBBindQ1/sP4FhAEf5D78cfXOjHAcRLLH0dK9JFAjf/PNf7eAJUvLp1RDT/o7wDaogwfDiORN6YxDsV0UOJBKOSDBS/n90qXjjGd7bFzHads8+53RUD22Lw5c23t6sdt0Yy1GmVojwU33lMpcWGehCqS4lVyO1hdMWgXtMJAOhUfjQ9o2M+qgiIxwwudGgVL49A3WGmnL/Xb6+9dstUttbagTvdXM3boRJtVlKWsvLbeFq9cZcfau6x2ZpFN1YqGkyfb7Fvb+2xBc7mlK8vsmAwL39x8wdavabQFLbNUX1pLLLOqW0sJZatw+JymD3TPlEFG7b3YlbWvbZEL2bMV9ujyGTZrXso65dSp9Wi3BBitVdBz8bDYjyZEdhNlpYNWo6XgQ5D0FwVSuhiK5D4v5OLBS5g5Z7QJ0aYAoZ5rDrQD9BOYOBonBAnK/NVf/ZWnw8gJ9CtsEP7oj/7IhVCWI6KlYo8W6saZ2oc//GFf2UCZ2PcibYjTCLE+4jlw1kOdxFMfWgyWQyIkfP7zn3chF5sGVj/gmhn/DNGba3xG3psnlwUIATSBDAQcP9EKgKWcfL5MXhPP7dM02yV7YvUG4V21iwO4NReyksmNi8FxhG0CtGO48+uaW+qbAGHcCgggMwgJIqNeREWJZI96cuRINUHch9NTgTtryCG0aBAedMCgblhAAGtzqr8cTXAsFuLjephFgDhZ1UDf6UTEb0SHrLZk7k1ftd1H37dthzZLLd9lG9Y+bY81P2n1VU16iuamKadCgyIiLP7jScSJW1lDebHNKs/YCa0a6NPKBSiOuyLSkqpSaQ/e39epjFgK4NjI7FvHs/buiavKxmyoVoEM1lhfqtx2vx32Zwht61L/5wkNdubggBUfkYpUzxpk8yfVtesbXc7w+AYhTPUdaf/1fb5DeA7PEsu3LptuW84U2Zaz2rtBqXhUzGYl8GgfhyIZYPbKW2NKyxhKpfGYNbXIpsuVgCaLcvWqBLQT4knhUUIcZ5EUGTQCQAwIAqwQGLlcOeaJwkPMzzsxsmfpIgbKTH1Qb2lZ8Pr5yiuv+K6A8VmRVlA+0gLqZLe/5uZmrzbm5ZnxucCTQcdLL73k2g7ax7NeffVVn7pgdQPLJtFsEGIdfpP8FCgEwGixdPUhps1g7uAsAwAQpKOvzbZpaWNj03ybV79U2CHdGcoB4d9QyJGReB/693WRMXlcn8etgADUI0Iyz93S0uLzhnhVa2jQpvV8+BxxBOEjYRjXX2ucNZ7vw+gPooqTmgcdcF0CN3Yi4A+HdYc4+kccEcDXnKErqci5PGf8GmjvAzkZupg+Yxu3vmbHT+6zOfXz7JXHP6ZVBEtUptoFC6p2dochn66DUMIVNxI6lNg0XbYAx7p9yjKjfkl+iBQrHiAwgd0iEohB6YZYavN4aRvY+hlOzPKq/BBuw/w+fdz7ucrxH/t/fv6xrgPR1PO8HBZZgpq/Qok0I+CPBAS1qKWx3qdDqMeTufCXp11DMcTeckAT8IM/+APSHoQd+W6lIN8H50UcI/F7CA7hBbw68nPkw4S9RhAUxgoILtgg5OdhQIJ2As+k1MV91EZwH4WLsepM4h8+BNAVel+lf+S6LJiG79EtH2yyritdtn7Fcmn9ZEvklOHht/lhtWBs7HhYLbrF54KMIDwBJGVqgY0+8KgWRiLD6eSJeblOwoOAQGAY2CBAQLFOf+AhGtGpn0AS0Bi4gIC6UAxviEioqdzBmH0koRuIhWbz7ci5g/ald//Vrnaelz+Bp+2ZFS9YbUmjRhXyaaAVCYw7MBb0UYT3R57BKgdV4vcwJrOW2TOseOsBqegFCxkJMoAmH+6PczSKFujQs6W7DLVIz0DbVEGJT18A02uDP0I1AGPC3fRzhAT+efuUgIFgVyzDypTay8ZSemNbPKda+0GElgJe5CkPwy+Ri7i1U2wvwgGMmPeIcTeqAUacny9eo62iHu6jMBDrJK1Yy0wJ0Ix8xj/asyKzH8n4/Vl6X4lyQ+0dmWe0+pK4woAAXRWvoAS/BnekJjjbecp2Hdlms6fPtmXzlyst4KNnnKQ/4xoC+QSAkSrTC6xXZr47EpBIOCbp931ory35zQOjMOaVmWKA4TzQIKO/wMriUxEPJBMjHPhOh7JZjgyOs45BqdGz1mvt/Rft7UOv2Rfe+r/EoDP26Q/9d3vp0c9IOJgvpiCjPzFOtA24O3a3xi4UeBVekZMf6hQhohVz680WyBPiYLpTBoqwf8pyzhEpHq76mO7waQppIzRLrwOPizhQ5ooKxw70dZ7Lb7gaO++NUlyc0rJI2sInYwvq4oF+a9J6yLnT2etOApHem8BvkMMCwfXI2/yh3TBr8JnriNc3qgZhhv5EXgSAeESmH+uijkgDonAQBQbONwtRSEC4oE7+KMdKEZ4f6QznW6nvZs9L0h8MBMAk77u6QFjvk33RzsNaPtvXbmtXPmuV2jcFg1x97kkdxq0GYeRXw0ipubnZl07hqpXVDZEwRKIT70eWTe7vPQQirDkjvGEFznLHSMDv/RNHqTEn/sK6YLIB1/UrxofgwLjfgxsgifAruq+o285fOWPvfrDRjp45YkvmLNdGSh+S++P5GmSwKZjsCzTCd9YiJok3Qb2iB+K4zN36hXiKGzNVqi3rljZYqzwtdmjDI+wWsszbk67aaJFa4PUw9UFbwgiGFOXRiVxRKRIyjvaL9iGUQUiI16PlHDsuMOmUVlqktTC8TMJKVXHaVi6YalM1X8JEiLilvx/rxnkaoB5677Ervi4lCgPAcOg6Wn9dlztEROaPl05CZOKxfL4AEHGffCOFpliOtNFCrI86rum3uRelvOfhHnDEjjBaZUlcgUCAjiZqkPtWkAI2VTt96Zi1Hj9gi+YvsYVzVqg/s6VzDh8LpOUPoxk5EvowHn33z3TkF2aCqFyjQcDqGYcrcc47Im083/1TkxpuBwLAHUNFHOEMuVy+nQruIi/My7kWxFtHmMfHsgBWHFgadCIsXuyWcHDFdp7ebv+58V/t7LkT9uzKD9lH136nzaleKBV/hewHVEYFfPDsDIF7XVwTqFDxMFDnGjqJ2zNVsHJ+qc2fXi6Xyz1OetKsJNCBgaSr671VtAzCFMQFrgKZGvkcJeRCZJjcIhDwaOLuTDigFr2DtAZpGlWskX223xq1tPGROdpLQrQ11OuAcyjm3pSCtx2G8VL1Kfj92K86lCcybyJ8RO/wDu+dz/hj/UPMPPeMW4FNLBufhfMpAvEcHg8Y9H1jXs+Q/BQ4BMB97+XCLekLM5227+R2GVMP2IY1L6pPs9KIDdJyImXomgX+TveneQFS96fu+1prRMj8UQHGTkuWLHGPamgRCBG572tjksrHhACqWWxC0CAwzfAgv8cQcxUBH9QyPebWYW84JYIHBa9piAcpbbDUaW/t+bJ9ZeN/uFr92zZ81p5Y9JxNK5smVSMCqEpAKHQgJ4A4oe+hmwgUJMTp1lOV3xmKWiFmQpr2Q7INq2bY1GJNgam+ARGgQUbpMGLlgNHgEblY3gqLVVapXjZLPn9GeA5PyA/5OEA8uUbG5ee/6bUEnJS2t81qaSR4VlLUaYvmaJpkOttKE8IvkosrXxQDrO80RFyOgn68H6s+0vPz5l/HsjEPdZAez8T74VDy6Bv+XFMPHz4vxHpi/dwnofAh4AMHxy83Q7Y2OTw7eHyHXJo/qlVJ89UzfAJQL8K0l+jGdYOAwn/He9XCa3v8var1IdUDguJ7HcM43KSydjkwJDEBMaokPFgIAHuMwfCBz/WDNlSEXKe1rJABvQbqCrBZzem7/375NXAzxF671HvBXtv8NXtn+9u2uGmFfe7V/2ELG5bL82GlTBVAEdits+tcHdSlkJMZwg25FHFNQEgI8WjDy3QsaqqwRxqnWIkcLJVKrYCeoEgwwhrBGY1sIFBtokUYtjkIAsLI2oceNZIvcT8ybijzzS8omtIIKitKmpItwqwauZBePM2qJL0E7Uau/jEbdPNnJDkSCDwMCNBltR+a0IM/aECvDBPfV2zWHlmwSlNp0wPqkFGEIzhGuhvx92G85b175oQSEAALPhDYtx2/7LhfDupHyYI3WM5078CZ1DQSAjA9jBT5LixBfZAaBBhdMUxY7oHxGeA+Anz4AMLLJ+Jgj7W277X/eufvtcXxYXtmzbfbq09+zuoyWnGgUQO+1wfF2Vnix9bHAVkgK6IdrlEQFXEtQeTGMPygmdCJKxGbXJwSEBDqZYywfulUmz1VywYlJFiajayk6GT0ie2BmsZ0BBoEr0ypWFzn9AlUet8Dyy9x2Vwhx0g10nas146R82egclW8P11t45U5/DJM2tz3hiUPSCBwDyCA9s7xVFrFMx2ttvuQtAfNT9jMqXMdx4vBQfq2wqDjN7knZ5hwAgIMCC1CfX297yuPLcKDZEqTsxuN/tZR5YqAgLc5hLYHuZKB0S6s1YkBREFHRoICvgR60h225+g79vVv/Ys0TZ32/BMv25PLn9c0gNTqIhA4Fx7UKHpQqgd3SAQDV9mgfAz1Bg4OCgVqEslIjrY4UJwUUTZ3V6pphCWzquyJhTU2vaTbqqxb9g2a5FAe+UzS4ggcHREY4Sh4pfpxgYSI+x9SAkCZ9pqosiu2cnaFrX+kXn4iUbiGNvHrUx68V/h3uNz/liVPSCBwtxBwaqB+m5F30R57c9vXbeqUOls+f51VsIeKaAM4DuJBL1yDILyfrGHCCQgwJRjSypUr3cUvO7gl4cFDIMjo4bm40sVQkR31HuxSsNwqA6yWHeElLGi9c+fAVdu69x17a/NXrVb7Dnz0mVdlQLhWWyTLh7CWP8osQJsXSWPg8xJih9IiwLxDiMIBdyIlebTDmSbRkalz7ekQmpDA1snTpKp/elmVrWgssQoZSBVnewUXLdnT8zJamsnyxrAAMpTxYTpD9VAxkfc1IFSVyoPi8qZS+9iTtVYvJ3IlqDYk3Pg7672BLIoVnTxMOEISXiv5nWAQQLilfzO1sOf4Tjt6stUWz11pM2ua1ZXlCgxBXDRgUEK745vbnQS92QQDxS29zoTFa3Z1w1870wwsr3uwjOmWYD+hM4GGMTC9w1JHtDmsZnhwQRsjaYtlJgfYJAmDo167YBtljPjWjtdswfyV9onnPmct05daBWv91bDAhtV2HAVp50M3wlOkPA2L2etCI4zAFYOFgOd3NSRlwzv7Lz/hVhdBdPCWKC6lVQEz5Xr51efn2Ny6UqsqkeoeDYLmLqJwEASEXAV+YmKDp93/gEHmzLoSe+XJ6TZvSnA/7ftGqI28fXxPdDNsfU1At5KEBALjAQKsTriavmDvfPCG1VTU2ZOrX5D9j6RgOjf4LbubopR8mYJ33BI/ScOEw+o4nYBhHNs/t7a2umo7WhrH7xzzxfvkfH8hwBQDggJahDsKeUjK5fDttXfDdSteQ9wS7UA46PsfZK2t86z9+5v/ZNv2bbQ1jz5mz6/7iHZJnKX5/jLJAwgQYnbyjujsXMShuCQn5vjDqI8LJfjQObTBk4J6wB/t934FdXEvCSqhunO8PYsFg5gqeoJp2vjos59YKCdKVVJvyjNCbuLTlZxRNaFqfJqEkU2gYPrV9fCDQrzuyeLZ/PlkCXocsvrBjwfelQveJRejBqIXKJYQ1ahNol55apYtqGcLKkED+JEvRyl5Mw6iwgSOLpKQQOAhQGBIU5nrx/TKobjR2qM+nNZOpnsO7bT2jjZ7YcNHrDKlZY3q/SnXFoBwVAZuyIQ4dzlaVZMhbsIJCHw0mD9TDbPnzLbp06fbjh07hua+o2AAM+A63k+Gj/2g3zEftqwsYaoBjU5+fNTsxPOYbYRJSc3N3/BYmu+HAaLUgXxLmDAIzQXLkzjpuqu42/Zd3W3/Z+v/bYcu7rFnn3zJXljxcZtZPMfK0pWiBzgtKrYB0QS2WQpHDjU4oVpACGDKwQ/dK5CEp7EwesZqIWR17umFQgwCAhoIqkkVaf6iuEJz/GmbIk1Ci7Zt/sz6KfbUnLTVF7VbWaZL9ULics9zwYXXkpigedOs9oYgYC4YTAY1ntf7I3AE40Y9gzLKk9F0SgZNiNpOjVSJrUOwDcFCm90etIxREC2Xb4aawau2bEbW/tuTlfZco/xXCKa+uwSCC43XWVf+3uHd8apIDu5ISUICgQcHAddgqe+yPDgSBVYF4fgIOuH0AJoQ6YLOGW1A1tq9w/Yf22GLZy615XNWCRfl5ltpQS6go2MHJNwFX9S1Qf3JGsDsCRdgNhDB2hptmas9GthPnj0aYoBBpbTUjXMgljElOd8rCETYxjM+KhASTp065cIa8QQ0O1yP1PBc1w5Mi/VNUxq9h04LKQDzxejcxkCXGplDNJy5Ki6d6rf+VKcdO7/DNr77Zett77aPb/gee2zR81ZZUhNYWg75i7zeB8joNKVhqTCtMU8j9Y+srbcPLa+1malLVjl42XdS5E2YCUXfgPhBG118QUhBw6AVGSzbLJLbZ6dm+gUepPmISPYMrMBA+NF2jIqHaErAkPDEsst0RsKVnlBa1CcX0t32ZHO1ffbZelvZhPCgOiYzZXRYJj+FDAFQl37u/TTceAwiL3jgo//cC0BjsrIt6Jf24NDRg9bd2aet2jcIe5haEC3K0aOQPdIBKp3cIdDaCQSDfMLGGvxFixYZbpjRIrBHQ34gb2RU+fHJ9d1DIDKXCF++Bdvi4guBLXQJpMXjZk/UfkFilPoRLjPCxt0vIgb7FjhTlHMhFiCGfdt1JSbZKwc/B9t222sb/01q8n77juf/m61qetKqiuolaJSpvGpgwKDA6MHn2cPtff91jYW4P4PzKh1ztezxpUen2ve+Mt/mV/dajQSbkqxWOOidSvSOCAdF7pdATZNcFOCKZkB2FhKIM3oBVnCyXBLoMA3if67x4J53VIqEhBLNsZbKGqMq1SdHUH22qD5lH3+ywb59fb0tqSsyea1IhIP73gOSB9wtBIJ4nGNhnDRAyInGvlLJ3Z3Q8dXvMQLG78m5ztN26PABW7JghXZYXaBCcoMmnBnSFCi70xNwKAkuak0oMKA9iKNRmBTW84sXL7Zt27a5ehtPi4SoZYDQRmY2oQBRIC8TYQuccYXN5k2HDx82jEhjiFqEmDfG559BfUa9DJyZkw8haIHQGrhegURXMGZctb730ib7+htfthlTGuyjGz5ps6c1a9gsW2Xp+13PAPNUUNPUB9QPmJbwOOq5v4EnlJRChNRfRbzKRaGma5+Dqrnl1vTqInvj/Uu282i7Xekvs950hbadlhdDpAkBgbIcbiCoKQTev0ijoyL5aiCkdEagIFMKr4winE4EtXqCaYiSwX5pKfpsQUO5PbOSneuKfIdGdrzHBsErj5KT15j8JBAoUAioPzvaq3loEwjgRphzCDjgKcKdrsErWr30tlYNldvS5jVWUVIXBG/xCfyi2GBOE4eQECqhokkdgMiECpHZ5L/U6tWrbP/+/X7ApDBgHBYi8nMm1/cKAlHwikwfeDPFwGoGlp6yLwPLUX0Ur4fG/GM9XyxPf2ECIeAv431CxGTumIbAt/pV231it3196xetQVu3vrzuUxIOWsQYS8VIlU+jaM7Uw3OpKNQS66Le+xxQ9zsz1jNpkwItqlBLZlSk7BNPz7BVC+ts28ELdvJC1tp7eu1y/6D1pfFGIIHIjSn1xrRfco6Up6pG0w1oFxAmgIXStHBScb2uiajUNE1NSdrmz6zQuu/ZtnxhhYw0fbZVGgVA169GqD4XLnKqFW9Z8pNAoLAhwJABLAoYDH7Q3lys+vSAfB4cPLPX9h7ZpS3bX5T2YI5wA1yCskBXkjAaBCacgMBLwpSc8eS+emVlla1du9a2bNnic+CLlyzOudv13KPBJYm7WwjkeG2+RodVDM3Nzb6ZVltbm82ZM2dIexMFibEeC7uSuZ1QGRNFdloLI2nywyNVkY6MHCBdtT2tW7WvwjfFCFfYc499WNsUN2tkLAdI3h9Cp8D5UZYIV0sy068nZIUOuXZT7/0MrrHwfirzQjUDb4k8mqOMaQBNK+AnYd6MRjt72ez4+St27JLZ6fYiu3i5y/rT2j5bud2KQHYFmVSXj4ZSGFxp+qRY74fZRomsr+q00VJTbbXNrc3YooYqwaXapsjzEQTVYaczJBIrbmAM9iQhgcD4gIC0Z2poGD5EIQF9o+scvX/jSfVS93nbvONtq62rlWD8mJWmhACgfyAeuh4aJeRowAMiBAUO5AkpIABzJ7d535hphoMHDw6pt9Ei3IwpFfi3K+jmDbPv4WYiLDDFs237NtcixGmGW/sOIDzyvhi5mN/QpwXJ3VJf0wqDvbbj2GZ7e/ubtmDefHtx9XdZbfU0jY41UvAC+skRgqCWhBFiy8B5qMbhBt/HKyZFeKr3VD2ap8eDK2YTSK8VhlbPMC05rLXHZULT0TtoV7rK7HJHVkeftXd3Wld/p13sPmmXL3dY4/T5Vl8902oqp1ptZYVNm669MKpLtN671GpFEysFPmy0fbSlB7jLaN0HCLAyAkKZB1+lJSGBQOFCAKzxXutDBxd0FUMPRjs4KNrQZ522+8hWO9d23j760rfbjJo56uXQEjSJOXritkyqy/EuCB1+U7gv/kBaNmEFhJHQQ529fPly27hxo126dMmqq+U1Ly/cGpPKK5Bc3hIE8uHKNYJZXW2d+6ZgmgEDUsLNphggApqqlxpdXTZwMz/D3Ae1dGnAemzz4bftjc1ftsULltnzj75sDZUzfVTtend/SiQAoYpAALBeAA3yRhCe9/7+QIJQgELeIrMefiKxhEG1LLhO4h2qy4utQfstZ8Xpw8quSu0nUedahA9OdtimLYfspcfX2YKmBa48LcsxeowXg8o19yzVHLQp0hYwgnKwILBwhGfHFngzkp8EAoUKAWiBem3AcQTc3MQCgwh14v5sn526eMz2te6y5rlLbOWcdRpiMAWHrQ3aSHp6EBIcER0roSqIEEmANk2KAHPC/qChocG2b2fvbzxlJV3gfn/8fBhzzWoGtAjnz5+39vZ2FwxoQ7QJGas9WRkQuXAQMwxgVKTxgjyedctd8Xutr9vXtv4fmz93ob2w5qPWWLVAzE/fFwboREQjCt36agiivR7GGQgcQgNnlEw1hJT4mPt1jk8JwoHusEdwfw6IDSFEIQKShzjBHgloFrAXYOOnMnH9CkWgFagqU3lNr5RIWKpUXIXSPI/KVEjFWqbyHAgcRYKbE1Tv/94Cf6CqhFQGOukxyU8CgQKHAJ3WpV3hB5fO1oOgi/luT/aK7T+5y/r6e+zF9a9oSa+cIkXkc1wfusm9KBUSl4vPu8xlmFQnYDppwpQp1dbS0uKjV/wioPIm5DOxSQOM+/yiyOCjBWA9b948h33cm8FVgagDYdJjBEdbJYepATFDcclBWe73aF+FXcfeD9MKs5vtQ2s/Yg3Vsm2QzUFAcr7xcL1OTxQzdFYS18MxfnPff0C8YdacawQM2xtDexEP4niekVHOw6OIHoGsMPPQ9rS0Kz0SoPoVjyOlaEcQ6iF/gEGuXqeQuTSvgB8OxRGdhAQC4woCsf8iSNOT9SsEGZDh7vFzR+zAkX22ZsWTNrO6SUKybJH83fjNY38h0kvnY6ZnncQ/eRCa+FDAynv+/PluSb9p0ybr7e31l74RY5r4ULk/bxgk+VB3FADLARt9AABAAElEQVTik5hmmDlzphuMMs1AQHC4kaAW8dcVAuq1eEQb0Fr+w2f327s73pRV8nz76LpP2+xqqdcxSESvDiN0LhxKw3CjEt2j/cE8nAsFd7gUb0LU/fr1tvjL6AnMf/pBm7kPzJtLJkCYLUVA4C5sM61LD5EgSjNQKidRssFwPxCadOAcrpWR93ItiZ4Tz0MvnavKT7nn50cl1wkEChkCjitgEx49hSmO8pja9kt70KFlje9qJ9nptmzBWmnXKpQOrvFCUAC0h4jZKuT1+FUujUy5+FyaIiZdAEqTKrAnALYIly9ftr1797pXvxsxpkkFnPvwslH4yocxvhBYwYAG4cqVK0OCQcw7WjOCT0GlCGe1ObLQ3+xQ+357bfNXrH7qDPvo2k9bU5VWp2RxnRwYXVZMFy+EOSkhFFYFwcKZkThzkLnjQRMBV4U4peKVUPyrJbQ3HN5m8uQOCB/vhbDgBbgPd04a0/19Vl4iE05NLVArIoUrG/LqoASrJaIzpeCqObYh6HxoC0cSEggUPgTAYWnP9Ou6Nu/r3NCX+2zLvnet7cp5W7boMZtWNVt4grCdw3cXzun7Ohz3o7HyyP6v2pmSm6RhUgkIcZSKd0X2aMA3Qmdn5yT99A/utfOFA56KvQEahJSY2Xl5VcQehBBYlV9e98MYAWaO33W2Xj7dec7+81v/aiWVKXtu3YvWMHWuFadxXYxAQNDSPxiirhy9nfPBXHXhCE9sYMuBJJDh4YXYTshXvPbWcBMjIrOPzVQ8tA2RoFx7VKexy9C0WSB7EL5w5dl1SXHemup8awu/Js9wiOnDMclVAoFChUBEDPVpLnMB24NzHWdsy663rV50ZunClbLdkfYA4doxwClCQAQvQ+G8CogbutXFgx48eJsK42dSCQgR5BjKbdiwwd3+HjhwwLeDJi2qwjlnJ7HUGOF0L84jhQOHs35qp9UKeafZQcE/heXggJBW2yuDv5zQEKTF4rNcyRLZ0tqVUaxvQHsGnO7eZV/81v+WEV6RvbjmEzZ32iqt+5cTJFcWDEiLru+XKnVjvqg/yHFNIbti5GQI9SJbDYVFf0F973kU80ACfDl3cKKdtIbjmjaDoRwxMq+c+04Q8cIbQr/eiXcmGULo2oFwE8rrmluq4dBGlX4mjgxoJmL6pCQKDofk56FCAKYcj1xDwi2LF2HqIw/1VJ9OVG9X5yVXf2rA2gfa7Bvbv6jZg157cdnLNsPqrcK9jGoFEJulgWUIz3R0RwAwAtyJ2reQHBIDrVCGSRkmJS2AabEvQHNzsx09etSXPeZ/fdJxGhONGPPTkut7AQFZ1pdX2Nw5C6xdUz1nz50JuMiWh0JYRgPgrW9NpA2HYGXgd1oGeO1dp+2drW9YX+eAPfv4R2zh7OXKJ+amOfcwXRDK3otWJnUkEEgg8BAg4Ew7/7lEjHYQja1NTlMowoEvlEMnd9s5bdD3xPJnrXHGfBeWXcPgP9CJJNwqBCadgBDnudEirFq1yl3+sjfAwMCAdzQA5xoEVLXqeEm49xDQzIJPMzQ1zbXqKTW2ZdtWQw7ASyJH3BpZlwrqojIk6tFooKP/om3Z86adPXPSXt7wcVs+7wnJ/VU+EkbfYFrOFwlJ8uXu/XdLakwgcN8hMCriEjniiPYGrjcQiVCOQW1vfqHjtO088K7Nqm2y9UtesJKUth7DAFj/DCLc/8F9f4mJ84BJJSBE4YDPxzx4fX29LVy40I4cOWIdHR3DBovqi6QnAsL96eiDWu8Putdpb4am2XPtxNkzdvbCaUdwFOZM+QnXc859lFOCWr912M4TW2zXgZ227tFn7JHZj2rBUpWr5N3lkFMISRm5DVeoPwkJBBIIjCMI5CGto3Ou6UTnJQVpIO+1fBdTiQh92U7bd3ybXbraZs88/iGrKWvQqoVy39kVt+oZ7WIapinyCieXN4TApBIQIiRg/BjGYU2PgMD9rl27/JzJYNomliMNQmKHECF2b88ueMnYkM63fPkySfiDtl9bsLJtMWkICD4k0E9WUn9aHs8OXdlhb29905bKInnVovVyBDRV2yGLcKA2dHsRamPZUizr6gfdJCGBQAKBiQoBTHJZs5DRqoXTlw/a7v3v26rFa23O9MWiBXKuphdn3xNRc6frGnZMVFDcl/eaVNAS7xmaPmDjIDQKrGZoaWmxQ4cO+bp8NAdR04AdQhLuPQR8SRIfQ2HmjHp5P5xrJ0+escsseYTD40fY/7ULW1GPHdVyxtff+E+bNX2WrVv+vNWWa2SgOYkin1JgakF15bZuVgW6HrZH8IckPwkEEggUPASibM+Z4KgcLsf4FbXQVENWK5Y60hfszR3/ZZVVlbZ64QYN/mpY0CNSIGojL6WICCkMFN2maYzqkujrIDDJOKCMD/OmDhitlpWV2dJlS62qqspwntTX1+cCAvkSI8Xr+ss9isAzYJD8U5pLWL92nfVc6bVzp87J47BG/vhIL9aoQIz+fNcZ+8aOL1nJQIVtWPOiNdbNk82BRgauZiAv9eA7gPX9kiugKpAWd4Byj5qbVJNAIIHAA4BAFA0cg4ee57aFuTuWOQ//ge9oD7pt24GNdv7iaVu5aJ011MwTBRCNERlIaUVTWNMDYRC7SwZ9Q3C9lYtJJiAEkLiKOw8606fJ09ayZe64B00C6QgHI/PlFUku7woCdDuJCAgC2oFpZv1Mm90w204ePWHdXd1KYsHSgHVpb4GtB96z1gsH7JUnP2mLZi63UpY1gfkqx4n1/DgYwjxRtalcDKx+SEICgQQC4wMCYO4w9ua3GQWhzyQquQgLZ8+JeoASWTt+4ZB8HrylrdEX2+qWJzV8KEcUcHlgEMNE5cPP4hjVkzMJY0BgUgoII2GBIMCKhloZzeFdES+LxCUCwkhI3Zt7JgDc0MC1ACXawKnUVi5bbBfOn7X2i+1C7FKJBwN24Mz79sGhbfbYiids1YKn3CjRPQqC6cJ3RglFmlrIJyvhWolJSCCQQGBcQQCsjUd+wxEOEBICj0cwYHCB5iBtHQOX7Z3tb1iplj49v/bjNqV0RqALyo5eEXqAttJdjHNNPUm4ZQgkAoJAhc0BBos4T8KzYmtrq69ouGUoJhlvDwI5ju6IC8IK5+sb6uU8qcb2HtwnH+p9dubKSdu+Z6M1zWy0pxd9ONgcyI/6kNCGqlDfLU4w0JE5hvHfxZDba1eSO4FAAoGChcCgNIsYjrMUGhKSFp3Yc3i7XWy/YE/Lm+rcmsWiEzg2IjWaL0IR0CYOUwbdJOEWIZAICAJUZDrsD8BOg/hFQIsQjRVvEZZJtluEAPYDAbYYGamQemFV1RSbM3+enWo7aScvttrmnW/JR0WvPblsg00vbwo1Kx/5vcwQ0gcLBPQIUUBgjtI1FLfYniRbAoEEAgUGAehCLqA9QDhAZxCvERPOtZ+xHUc22dymFls1/wntwyLbJKkI0C4gEASKEKmCRyVkIQL1Fs9ALwmCAMsbcZ7ERk4sgTx48GBipHjfegbSPAiMYaFGA+qFxSVlNr+52UqnFNkX3/x/rPXUB7Zi0dPWIruDcnk7wFLZGb/mGJiHdGMlNApDR1geGccJrp24b+1PKk4gkEDgvkEgCgecdSAcIBik9BOE/yLr6uu0Hfu2WffgFVuzdL3VFM/MCQZhmXrA/+BA3GkCP7He+9bwiVdxIiDkvinCAZqEhoYG3xIaW4T2ds2HJ+GeQwDfBSwhdXyVEdFAFgcmcpykJaczZtVaZ/8Zq5lWLduDDVYmT2i+q4J6avC0GOYVERKKmGbwpQsqHJE/d04mGBykyU8CgfEFgYjHea1GOCCEJESErJ2SN9UPDu6yZUsesdkztGpBxstupoyRkrQIrmlUDMoESnhZfvxC5yTcEgQSASEHpjidgH8EdnssLy+3zZs3D+00GNNvCapJphtCgK2bmUtkDXNqsMzKZHc8WNRrlzPH7XT6iFlvpdVlF1r54DRNJJS5jUKxxASWN7Jb49CIgAt2adGS1KH5Bd1KdFCupGvf8CMkiQkECggCge1LrPfpARqGiJ/j5tISZkUr0tIi4hDpYvcJ+5ctf2IzWsrtQ7M+a1O1HZPT56JylWB5IwOQQBIgFtADnUJEQhaAxC2HBFw5UNHBohCAFuGRRx6x48ePuwOlfH8I7mFRSyBj3luGdJJxCAKgPdqaaPuR1ZLFgaw2WTm6386dPWcL5i639gtX7dSJY8qj74IAkIQEAgkEJjAEYOHg+VjDfCwKinzVwpvvv24l6Qpbv/wFmzp16hAdATj5dIX7JNwdBBLKm4MfjpEQMyPjxy8CezXs3LnTrsjDH4E0z6fryNw8Ifm5PQj4CgSRA9ECl+zlFOls1ynbfXC7zZu5wF7a8AmrLptmRw5oRUN35+3VneROIJBAYBxCICcgMDcgPYFrEqDHuSMrb4hyum77Tuy0fad22obVL9nimaucDufT5Ui/xyEACrLJiYCQ+yzuGEnsKnpaRDJ9/PHHfROn/fv3Dy17zO+MBflFx0Gj3D5AiB/mB9mHsd92H33fOns67fGlG2zalFn2xGNPWZs8K545c9oGBvvHwVslTUwgkEDgTiGAeMAhjj9URdQlIDPgEfHspWO2bd8Wmz1rvj259FmrLAragzhYy9f0DlWSXNwVBBIBIQe+2MlYzYAQwIEtwoIFC3zZ44ULFzwn+RIp9a76nAhBDoYyUMxqP4VTV0/Yjv2bbWHzEpszo0WGieU2V7s8Tq2qs9ZDrdbb33N3D0xKJxBIIFDYEECbiETANMOwjBAmHEQnugau2Ob9b1lvT7e9uO6jVlFSrfz4PAjBB3i5acuEPkeo3P05ERByMIwCQlzNEEH76KOPuhrrwIEDWpffPyQ8xPTkfCcQQESACgjxsxftre2vaU+MKlvZ8rhNLakViRi0iopyW7nqMTtz9rydP3fqTh6SlEkgkEBgnEEA7SKu0wlQCLZiSluPfXBmlx06vc+eXP6Mza1aqOnJEqUEWzAEAuh3pOFeOPm5JxBIBIRRwJjf2aZNm2aLFy+2o0eP2vnz573Xkj6WlDpW/CiPmbxRPlJgsVK/7dd84r5jO2zlwids9rRmjQqC6FBaWmwNTY02Tftk7Ny2bWgTrXygJbDOh0ZynUBgnENAdAGfB4SsVi4EEWHATnccsY07X7dZ9fNt+fzHrMKnFjSMkAQRaXW+cJB/7ZUlP3cMgURAuAnoWPa4ZMkSt5bdunWrVFy9XiJ2wpFMKsbfpNpJnYzDE7ZkvtTdZu/vf8eqa6ps3eJnrSxbqRGDRgNMOipU11TbkkeW2OW2y75HBnEj5xlH3pMnCQkEEgiMPwiw1BGtAYKBaxKyaevW1MI3t33F+tI99tTKF6y+qlFEAB0jNCLQCS+S/NwXCCQCws3Aqh7LJk5Lly61trY2++CDD8bUHtysqiQ9QAChqn+wx/Yf32nnLp2155/+iNVVzJCXgzCnCPL7OEK3Cxc225xZs30r7ui4ivL4UchoeWRcVZLANoFAAoFxDAEZIBRp63d8GLjmQARgMJW2rfvesQOte+2JFU9b84wlmnwodTMFljwGYWIcv/M4aHoiINzkI+HSF61Ac3OzNTU12e7du+3SpUtDQkKiMbgJAEdJhgi0d523I6f32oy6Wba6cZ0VY3CE22SRAIFbrpTDhizFpeX22Lr1Xss2TTUMDAwMqRVLioeNlEZ5TBKVQCCBwLiBgIYFwvmgFNB1KmMHz+y1bQe32Irm1fb0I89aqRwhRSNGNIcJ87r/HzeB8U1gHAWAyspKw2CRfRp27drlc+I3KZokjwGBgcFeO3n+qJYtnZbR0bNWIV9ohADrMC5IyTcCV2gLGppm2+rVq+3UqVN+QBwQ3Agjp3g8MvlJIJBAYHxBANsjbd1OYN+VK71nbduB96yorNieW/OKVQ7WyUciHleV7iRCP8kMw33/xomAcBsgRoNQU1OjtflnrKen5zrmlDCrWwNmOtttFzrOWVFJyhpqZ1nJYCl6A0f+qDdEgUjnZM8FdAktLS0O84sXLzrcESaAdxTgbu3JSa4EAgkEChMCcH6nAsL8ATvfe0a7up7Qsue51jC1SbRALtf1i/YxLduEFL6UnUIU5ttMlFYlAsItfMnIhFgCuWLFCtcenD592g3m8oWCmO8WqpzUWfoGuqz1ZKvNmbPAaipqtJ1CsWAJSKRazFkxu4bA92vQMEGeF+vq6mzu3LmuQYieLZMhxKTuRsnLTzQISD0gMwTZFw3Y3pN7NDAYsKXzlltpcblEAWkPXHWAN1tt/JzJ2SpMNBgU2PskAsJNPghM31XaudEqzpPYq4HdHmFUUSiIgkI836TaCZMMXx/W9GFZpIOpRMFrQMrCbv1mdK3FzIrH/NBsf/c71t5x3pY1rpdL5dkqoi2Y1BOLtLJBPyou24IU9gUptl7RXb+V4xdh5Uq3/zh27Jh7tvTdHJWLEOE+8hxSk9+xIOCbZrlgJsNP32OELxoCsIx9n3O8Jj4cIe9QvOrhOoaYL94n58kCAfUB6ADITndwAsGFtluSV1SRh7xoJUogGJTDtIGSrF0p7rHdF3bZ3g822mMty21R40orzU5xmpKS9JBSHSXSMRSnwnSEqkrCfYRAIiDcBnAheOzyuGrVKuvu7rbW1tYhF8xUQ/qkD2j+dDBFAPNh/0UPihsUgvdlum3r+1utsWGONc2Y7fkCBQF28QhFqCcECps1Njb6ktM9e/bY1atXY6Kfo6DGDUwq//6ajMnNNRDgOwFb4BXcjEuNm+vHnOMqkQjPeA6VhGmemCfWEwWGa/Ne89jkZkJDQH3KcZeOpRf164DdxUUlPjEQkhkwkEfaARkoozG41HHS3vzWV7WF8yJbtWS9aw/cxSKcCjsFpycJ23pQ3SeB9E0gDZGE0DEX7mddo0FYuHChL3k8e/asE9SYdpPqJmByMCYEz0cGNmZmRbN3MsERAnDo7D671HbFFs55xF0p4xjJ/SJQGFjrlKMnThdCnSGmrKzMBQSmejZt2mR9/X1DzCwUD98KhhWZXCif/I4GgXwYcT3yiIx/ZDx9PZZFGIhHjIu4EMuN9uwkbiJDAHwV1uuEUSGkIWK2Y7IGDpzVi5yukgmviJ19F23L9tetr+eKPbHsRauvnq+C1COdA3MPXgpqotIsh/TKdJuE+wYBp933rfYJUPH/z957Btl1HHffvfduDlhgschpQYAAAYIgEhMIUgyiJNKWLD9yLOdcdtnlD3b5ddkul13+5CrnVGXLoRzKr/1Yrx/rsShZEnMOAIlIRCJnLMJi8+4N7//Xc+buBQiQSAvcXZzZPXfOmTNnzkzPnO6e7p6eiOwgdQSQHlIE/CIQr1+/3gYGBkoIcxw0+aqawEc+EgIqAFScZWQ7UKWlS0CuKL3hgHXb+h2v2aSGaTZfDEKNDI/IgzRSAEyKCagkuVDEEA3DFNhPmTLF2GmTrbh3bN9REnuTPxIuJ0wX1Iu7afgIBNQxwIwQY2A3nJMVudRn7EsSpTHcL2cYIqyRpDH+uXZ1RdKP+KzAkBfGOg23GwRcLiCSD+EP6oTAEkQjRH3rroIQ9pBdAQuShqSM3Lr/Ldt/cI+tXfm4LZy5VPgB2wOUjOAGHT6U+AHrhL/bDbI3u70pg3AFEHeCI8QXkSiIsr293WezrGhA5D0SGMy3U0g+3lKTywgCKoZEV4h64ejZQ7bv1FbrmLbYpjbP1McvpydhzRIUKhylcspPRqQ39AHLTZHibNy40Z1XRWLFE95HKgrGIw0fDwGY3ji2IyNAvGnjJnv22WeNXUzLpTHlcKZknsUW591333VGApiTP5fP2fPPP2/YikTG+uNrkt4dXxAAJ2gpsn7DWWydPky3UVGqcINPDJSUl0Okg6f22Ps737A5MxZq6fNj2qmxwapRR/h3DEOgjB8JsB9pGE0IpFj0E6ALEgQxOuFRXmKQKOkYzc2cOVPOk7YYuz0GJHt7gfRCAkDbWYoEoPTvGIK0og3K98GuwzssVzNs9y6+T/OCWsEwfPTwBheGiz/8mC/EEKGHH37Y+2Lz5s1uD8Lz3i+gJP7VP2n4eAiE8ToytgcHB90RGFKBdevW2aFDh2z37t0lOxskCs4kCMDxG2Cfkr1799rJUyc9DT8h27Zuc38hrDrhOub9+Nqkd8cTBC5H0gNS0Petj77IEmYhiTMDR2zD9lesuqba1j3wOautarUiqxScg9BYkyWTrGF0YN448l2TlobRhUAK4U+Ab2QMyrPFtJqaGluzZo1l5dEvOk+6HGG6XHp5uWPzHKLNR8vHC1pg7kAQY4V4WUyAVi5bV99pO3xiv1QEU21G2xzlxLFyVjMEZSWbzyz8QS79CFfhF/hBaGAOCJMnT3ZJwokTJ9xYNBI7r0B4JP39BAhE6QCwO3funL399tvO6OKUau7cuT629+zRzE4eLLu7u0uwZwkqtjfsTQJz0NLS4kzBe++9ZxxI1NjDZMeOHf5d9PT0eE1cKJwybp/QK+PhNlggzPn5WjnCN610ZgPJjKAg5mBIOzVu3POWHe08YiuWfMomNU6RWhK7pBo9g0qCv1DeeIDMWGtDyiBcQ4/BIETkigQBSQKzLTz9RUYgxhQfz2N8Da+s3EdcCsCM4OJZf6wyyxbzdkxOT852nbaVS9eIMajTIQQA1uDbV6hywn8RaxAviRUwTowwBP7MXlE1sD8GOu/IuBHH8/Bk+nspCCARYMy+9dZbfgDbFStWWFNzk29tDuHnGokCaoTDhw+XXF1jf4NviubmZuvt7bWmpiZ3IkYa3wRbo7OHCffpN94V+xqGhBD78lJ1S9PGMgT0wQovIEGU6ZHcqLtckR7XIZ8nOvLKkqvqtZ2HN9jm7e/YHfOW2KKZa+ROuV65GB/KwKZMPlSCNUNYwZAgA+6nYdQhkDqzvw4Qx9nsokWLHHlu2rTJpmuL4qbGJidQEQESR4biOl5X+Y/y/RNct6Avm9miWNDB/IAdOX3Q6mrqbf4ENlxJlj6SP37nyazCn/ef8pvKpvvBWCk5V9kQJZacvvzyy26P8OlPf9oN5aQJTxmEEUBe9gzGateuXdpSe5Ibf8IAAMsojYnjl9Ujc+bMcYNcmGF2N0WC09bW5nBGkoCX0fnz5/u7YAaQGvBdYLjohqiMBQXK9L5MYk9Mf8YXBFh5ELp75Pv2BEkMcvo6q5k0DNkJbeP88jtftcaGJrt/+SM2obZdz+ElUQ8jkFQIaCEWFtLCL5KFNIw2BFIG4TohzEwJQgXifOWVV+TgQzuPSe0QA0QtMgfjeVaLQDF+sMR+pRPUC90D5+z46SPWMXOhNWYnXgJ5RGgh0IrIgDiWqNRIUJIkYAkhgzCxogTRNhtp0Q/jGc4RUjcinjdvns/22ya3WSFfcC+h2AyUS2qAJUd9fb0v7UV1wDX9wUEfcKBuwziRficPm2qRTiCdNEL5s5ynYRxDAKmif8bhu3Zc6MxBwbqHz9r6ra9ZX/9Z+65Pfcnaa6dbjaQOGRkm+kMMDUcFEa+kY+VWjJSUQbgOqIMgQaYECFVHR4frXzHOwqlPiahdxzsq/1GslTEg0vesb5jPOHzKgYjk5SHtTF+nnTp7ylbI8Ulzti0YKYRMAQckjYyoIMEMlKi/pLSEKEUCQxwJDMsecX2NqJxlkBzl95Pi0+giCCD+JwwNDrmNAcxu+ZiFwMfxHVUGnl/5WOGgLpARYt5VDKjY4nbc2CcMDQ+VVvfwHpiRGGCY6R/Kj1K4eC+Nxz4EXOuosRFsB2gP2AEcoS3aNWEYyHfbBx9usH0HPrR1q5+yeZNZ8ozaUfn0sC+JFE/Bl4+fFNQSjlx0lqCDGJGShlGEQMogXCdwQaAgusbGRl+fz7JHjL2eeuopTwPhMpojMbvO11Xo46ACPmSaOnJWkDFbPjtkRzoPWX1jg7VPmGJ1xaayNoA4QB8jrEHAACE9IBZyUGqYsUbCX07IgP39999v3/zmN11X/sgjj7j+myfTcHkIAEvUAfg8QALDWEZSUE64yYOBIlKyBx980CUFwJ48HDzLcy5BkPSB/EgPcsNynauYwDt4hnzxWfKlzMHl+2Ys3+HrRXbkjtJQN5IgQl/UksWC9dqhzu22eddb1jF7ka1c+LjWMzXLDxJqCY2XTI1WPvO9UwjWCsFU0RNAMdwIqObiC12n4UZDIGUQrgOiIDkCMYhv2rRpdu+999qrr77qFtycgxTjoCZPfOY6Xlthj5Z/sZyDGvjY9auZYqGYtw8P7JTOut1amyfKljGZGngrIPtkLWcQ/MZHf5Qxwpk4whGYEpAaPPDAA/b666/77BbjOnTnabg8BIBhJPTkAmbsVhrHKfcIx44fs0MHD/k5yBm4MrYJrHBg3K9ataqkSoPJQFWxcuXK8Ix+Y3+RUH5eypCejBsI8EUGLCBJkX+fpIArq6xHqoU3Nz5vtfUFW73sIavOTtJurnKYJi+ruEuCrSgWNelSdjysOmYIn7juKQSUG87T31GHgLB1Gq4XAiA8DgjikiVLfIkYDmROnjzpRXMvIt3rfVelPV/UTozw+9gmsygJ5sCtkIUYsD/otIPWee6YzW++05prJst6mS9f2fxDx5wwmCxe+N2TIRwJinD4RjiXw8BhC4uhclnVwIHxHcsfY4DQRUYiEr14L40DBBi7SAFYnVB+QOxrquXQSoEe9f6gDxXYehs/CTiuimOcdGBMWR6UlXsxcB6PmJbGlQsB/5b1HbvVIIQ6Uv/AO/pl9E4Qb/PlwppX6blildyhV/XrYkAY4rw9/+5X7UTXeVu++Bmb2brA6qVYqJKUoSDJgWUlXRQ+qdFw4fkaHys6iehgZBgpkfCRhJCc/t4wCKQShBsGylAQiBZR7Ne//nWXIrDsq6Gh4QIkeYNfWQHF8aFGNj85R7QoI6VDxw86gWmbMFmfs9gBPvYbGJzxShAFsIdY4bSKvRqwzkc0TjqBvBCveH0DqzGmiwIu2Bjs2LFdxoQ1JTUCjQJWZ86cCQxuAmdgePbsGakl3vctuFnhEJkAZyKE2CmPAEORhrELgZHeS87KP/OkWRd/0qUVz3qkKDzAdz9Y7LdNezZIurfbVq9aa3fNvVPbvAfyk5cRa0a+ZMoJ/sh7xy7sxkPNL+7b8dCmW94GmAKW37FsDOMtEHA8bnnlbnAFRj7kkTN/hS7ZgGXXrh3W3NBsUyZPK7EQN7IKkTBRJjBGRI5om7X7MAlxnwzuEbCmT6UIDgqHV4QJUoOM3GIDT2wGgBFqAg6YBO4TgCP3P/xwrzO+rBrhPvm5B0OA1AHDRMqKcPeH058xCgHIRPJ9E5U+db4pRAnhQJIYTQ6UKB8GsAZa3aL7e07vtFc+eMHmzF5sDyxeZxOqtBRcf7JOCWpYjZ80VB4EUgnCKPQJCHPBggXuhMZ9I2hFA4SrnJiNwmtvYZEBY4AgCAFtFKxfWzsfO3bE5ky/Qzs3tjpCuNGVLCdAwJ3AKpKlS5c6gwCzhlTBbUF0D+IWzz3zbf4DLKJDJBwboRooEXa6VZ0JkwXDRV7RfI9ZORJVEoAQ2NMXHDivgkko75vbHMxjuPllc8gyxiB86YGox68/fPniHxgkupXBlkDswYneo/b29jesqjZrn3nwGZtY26Z72t6ZfOgPEl8ZYxhI47bqZb0/btt40xsGYoy+EbDkZvkdhGl8hoAqAm8QWIPwm7fT505p69Z+mzZ5ujZeqREqgIVI8t8gYICMOKJUgBhCBoMAk4YRHTs/0ifki4TsBr1+TBcT4YHRIU6PIPiBqAdCT1dxDbFHXRMYq0AOkBCQThkxcM6BSo1lvvE63k/j8QGB8AXzG494CrFnzOhIaH9vvtc27Hnbjpw4YutWPmHTWqYJF2BhIDfrsj/QhyusABkaGUe6SEOFQCBlEEahIyJiRDfL+u+du3ba/v37S0RsFF55C4u8lGgQRkD2BycOqF4ZmzVtruKgY4xShhtVYQhYZAqI2f8hEqm1a9c6o4anP/Ya8PsJEbtR7x/L5QA7DmAG4xTHLQg+XtM+0rkmwOjGe8CTwH3O43WEM/c45x1pGMMQKOs+1Ibxz2f/TtwZGzo8H9+fxoR2bx3MDNruUx/Y+7vftJV3rbG7p6yQMyThAY2HPMsetQya3V7Lih/DQBqfVU8ZhFHoV0e6CVJFvD192nQXd58/f14fw/j8HHzGUAZLrYK3E2eOWU221qZMnDpqs4RIvIC5EzGBlzQCs1x2fWSXQlQ90R4B979pKCP8Fw3JCD+IOzCNhB+YIUWI10HlEGwWItNAP0SvifE7iOWlMB+DECgbG+CukUtIh5gBZwz0vY3cEP2X7Yo2YTrUvcv+542v2pwpHbay4z5rykzQM8gRJT0QY6AfyxfiDqFjEDa3QZVTBmEUOrkcIUKkHnroIfcsx9bEgwOD/kaQZzwiwh2Fqox+kU5shR0cQQTCzEVfocfO9Z2xiU1tNqFmoqMF0Ek5irmRlYswj3EsG1E3TBrGoix/ZAbs9UjgTz76YUz3QWzsNcbALMItxhTlDFdZHIuPzEC8DqqHwHCUP19ebsybxmMVAnzgHDDXfEH6lpkVcEmyn+rrJs7k7FTPEfvWO/+lfRfy9sjdT9r0ppm+S6PJLgERQ8AUSK+Sx0OCCkpDJUEgZRBGoTci4ScGmc6aNcuW3LXEt8bFJTCW4RF5kmdMB33YTvT5wMEO3pyi9Q50W/dQl01tnyHmoNYRCu0M+sab02KIPrNZNhdC3YMU4cMPPyy9PMKevqANtzOTUAJKepJC4JIQGMFTfOqBRRjJiNdUljTmqobtrJwhvb79Fes8dcyeWP2kdbRrSSOeDXzpc/KMigtljN6kYaR26dm1QiBlEK4Vch/znBOchDkgGwwBy8Ew9IqibtIhSJFR4HpsBmcPfCIRmAOGVNG6es9YjzZpmjNzvhgEnOYw46CFoJebE+JMF2M6NtDCSh+DUaQJwJ37kSlgx0HS0pBCIIVAGQQ+8klE9kB5RngG6Z5kmaB9V4YKfbbj8BbbcWC7rV7yoN076z6rLTYI2ek5GIQYuNR5OLBYKrsX86TxLYdAyiCMchcwS8VKHMtuLOuxQyiJuhOCNLYJ00UzAEkRJDi08z1ntcZ5SBIEiRY1f7gVIUoIeDeqHvZogCHAaDE6/4n1Ks8b09I4hcBtD4GP0O2oHkhYfd0vVuHNYFh/PXbi7CF7b+t6mzFljj2y9DNiDrQhGGWIEwAveKzIrYBI13LHgDE+8qLbHvSVAICUQRiFXoDYQPQj0SFGT8v6/Pnz5xu2CGzqdHG+UajKTSmyhDKSb7wgI6Xz2sY1W5vRGnv8HwgJ6B6zhZsaQERiCAj0B/s1PPbYY775EJIc1vbHfiLmSEMKgRQCl4IApIIvPfw50Sebf9h5TQYGrXfwnL2y+XmXzD18zxPWUDNJtyU9lPtkFjNi/cPXGKQFqCQogACTkIZKhEDKIIxir0QGgVdgHIeoGw+LzGbffPNNJ1SRSRjFaoxy0XzaCWdApIO29g/2SXJS7asYQCweFAU1Q7gc9V+YEi3hI0Q4z5071zclikaLqH/SkEIghcCVQADmIAnJJx/UBqgW+u2191/SyqWDtmbZaps78Q59dCIvUuMRqhQjQUDWEJSSSUyBqB/YxC0NFQeBtFdGoUvibDTqwLmO53j2Y68GNrrZsmWL2ycwyy1nJmKVLpUW71VMLKtk9myv0q6N6CGLOgYkQRjuz1l79SRtxlKvqkrXDyIQUrmZA877QUgp9gcxkpxFixa5EyXgH40WgXX5UQ7fKIUoT7sl52H65XDklP3vBtU+DvdGx4oSwZits/KK8yBoDzjpSg76qXSQWYcCvxzkouw0pBAohwBDi50ZUQcgAchraLlRYnFI43DA3t39vG3Y8aotv2Od3T37AWvINMkhUuKoF+mcCqtWrK2ZWOToMoOS3IBhGodq+UvT81sOgbRbblIXQJwgQMTMYhcvXuw74UWDOdLxulgeAqddnlKB58gJVXcQAD+gj2FtvjI8NGzNddooyb987nqOimhAlOSgcnjllVfs6LGjFzARVBKmIDIGMHcVERIw5gvDgia7Zwa8ioUH51n1g8lBDe5tszqNRD/APnmYPN4XxMpBlIYUApeDgO+8BN4KGcKkBWa6IB8GijN5233kA9u49T27Y/YiW7vyUWvQroxghAQrlEouH3npwCuBpaJPKgTzVTSMbljlYAI4IDhIEVA1bN261bq6upx5KG2RqzfyIWJZX/FBX72rISMGUYWHhwbdKVFzC45RQkgmqvHylsesaKAP2CPjlZdf8e2hI0NQ3k+xogExxqtbFDONk2OZjKg/dh7VkgTUFIe1RmTIqnLM/WEUZBSroyg1j/Zo5CxJjezExXHA/An+9+fHwKjztqY/NwcCcey7/AD8pTFV7dS+aEfOHbY3tAlTXW2rPf3w91uDwRykYbxAIMUFN7kn+dg4WNmwevVqX9WwY8cOr0X8ELmASBHK0zyhQn8gQ6qs1244N2SDYhKaG2EQKhddtLe327p16xzG69ev1xbGZ0V4LxSwR/jH/vAG3qofMYyhPvpscTiDCsHrK+ZA/u3z2u8ip2ukOFXi2pAoFNQntIieiTFCHzcQu6Brgvg4mpHdqiam761ACITP2j9llwq4vjBvPYVT9q7UCuf7eu3RNU9ZewM+T6RyrOBvvgKhW9FVShmEW9A9UYowY8YM6+joMBgEVA0ECEA8bkHVrv2VMAfO1LAd8LDlNaOtl4qBGSz4hVsX0KNrf9N1P+l1SpgZnFg98MADvuxx48aN1tvTe93lj14BIuKyocjLoKtKluHejqohKRQGbEAe6/oy0gZnhiQ3GPQ16ZB89++gCgH7C5iE5Jo0jhAuvIqpaXz7QsC9JcrQl5HBGPJxpJ9hjbENu162fUd22srFD9u8qQvlKRGFoqwMSrYvty/cxkvLEyuS8dKcym8HFv7Rhz26cLbNxbvia6+9Zp///Odd7UArYBKiqLvyWxWIDMiDs+H8kM9ca2rrIFFJaiRDIZcn3qIfZjjOtqgqbBgDk8Y+DThRamxs9FUO+K2otIBRmC8XkyigKFuDk12H7dWN/2UnB/fZ6Xy/nc2fs//e+G/2cn6yzW2605555EtWK0YCaQKoPc4GIhtQjvQrra1pfSoEAs70850w8hSEl4Yyfbb92CZ7ZePLdtcdy23FgvutKdvi0oOC2yRVSN3Talw3BCLOuO6C0gI+GQKIr2EOyiUEkydPdoLEboNsTRwNFbFTiOefXPItzOF0P9hWUAuZLlmuMOQVqs7UKR5hCJJJu9+71T/OfEE0BWfOFy5c6Iaj0R3z0FBow62uZ/n7gyzGtHQUhF0lz5ATraapxg6f3Wun+g9r97yzdqxrj53oOmgd8+dajTbE8bmfqyGE4GE6VWD5MVJ+TAUljPTZyP307HaEgDOT+gFnSUSg1YgDdrTrQ/v2O1+3tkmz7NEVn7HWmjaNrWAq6/yE44TbEVrjr80pg3AT+zS6841ECcJEgDjhH4Eld3v37nXreYhBudHiTazm1b1KTXB9NkRFSIQBVZSVvW/lWs2+70EjyW/S3Ksrf5RyO8IrKxubkBUrVvi+DfioQO0DkxD7KGaNzF15HO/dqLi8buXvQRCQBcaSINQImPXWaHd3yIV07TTLDFfJYNF814t50+bZormLhM9Z0kit+MECIVghUA4jLx46Ddk8JWUQgEcaRiAgoadPbPLFAW3CdMBe3/RtLaEdtk/f90Vrr5+t1c0wopr4SBqXDKSRh9OzMQ2BlEGogO6DCN13/31uUb99+3Y7c/ZM6UMrJxYVUNWPqQLkxrXiIkM4H0L/XaPfoL/kQSYhlRgi44J6AXsEPF4iSdi3b5/7qYh1Ll/lENNuZuyaAmAs17aEjGZtc9sW2pKZq62hUGvV+aw1VDXb6sUPamVDvewQ4ARgChQc9oGJg1GgV8IRGIWYpUK7yJuQ/tx8CCB8YmdmXCn3DHfaOztfsWOdp2SU+LTd0b7AqgvssxKYyioypmFcQSBlEG5xd8IccNRJXw9x6unpsR3bd9jgYNgW+uIZ7C2u7iVfX5qJOqWVGFKzC1EftQsTF5BG5ZEd4BqZr6pkOSlpcc8GHFqxsgH7EPLBHOCVkTx+7m29JDiuOzHWjfdyHg8HI1yWGIS8EDaOZhoyzbbmroesUXFdodHunH6PzZt8p0zF5KAKF7d6HsdJHC7qCeKepE/ol3iMVLvyemukbunZTYYAPKUYzbz12s4jm23r/q22/K4H7J6Z91l9sU7SLI0WN2IECyiIIQ02L+Ey/R3bEEgZhArpP9QOOO7Byx/i7RMnTlRIzT65GheSGBFTTTsgahkRqPIwijS1/DVXdX4pqUBTU5M9/PBaX4r6xhtv+PJHd9mcUE76KjIXV/WyK8zsZTuDlSBdPUc9XYEjcS48AksYfQGjkPf0ibPtnoWSIhTb7K4Za2xC3TQ9UKt+qBFiz9qw8uY5QOQ6xOmoRMVMD/GqWJIoXGEF02y3DwQ0TPJaJXOsb7e9/Pa3bPa0xTJKXGtNYkiRDjKUcM1V4jMZU35x+4BoPLc0ZRAqpHchCujB8bDI8kdWNWC4OJqE6IY1HYpVFiBdwTBhhMCV3a6Y0zgzjzDmmkA8aVKbrV271gnzc889Z6dOnipJEsgf845WY0C+hFg3mBKI/IAIfFe+VisXqu1wf5Xt7crannMTrHna56xh0tM2XLfKDp6rtSM9BTs1YHZe2p4hdQc+OlH8BHbAS+bH+YQR7F6WFE7T39scAlo8a8fOf2hf+cb/tqbmyfbQ3Y/bpLp2SQ4YnxpYSAxgMMWoggUwnk0G1W0OufHR/HSZYwX1I0QHz3733HOPvfDCC77s7lOf+pRvFV1B1bx0VWASAk1TnBA3JhMVGiLhBebxvJzwcz59+nT3tgizhiQBhgEpT3m+0WAUYpmxXoAQldOx3pwd7hq0zm6zU+fzdn5Q22oPFK0/V9T+F7U22L/MOt8uWGP2tLXUZaxJKzWntQzb9OaCtU9ssbbWZrm/zmp1Q2AJQjeB1hNkTxfGPqzQfkurdXMhcLbvmL323v9YvyQDn1r9aZszab6MYQPZCCsaxcqWTxCidOrmVjN92yhBIGUQRgmwV11sgpgRZeO8595777V33nnHiRQMQ1weGQlaJCJX/Z4b/YCISlFUhYkD4igXMHpboDbREI5M/IsYJ/ludDWutrwIR56LsIxxLAuYz5s3zxmC119/3TZs2OAMA/YJMbg6RY3y8qpy3v6CLAAyam9QsOiEVIdJENghksWZDJtceTr3EM0KXsAJ40LKGBRcz8oUZedRHYeLWsI4bGd68jYkhmAwJ5WDkLEcL6t+epNEvgC3ZxDLBE9VoYq15KG+rmjNDXmbVD9gd85osqXzzGa1ZGTQWKVVD2zCK5fMee3tkKmXUaasFbIYnlFr9nSgR7FfwI4BWHEnBlIUPnojpKe/lQUB+sn7yocKo7I0/HwI6ibWBkgEtFjZzg9r6fX2t63z6Cl7au3TtnjG3RptNVJdoT7kWZ7SmE4MYX1oXDhAKqv9aW2uGgIpg3DVIBudB/jYcKKEKBnCdPfdd9uxY8fsgw8+sKlTp7raoZyolc9iR6dGV1GqMEMgFRBAvKkFYsKGLtxxxMFZKd9VlD2KWS9mCC5+FTCmL+644w5nEl566SV7++237ZFHHjHsFPx5NbwK7oi2sZulTlzFIkTpNJ/GJ4Qf6hpwtPLopKgtF6vk1L4gYu8JAl9RdhuYp/bKDcOWvb32+geddvR8tfXKIGwIQp1h6agC5cbAua9DF0vg6YER4TZVOz+YtzODWeusLtq+Yydt84683T232R5d2WITtSV3LT2WFXFQnarV3hh88yfK8HGpgsSQUH9/RczkKVT8IzdKOdKTCoEAfVQKgT0IRF7jhkt1ogsAdMYOjbuPbbOt2zfbyqWr7e55y8UayChRYxAewMdAqc+5Kl2UnVFmGsYyBEYwyVhuxTioO0ZoECMChKe2rtZnqxAptiVmdUO5yLn8vFKaD7LhrzoD31m0nFwuMw+NhoBgjkofcBGu9AEHdSeeP3++qxiOHz/ukh1E/rkcWn0FGqVD8yodxIk/CL8IiNgxbwlBY0+Qs2JNXtCBSdB22FoiNizk26Uit58ctH95qdP+91tn7cOeBtmPs1xUfjGuAXhZGR00yAVurXwi5Af7bEiU4HB30Z7bdsb++CsH7Ntbh+2A7BXODMkxl94fVj2oVvQd3IVUF5msGAOXarhZJN04EnCrGxo9kpaeVSYEkn4q+oxf+EYGqiXnWepG71f1uRyl29GzR+xVGSXOnTPPVi7RstmqRrWJ7zr0d0mrcMFgqMxmp7W6dgikEoRrh90NfRIiBHGKcV4IfdKkSe6857333nMnSqgdYh7yVUwASZSqI5cpWt7I5bAzCEktlRAn0hVT70+oCMxBXLEA87ZgwQLrH+i3zZs2ez+x2VZzC6J9/eugS2ARAhmFweAWwIGyJ4RUZ8CGm9zLaWvsKon05efITp4v2Lu7+rTW/IyMELVHY1Zl4ypZaoKs6iKBQ/IwBVxZAOZZiLj+i2JCCirPlQpa5ZDLZewb6ztt/faiLZlVZ6sXTbLZ7RIiqy4yVdADOoEHEpaAQeD1hFI1uK/gk0/FtDINlQsB+L0QAgMbzjFb1VjVGMlKfIBy4UT3Ufv2G89aa0ur3XfvWpvQ0K4ckAq+a/KGJ0d+YwIjIR0FI3AZ+2cpg1AhfRgZg8gA4HUR4oQOnCWPmzdvdnsEDOfIwx8fa6WEWBNQRXVGM14RwKHcRb4cYqZKqfRl6hEZA25HWOMljlUmS5cs9bR333nX+2flypXW0tziVBMLbqy5A2MQEG9AnUlP6QIQcB/b72GpFjLVNTIAM9t7st9e2dRj248Urbsw0YbZ0jmjWb8Yxaz+8mJQqpBmlMj0ZSp/cTIvE9JmBURObYBXyKJAFrMwoPrmpbLo6x60Ezt67FDnkK1dMcmWzqmTzELvEwMQRc60AFh45XlHaJi/jVOOlDQ4OCr2JzJyjvQT5i7YD2ATExjWswOn7cX3viVD2BP2hUe/y6a3zlW/1ql/g80Mo4nO9pjzErfACCilcicN4wAC6TddQZ0YmYMo1iZG142RYl1dnb344ovW39/viDohORVQ+0AQI2pgBl2TrZW6pNoGBlVX1TAyP15ZEio4UFeO2AecRxfZ9A+bON27/F53aoW/Cjwu9vT2OSFFxeANhgp7CGwciBM8GnApAJCtiYhzjRipASHmnScG7Nm3O23L4YJ155vEGMjIUZkzRRkJaofGYpYdG6WqiUBOSr+SCMagX9XJU56kAhgwYlMAoS+ICRmSoUSuulrSikbbp9UR//nmSXtzl7byzWe0KY/e4JIECpA9ht7PHLNUjbK+LKVdSaXSPLcIArAIOrBXwehUYyAM2NB7Pbkz9vrWb9nB4/ts3X1P2MIZS7XZV6P6W/k1+HxUU0RZv4eGkOB3w2X6O24gkPZqBXVlOWHy2ZrqRlp7e7shzj558qQvfaygKpeq4gOJGabQSU22zu0pBnIwCCMYJbap9NDHnECgOT4pQILJd3HZXGP0ebWBZ5wpkPSGEMuNabyLPTLYt2HVqlWGa+xtOz+wHqkeILqBomo25lWnDGbilFQeVF9lzSn/vs6cffXl/bbrlFYgCBnntRNTAVfK2s8CtQJ2B1XoiqUZhmm42uArIrSkIq8y6IsMdZQEYVgVzKqNYcVEXlKMop3TsslTw032PxuO27t7zsowUssr/YWwoxifMo+EQUjgGuiKk4bk9Gqrl+a/iRCg/+D3FPHvPZmkSMXVZ9sOrrete9+yexYtt/sXrBNzMEFjD/sXjWL98HkjUXLjYxKT1Qs60QUhfDPxKqSlv2MZAtnfURjLDRhPdYcIXXzE9rW1tfmWxOwPgFQB+4SoH495nJj5hxxsGWL6qMYgDSeMMdYSvHyffXhsp2Vrq7SsbqmQUo0QEm1z7OL5I+Glbjwfrznv7e017C72799vLS0txrbYpJczDDF/X1+fu0RGwgJcCNw7fPiw+y6YO3duyfjTb+on1jdel8fAtDxcKi9pHPQBDMXm7VtUt5xNmzJNqwCqxRyotZque5sFH5Y8BuwKsGAOqqxb8Nh1Mmf/98XjdqSrzgaqG8QcZCxXZK2CCLH60d+jmTwIt0rP+bLIBAmX1/Hjzp0oiDkg5r156ZHFGugRpYiJSc70PrUbGwW9DdvLU509NqG1Rr4Tan1jKJ5XI9Uur40/7wRCTAvsAyH8+mn6U4EQcJUR/a6OciEXJ+r3nNbH7Di50V5+/1s2b/Z8e+Lez2r75snqT1SFqBZCYzR8PPgYKDEH3ORGOJIsIWP6O+YhcCE2HPPNGd8NYK8GtodmVcOZM2fcpXFsMUTRiZm+V0f28cZox2CNBIHwKohFbbV02Jpld/efd7QBCYE4+Z7yxExFyFt2zjXpeI/E/wMBfwO+eZXaSnCCqWe8nZ4iC32J/GEMdu3a5c9DsNmFEfF/2+Q2q5b4/OIQ339x+iddlz/HOYzL8uXLbdHiO23T5o3arnuDdZ8/bwcPHLIjh49BT0PgKxORhqCyhnxYRHrv+Yw9u+G0HenNWq62WWqFOjk8Uh4xCXlxFMzVMwX8KSjGMY2MCt3fwSdV8qL7GdWTXR4RE+NbITIHMC3VupdVfXgPM8Uo/chpk63jA3X27XdP2f7Ogha8oRRJiACUhcM3jEo6nvKT04ten15WEgTU1wUsXelKj/B6MGzHZJT48pbnrLF5gj2w5HFr0fbNWVdDkFGDmM6lv0sxEiQ6nCMZFx7rMg3jCgKpBGEMdGckpBjJsZkQ20Izc2bXQQhgJJw0BcJVTkBvTvPK3wlxy9m+U7vsdE+nrVpwvwiciI9mIhkhqPK6xbqyXJCZ+6lTp1xyAGMA4cVrITYX+IJgp0WkCTHACGzbts0OHT4kotzt6peBAfmMl+8IpCxIEIAVjFRXV5c/69tnC5+V1yGWdyVxOZzJT/3pk7b2Ni/zg81brb+33/ZJ8rFj94d29lyXmKUaa5ZLwwwUWTP0Ia0iONNfsG9t7rUtx3LWI5hgKJjXyg/4CRQBzNbZqZEDBIxvBL3Jz5EkXE2AN4HJgDFgBQPMmlweiDkQO+AHCJ436j06+GWpY75KDMvAsHWd67G5M+TKuZ7ndB/mQLk+Kl4m7Wpqlua9JRBQ37JSAUEQ3+mpweP2jbe/amd7T9vjqz5nCyZhdyAXnGIkqvRNBrWWBopyhxDjZBx4p6cdf0v68ia89KPTq5vw0vQVVwcBROuRqEE0caKEw56ZM2faXXfd5YSKEi8mYFf3lmvMDaIRzvAZJHhCRIRVDHV19dZ3slvIqIygCTkRqGe0G4Ax4Hrnzp22detWb8+dd2o3QjE+LC1kbwruf+tb33LDQDazIr2kbkjwVfRJQHlIFFA5wEQQyE8ZBCeB18hEwfpEPFkqT+W2NDTbA6vvt7p8ta82GRyWmxk1u6u3x/aLWZk7ExuSFdbcPt16VIcdx87b9v191jdcZ4VqSRDoX8GpToxCUc/K7YCCjAepM8yVYBrE+WWwJMsVBFQKeTEGzACrEWnAYKg8mAGgwZp4Vx/oirNcwqhIUSK9dLMYvW57besxe+aBGdYqqiKnjEkI1gjAk7qHEGAcc6RxZUHAu05ji/4uSK3QV+ixl9Y/a/uP7rSn132vLZp6j1Wr/4vym4HGqQodFIe+KcZKCDH2QfrRBvKSmOWjd9OUMQaBlEGo8A5jlkqAIELoIHwLFy40HPawPwB6cDwtQrAiIxGJ181omtfvIqSQ0Uy5TuL3QS1zHMoPWr0oXiAhISP1jLp+HA699dZbvpSTJZydnZ0+66cNwyKWBPIuW3a37d6z29u9Zo12LEz2dcTsZgAAQABJREFUrOD+gQMH3G6BdOpD+cAHRgMbBEJMj+/1xKv9UfWpV+yTCGfNs1THWlu+YqX2TBiwbbt2ygIxp/Zr9cHQgG3fedL2HfzQFi5/0KYuXmVvbRmyXjEH0ieIXgcHSBnZMMgRowLlC17iuApIHdx+gFT5S9BdIHg1gXJgArKCi5N0vYMy8LiYk38FiDuWCbwaCQNr3V3So+WVOa2mGJQvhk37ztjCWYO2cm5dIscgdxmBcIIAM5aiEwGhcoP6qajxVJCTrv5Cl73zwRt24PBue+iedbaiY41GY72+Hb43sY8MEsc99HNZX/vo8Q6/dDtdwsX9j8lz6SfT1AqEQPpFV2CnlFepRIREJCNhYoaMFT0iefT169atKxktMmuGkbhZwQkmLwOZMOPVgb67WbNq6nuu65xNaJtKBh26rwgizT2ehZhjR/DUU09RijMHUeXgCclPa2urLV0a3E/7Ox158bpQRiyT7JTtUgM3qAvX5IvPEV9LiM/F2PdhUJv4g8LCvN1z73I7ceakdYtBqZJ6oVqz9bbWSTZj1kybpj02dh44bwdOC0ELGWckJckUhqxWSBsfB4h8sU+QLEHn/OF6e0DIWioYbxef69V9slUiBkFqgA2C1BbUVSXDGOQlVciLSWD5JAZsGVY2OKPCud4uKtEzBDPXaNsPnrcFU9tkd0HvihlwOwRvNsoLL1M/aahkCCSf6HBxwHYc2mLvffimLZ5/tz12z6et0Vk/9ay+GfbgIGQYa/pW+HJHwsi340zEyI0wznwsMFpH8pVnSc/HFgSuDtuMrbaNm9pGgkQcmQSkBvfdd5+9/PLLbsjHkjuM5nCLe1NDgj3QWzPhpY78TWiUgaCIYOfZEza7rUNVwghuZLjFdlBn2oEk4bwM/LA1IJS3lWsYH9LYF4EYCQHSBgKOpLq7u914E8aAvBg77tu7Tzr0LmdC2AALA09CZE784jp+vKWqC2JY91Gg8+raOq1kqLW6qlqpOprtrkV32Lw5s22CVEPHCg32zltHtAlTg0S4iHkHNbvXTL2AGgE1gNI0A8tntBED5WoW78Rb0olcXmoS/cE2+HtFwNmqCXSOl8Mqzf4LKqOIOkJ5WJY2rKWSot7+hApU/wTGMY8DJt6vPFVKqykEp0jkpD6SMCs3aWIYJGtmp8gPZC9xpxib1pm11oj8WcEJhL+OBy4kI57hop+Pg3tsF4+U54vnMY5Fck1gLFwcWIaH9f3FZcZ85c/EcsvjmE9A0H+AuQrzd8X3kofzcsa0vNxSGaN1koAbCVGoJb9IcVDq+ToYfzM95ZN6xe5No2rQDp/bbus3v2AzWqfaA0sfU3+2aWwIXoJlGCHYHtBuWk+5lwkfuUGCv/EyD6TJYw0CIxh7rNX8Nq1vRELEqBrwjYDRIr4SuCawDCkisoj44nOjAjbhBcdX/Di+qtJWwxPkrrdZDMJJIaxhIRmQVkA55Yg14HftWnj2rEtDMCSkrkgWYj6uMTS8//77bf78+Z7OfZgKAswBxoIwBiyRjEib+xguxvJ4Jt7zB6/zJ8I0EGhINUjVbNLEyfJ6OUf2EwutoV7LBGWPMaA2bJRq4URPUYiafDJHFDEGIjgzkqJBHaf9GTSjh9hmhNUxSKRMVhjkRcTd0BGJgBsK8qYwc/fSkEIonYM2ZjQGUEuoEMGLIrlGSkEX8UdQr4gb4ACtQ17Eh7jkgAwYJcJoUIfTA1W242jRlk+r0nbScB0wJbHj9TQFQh8uE+ibctiXYFdG6MvHKucxxHSuYzmxTy/OQ7ovp+WGikDKw3tJj+WUj4NYDnF4BNgDjRDIG5Z20uSROnE3PhPPY7nhydH+jQAvB3pII0WaK++PvIwNtR+YwyJXNWSdA0ft+de/rrSsPXzP4zaleab6nrHHPz3Ng4FN+Lj+VKZLBF7EkYbxAoGUQRjDPYkhH0sfYRJwxQyTgE0CoRx5xSZGAh2vb1QMSihDqboqynCvRZbvzXbk+GFdMadJEIci6jaCbEeYAeq+YuUKm9Ay4YKqgXi//e1vO7HnORD+tGnTfFtsVnPAXCBZYK8E7pMfmGDMOX3GdEeOFMhzhEvBxm9c448TISFcJnOof9Y+/JAkOUgyhJxFYZnn92oyv3XnYb0c6QEqFuUXFmer5SohbowIcVrDjD4Ddi9irIizJAgexN1ZCT0npkF5MDykXN+rQfBlNbsblKkM2ACKQF3BaoVqqSisSlvwIOLRP+xARgwHJTrTkMklTIEYAjEFvpxSRJIlcJAKxk1eBe7df9p6lk63iY2qJ93J4USTk8sH+iSqvWK/sxQVpo4QxwOxE2Qv/MJ0Z2lUd8opzxPHQ/nbYSLi++hz8kcmITIYMY3n4rjwssqYgwvKVhO5jnXlufL6xnuk35TgYgGkQhrTGnj0OQapjHDUQ74mRvDKabcuVjbSiwNVp+yF175qvd0Fe+rhZ2xW+xIlJ7uDlir98X1Zypae3BYQGMHrt0Vzx18jQYQwCcyUYRJAgAQQFgEkVkJqIcnTR+0nwS8N1Y3W2thqJ08flztf5sxCXH6vrBJJ3hISl3oER0Mgb+pffkQET0x6fAb1AjYLqFxim4kjIRFevGAGGPPcyPbHGScgh0kIS0+JIetB/XDkRM66enIi43JhLD0/c3/lVkdJYsKsX3eCiJgZLERc/YY1uQ53vKQ1iZDsambEehoi4L4ldMUd3hSeUwVEzAPTQioBMg/cPJefu7SBW/680nWPcw7/cyKtd7gqhIbVWFdfTm54pRKh2mRX6YytKwnAvRz2vuQ0ebA8vbysvDayKt0LDfHbcQzwbs7p/3hEwk/Mt8BBvjimyF9e55hOwaTzPtIoL15zL9aDZbexXPJR3q0IJXBwQvf4CPDTpM9p/5D6Um0X83k+d87e3PCcdZ48ZKvuXmuL5q7RnUZJiGAog2rC2wHD4aOTERokVJ6e/tyWEEglCGO82yFGzKaXLFniDAJ6dmbO5citHCHe8OZCER09eaQfEQJd18joaXLLVNue22xd/WdlWzDRERcEE+JEAKkRIvI9e+asOzgKBDYg69gO/Bng94G8Me3QoUO+PHLOnDlu6OjFJZgT5E0oIXC9iudIv+HwUJ1UKP8KOocYqp2BiIqAKWnv4bNyb6yll1rh4esYmdW77j/5BKOiGKTsYnHoPD4uahSLdZAKAcdGLD/0bXp5l8p1OwKdUAWCu1JWXFT51agoyKPeEClVYgJv9Rmn9JP3gSQSBGoNDEn3B5Xm6ipVCWnFsJiZPQfP2b13THVmJLAbsRe9iEv+RHgDeyQ+2I+wCRmBc/o09ivGqKxQITz//Au+lJfxDAP8/vvv+74k+LeIY4B8lPv66697GZSPwSvSCcZRLJtxANN05vQZV0PF57kPM0mMBA6D2QGtRHn2a8/aE088YXgwjXWDMfi3f/s3e+yxx6yjo8PTeX+8z/nNCgHq6i+kQuob9Vgi7aHr1Cb1cVbSK+o2kBfsPnzbdu7dbKuWrbY1y9bpsTpGhOCoMeK2KtgIhe9SJ0mgVI403K4QSBmEMdzzkdiBDPEXEFc1gGAhmiBFEATBESIE4IYHCHFCfJxZCO/IipTNaJ9pRc2ij3Yetelz5qsSusdBJGoa60aVuOYACVPvSNhpY0TA3CdwDcOAO+aOjg5XLZAfNOlELikvtj+WXf4+L+hG/aheeIlkeaJTToh8xKsSWfdJg3Dy3LAYBfk9QAUADGSASB6hcRrvdQ+ME7CUxEXEbVCchdsAuLgfIk6hzGwh4ZBsJ/sqk1ZL5aD30xvuK1/56qVWwEpjSLCplnEBEOKNeREFVi/AxGTlRRGveZTFs3mpG+A6apQO8wFjguFrXusic2IQDp44L3XJVBFgCBLvRW9NnfUwxV8ixP6jP7Al+eu//msn9E888YT99m//tj8BYaZPv/CFLzizC6P77//+706kly1b5n3+n//5n/aVr3zFfvM3f9NVaXE8sByWpbIzZsywd99913p6eux7v/d7Pe25557zZ6kDS14xbGXlD89GGxbqxTf067/+676/xkD/gP393/+9Vs3IaZDSn332WWe+qSjvf/75570sGItHHnnEGZLYxks0f5SSBHOHv7NzOg1jgW5wA1SuNW7wd7D/+Ae2YftbtmDOUlt116PytyEGi2/Qn9ceH2F9rZdxYWUv06EXZkqvxjEEUgZhDHcuiI0AcsL6n9UAR44csQ0bNljrRM3EpMsHEUbkBREY3VAiz3pT1ia3TvHZ2cnTJ6w4NxAkakCdIPwEzjmYvT300EM+ewTxEiIDxH1WIbCMkDTuM7ODwDS3NDsipI0EYu5TVtzDwW/oJ74rXt+omHfi+0ETVD+iGjsHcZUI93xflZ3rlxdFVAYi/PnioGb3esZXKQjBCyj0JLBBhTChRVIDLZEc7BkUGyBGQmKArFY6FOTEZliZq7FPUD5WJUDs8XOAzMZ1zTrPKk+jVDVtTQU7P1ywTi1VDG+gxcCJa+wSFEn8HE5gH9R/MB+qjFg0zzkkUXutVmZgGFlQHc4MsPTRTFs0wNooBLjHyJMu+gHuBPoOIv4TP/ET9jM/8zPuSptx+4u/+ItO8P/hH/7BDW5Pnz7tTAL5ozifvv+d3/kdf+7P/uzP/JmcVBCMaQxTOWAUKHu/PFnSJzAdeOX8y7/8S/viF7/o73jmmWfs537u57zJL734kksefvmXf9k9bVIX6sqz0bgVBoHdVGE0uPflL3/Z9u7d60zD93//95cclUVm9KKmj9plgDpwjf2pThNTAKi979SPw2IOTvXstxfe+Lrcjk+yB5c/aS21sslRz9HXjIHAUsbRN2rVTQseoxBIGYQx2nFUG0QWiR7nGPkhXsXr4JbNW+y++++zelnQc6+c2I52k0HaMAhtE9qsqbHJjnUekx2CHCaJ8vBHiMxNrAsEgKM8lOfBg2R54B7i6BgiEYrPwEDcrBDE+gE5q+EiPgFxZ90roZgDbYt4flDt1h4VORF7jBTdlFD9grMiSHEWJkCSg1qtUlgwvckmTqu1F97VwjSJh1luWC2VjSBogyIC7nhqWMRR5eDnAHUChoUwBu4xUUxJMTdsjz041TZs7beuo30qWzB3qYXen6e84IiqrlYoQOUzRrBpqKF+zgyIiZBRA2L6As95jbPWP5yRnwez2c0RuiIx4kxYNXG5ANvoY0LlQ8Tnz59vSANYffLCCy/YN77xDWdw6X/uc+T1ztiXlEv9sFv4m7/5G3e9/fu///vuTZS8BFxswxBii4IEDQZx5cqVLllDLfClL31Jtjr3O1nkB+kB3khRX8B8Mn5oJ8tjseWJMcwmzAISOpgE6sQ9xh7MB8awSOvi9+WVuQk/sHiQeEfggo0zfFzBJOgY1lLZk/2H7P++9P9aRptxrLv7SZvSNE9jDVUCQ5Q+4Tm+R7F6SL+49G4kjYs03O4QSBmEMTwCoAcEkGdEptgjsI8BmxWBLFn6GJmIkHs0fkNFAkqBFITZqGzotTtch53sPCUiecamNc8IiOjytGQ0KneTyiyfpdPAkUYO5hD0ogKAMRIhUgwSx7ZACZIJD0miAHOQt1b5Mm6Sc6T6Qp3Vi8jn873WJL4pWxi0c7qurWmSuqDPS6eceiH/geEhEfa88uEvYUgEVj2AB8vMZMUDYi3y2rBJZbJbpGbdBTwkSn3R2CAxgPI11mecKOdUn0ExGjlnFlAghCBa4vQCklKQj4fuPqRBEBEOvYvoYwJGlhEcbKr15ptv2nd+53f6uGTsRuYOaUE8RzweiT+qB1QIrFZhlv/5z3/evWRCuAkYFP7d3/2dE/qnn37aGQWYZdKxSaBcGIJ+qQ6iVAn1FCtjsIVANQcDihTo6NGj9t///d/OcHzta1/zvUBIow545vzqV7/q3xv7gnzzm9/051auWimzEsHLCfXHAOIG3vIuUZ+zLJax5H40fDypS6VaOtt/3F56939kWNprn37gGeuYvkAjkG8z9GoYnVFtlYzVJArV5ALGMPTxDax6WtQYgkDKIIyhzvpoVUe+aJATB7MwZjuIaTHqgklgthORV0TAHy3relJAOgH1gIL4C0GOjWbfYXv3aeOirk6b3sySwxFicT1vrMhnaXbAvzqBSQp0kb0ZhjRLx1oc73QZqRr8jjKA3EUKbVpbnS1b2GANorazJhbsRGfOGkX4Fy5os9kzBFGV+8GBQSvUZG36xEn23sZDUq9MtFkdE2zP3vO2ePok5au2fqkTdu4+b52nBywzLDF7dliMwoCtvGuCTZuEmsDsw8ODtv9Yv02a0Gyrl01wT46sGDjbXbSNu/vsnIwmxIp4HX21gxM+5AD6k+qiqwfCLHG8/ry5sbuVeqkQxxwxtgUYJv7Jn/yJ/eRP/qRnj7NvmFzy8J74DMSd+3HTLiQO2CmgUmAFCzN8iD/LSyHaSAMIPM/4/4//+A9XW/zVX/2Vfcd3fIfbJsBY/NEf/ZHv+ok9AozHz//Cz1vrhFZnAn7pl37J7VuIsX+AOUEqR5mRieEcFcZP//RPX6Di8pffhB9XDWgYBfgjAQhfHW6Uu4fOyObgVTt6cr+tXf1ZWzp3tRhEGSV6P0XZQyI1iHW9RB+G3uUNl7gZn0vjcQ0BMFUaxigEItGn+iAsDgIiVqQIBDwtko97xOXPeIbR+HGsBVqpsnlTOyyvmdyJ81qOiN4bcea4CxchUEfWpAWkndOyxmFJB4ILW2wHSBcBltFfJj9srQ1yQLSo3oYHC7Zt+3FtFd0lNiJvc6eJgC+daMcOHLcTx7psUccUq5FEYc2SepvVWq39EQo2TRtczptMvgY7tOew5XsHbdmiqVJD5KxGXEX1cI+tvKPJZkyfaDv2DtvhEwW9a7J1tA7brMacTW4y27ztjG3Z2W+NTS325P0TXYKBLYLXH9WFxM8Yy6MKKWpmPzCE4yvuJiGKGOL1JeI4/thvA8L7+OOPO3EnaxyTcXwCHQgxxB+mgdk9NgTf/d3f7YwBPhTYh+Q3fuM37Bd+4RfsH//xH52BIJ3neIayMEr83Oc+J6dV0+2zn/2sLweG2fjjP/5j3+kTNQRLhNn588t/82VnRHgn3w/1heHABoH7MAM/8AM/YD/6oz9qP/zDP+z1pw5RLcb74vd3iebf8CTUTt4fGikaTnKHAfMml2TFPtuy/w3buud9W7n0QVs1/0EpppggOKT1A4NQFpJvNaRwUZ5Q6uGyB9LT2wkCqQRhHPR2REzlMTs9IklAz4pId+3atSWEPBpNBkmBWpgPc+JoRmmNWenTtRfBqe6TEmsPyAXxyJbNo1GPW1MmiLQcsYZawH27CSCwkfEgIRiFIewVemcfBiH21tqsZvoNtufwKTt2ctBmT9JumPVFmzxJzqrFR8ydc4flZLRYIy/Ug/091nms3VYsmacVIsO2++Bxm6nVIs1NGZs9a47VNNRZw0Q5SZKBJEShTvxYx6ysbdvXp/L7fOnjjLaMdcxoEbHtt9xgkx05xR4QuGY+r139mqxV+y2c1ZbUrLiI6xsCMZItiwrNSIpAi0cCbee4PPMXpQTEEGCcWkHMCagCEP0jxncpgqa6xPEZxjW2EBBvzrFFwEAQycFLL71kGC2y4gGbBgi1l6sKIjnDcBcDWJYBo07453/+Z3vllVfsn/7pn+wv/uIv3GgSZgWVx8MPP+y2C9SJd/F+YgLqhC1btrjaA6aBdyF5iG2I9SW+KYEPDngLhFXVyKakOpJqYfexrfbahhftjg6tWFj4sDVqxYIgxwDUoTEo+Hnw53WWXIb+C/2RWDaE8kPu9Pc2hUDKIIzhjo8MAU0AMV4clt691JFYtEcAKUeEd3He0bjGNyBW/LNnz7XDWurYP9BvE+pH4023tswI+RKuLasOk+uMtnSGb3L3ySK7Gfk3AJmL5llWtgC1wsusSshKv18j6l7EVkBT9oFcXioDs03bj9o5kwdGGRT2ns/Ze5sP2zNPzbHjZwp29tygtUwYFgOWsc0fHrXBwkTL11bZQKbet4vOCf4DqBqaZNzYIMZDrhUzKr+/R8aAKl/Uw7K12CaQrh5TVYel2w4Eg4YEKQgzVmgKyx7r6utc5eHNLDU6QsFTL/hhnMaxCgFlRv6zP/uz9nu/93s+Hln6yEoB9uKA6LvNQlIC47p8dg5BpiyYCt3xezAMMAEHDx7052EmOEhHqoAtA0sfURVA5FEvRKNXmABsC37rt37LGenyHUExQCRQJxhspBGxHdgl/O3f/m3pmnrdzG+LvTeg90h2WGI7XNVv+85ttW+88V82c9odcqP8pDXVtqr3gFFcilrGvDjDSueFDmS5Kn0eruh/DQSSRrLoIg23GwRSBmG89DgfspBFRGAg1dqaWl/XjdX1pk2bfEaFTQJ5yhmK+My1gyIgliA6VynJbJmleUXtBDhzylzbsW+LdfWetimNM4TU0G+TjyoHwkIJI7goEhtSKj+EWvILEQW2agurAZTCda0IVbVikWFPw1Uy+ySw+gBzhDN9w3bkTL/dsUB2BLMHbOrEonX35mz/yS6bNbfFli6frqWFRevN1du2/kE71NVnO4+Y4Dlsp7W3Q//+szZVuvclytc3oJUGuVpb3ymJjYhIX7HZPtifsSVSQbS0aGMm51jqbN+xszZjYtamTajW8rc2r9mkSY22eVefdQ0xU4/ERzN5OWtitYRs49V3w9qpE3dN9BEH7eW3jPgo9XKBsYbaa/78+e5nAAPB1157zQn6gw8+6LP27du3u01BHJcxjmMWqYGvPNBbuYchIsSZcY6tAqJ/VhaQ54MPPnDJxL/+67+6RA2bAfwbwGAQYtnf933f54wAz8NIUC8YADZBY+fUnTt32q/8yq+4gSSrHFBbYNOANIEyrkeCEKBIbSJMOWX0cCRB/QYRB9Yw3XAHRaxexXyy1PXI2YP2/JvfUH1q7KF7H7MpLbPc7sBXK6iYALvwjYViY9nx7dyLfZjci1liHdL4toNAyiCMky73T/+iDxrEhZgVXSvGXSA2xKjoTUGoEeESR0R5teAAbTFLYerp1tTUQQgL4zaWVGleapOa2iXqztip88ds7tQFVg+DUFZXoToeKkvimuAlJ2ceVeZPFNdK0IuOHqYAV8jeLInLG+urpWox61GbSy3TM7S7IAR/Xk6MMA6cMXnAGmtzdvyEiH9f0Tr78lrqeEI+8+XIRwT6VI8kCGIATJtgvbTlnKAj4z2pbPq1jPKlt05bm7bhYJVEt3ztF+Xo6O1Np+10l947OCzDtZPW1szeDvJeeKZeeept5sScDfXmrev0OUkNqu3wkR470KkyZdAmS8ogJVB72ExK1MjtImq12mIiWiIl0TuhG/kNZ5froDjWkBa8+uqr9kM/9ENuB8BSQWb4rCqAOEOEOzo6XOdPWXFsEjNL379/v5ZI/n9SCXze1q9f746RfvVXf9WJPowChB1mANsEvCuyUgG7ATb6otzoQIyyGfORQeWb4IA5gYFBhYHqYf78+W6LAIMNo/DzP//z9qd/+qf+HbGk+M///M8972zt2Hmt35C3kx+HpzrIBwlMgCc6r1CUVMe1F15n6i5JlFQLw9qZ89j5I/bKey9KQpezZx7/gs1pm68vT9844iBKFXNRkKghkP/YTzEO7xhhDsK1/16YpexGenq7QCBlEMZpT0eETPPi0kcsthHFsj6cAEJDxHo9etMLEMvFCMUxUlFqhQnWPnGqb9y0bH6/rOqD/wLqCG2NvhG8UmPwhzZ406U6cJEvF/HQaUuDDEfrtIGUlsINs7cCzonkIwH5vuv0WXao5YmHT0qqoCWRGYnHhxHvapvnMz0FOye1QkONZsqSSgwpL/4P+s9jNSAirnIAc6eYhFPKx1r+OkmOcpkG239CxoQi8LzjgHbGPnJakgAtlcS1bp0YDmk3rFs+Ed7fKxsEGUxmEckXtBummBZVQ0FqEBgEZ2VoUMaapKKYLAaBd3qbyaZxFIkZl5cLjDcIMISc1QF4PcRg8Md//MedGOOwCLuAn/qpn/Jlhojxcavs40RtgDnAqPDXfu3/sa1bt/o9vB/CADPG8ZHANeXfe++9zmR85jOfcVUDDDEqBwLlURekCHEfDa5JX7Rokf3u7/6uSzT4LpAm4EcBt95/+Id/6L4PqBOSCeJ/+Zd/se/5nu/xcqLNxOXaf7n0CEf4ASfjqktk+KmTp7rUQHX0flGKXGxi19Iz3GmbdrxuJ08ctc8++UXraFsi5kDbvvMy3feeUhG0r6zHuJuGFAKfCIGUQfhEEI3NDBcTffwhsCwMHeyUqVNs5oyZjjRAHNfLJDiEIpbzi4R8CDG5V7+6Ji3jm23bd28XQZKTmayWOyp/kBkwh2MmGq7GJrQvrDVSfNpHwLhvooz+2hu1/FAq7byITlW1dk/0pY4wFELi4jBwdITz5Gp5LRwU0S6KIOTEJdRL358XUR/SkReRKyi9gKOjatkkADm9a1hMXhWMnowH8YjUp5l2pkpSAAIzTz2Xr6oVuZfRoVwpi+br/oCJ99DqEu0nWT1BjEGDSz3kuskdHxWpJw6YTI6axMgg1kaFNKW5Rh4aKVgNxBdz4PA8SprMzQsChBibAAISgx/8wR90yda2bdvsx37sx1y3zyqBP/iDP3BjQ4xqcaTU0dHhun+eYzw/8cQTLtZnSSO7d2JYSDqSBeIf+ZEfcaL/6KOPevmkYfxIgNCWj3PGPTY51CcQT8/mkjXqQhqMBsaPd911l5iSX3PpA9IO6gFjgE8HlmrGPUJ43zUFxouCXgnL50eEZbhSBnVaUe6uJSDy0C+nWjmtWHh3+yv2we737aHVj9udU+Ua2uQng7Iok0P5aQvqiRBiycllGqUQ+BgIVOnDSYbnx+RKb405CNCtHCCt2MX4oX/xxRcdiaI/xZo8hnIkGdOuKE6Q0IV5QUZaqqaoSlNquauxnYc22zffftbWfmqdPTTlM7oLogoIlREIcgyBAuOQhLwSAgPhpxX4E1qrNsRqK8aBDem0YECE+flNp+wr7/dZd2aiiJBszvMwB9iX58RE6QERcuCV0WoFiIQH70PdEvGv1uw3j965rF8lGvB3sldCQSqAyGQhMaiGmdBz5Ce9oOucrqUxF7MA8R+29my/6ilPjzkxIVIxIA1iVlrQoVyqn/aE8HIhmJqB57vtM0tq7IsPTTH5c/LNo7yDVAa8wseRR+rCGIsx5xDbrKQVzOK5jgaI5BkWQ8TOnrQtzvK9LSMDxUHEc6TzTBzrpBHK81+cxj0YgOoa+aiUxKU8rz+c/GCgCHND2ZQRy4HpiefljEFMKy/jE8+TcYMqIJiHQtADPGEgMz4+GE2oDARDMWXnM/Jz8uEbcqv+qi1dcI89uOxxa6mbIuZABqRIDigA74gEPV90GxKe/7he8tzpTwqBEgTS0VICxfg6KUdmEYHifhgrbRzFoG4AQd6oEHCcYyUVCYITkhZiYoDJnlyGdzOky51gH+zTltTyK1ia0egR8F8II89TBiGUBHKs3BBqKnzMibcFmUgMuEYyu2PGRGtrYBauGbqg4jNBCLA8JFYVB0WARJCVUSRdxJanIRViHrAFEMJnLu8MgJiCahErbByqVQi0sCAnR0pRmbogXUQ1PxxITVZE1ok3zIGOrO5DhoaU95yMEXuG1ENKr4YRkL+GoiqRd901BFGHykWaYbo3oVYW/7Nb1ZsjvaNTD5+ESCIRLbd9QeRPmxifHNwjH3GdJCncj8wBL4ljmrwxRKYilh/TyVNOrLmGiSCOzyMpgDkglOeNZZDGig3qw3mpDEEQpoG0+N7yHo/PX3kc28MAYsSHEM5UsuodxD4aFaiGxNhtO7Be2ze/6isWVi15WGq8NqmDMH6NzIHKCsV5HMu68jqlOVMIpOzkuB0DILOI9CIiA9GxFnz16tV24MABd8ccZ0IRaV4rQEBqgehzBmZKgi4hka3Nk2VE165tj3dLNDoogiddOMgshogV/TpiNi5CyTFbJcfehKTpIRJxFdeAXcLsyTU2TUsN68QUOMVWWka2CNW6mfUZH7P2MMOGIIT9F8Q0yF6gRgRfm2IKFDAC2jxJ9BrxP4aDzPSrpY82SQRgFJxASBqB5Ib7RRF2yRe8nDq9h+WUPFOFDrtGSyHFDPD+ahEeVjgUZAvBFs8wBnK0IOjXysCN9w/bjJYqmzMZJkfv55XUyTkd6nb5nmFsxfFIHIkq47L8gIATYlq8jiXHMcr9GGJZ5ffi8zFPvCYmf3le8sTyeF/MG/OUtyu+K/ZTfC4+E6/je688pt3OUgvuASmHub5gpT5BeqMOkxpIRqVazrjr2CZ75/1XbFLzRHvigadtUrIyyI2EvcLqO/UL/eN9REUuuCAhDSkEPhkCn8T4f3IJaY6KhEA5sooIjIrCJOBlsaOjw+0R2OQGZEieiJCZlRFIj2mecJkfaMMIfQhnmuiqTJEmlpNJ315TVW+zp8+1wlDedny41Z9gfXZp5jVSgJdVdnmZt1ZO8gi5Ag/TcJB9kJ7Ee3I9YGuXzbJW6Y1rBdcssz0RYGaGLHtEzjIkq8FMVjNW/WUS74VOKCCcWtLmuUSdCzlJHGAqIPSKizAKemfGKTcwDem+xE2MRLWOKkkikEKwJA6zw6wYD8qE8ORUSXxWYDxZA7MgBgOCUsiLMcg26n2yhZC75mXzWzRThaEI/R1MECgjELjL9Uj5+IvnxIR4zXkkwDGd63ifON4vT+M8PhvT4/Pl1zHt4rzxeWK+jRgu9a74bIzLy4dpuObgYwYYugkJZiSJMoF+YDlm+EqwCznaddBe2fw1MWy19oUnvkdSqak6l6QFBsDLUb/plC84fMU8r7JlhBpYD0VpSCFwhRBIGYQrBNR4y8ZKBlzJbty40Vh6RgDhwRRERBkZB+JPCgE9juTjWgYubpHPsyx7nDdtviO0nfu2yWq+X4gsIMVQNs9+PKEJ+Srzl/YiQXFUHi4cXwM6LpEALJtnNqtFhnPM0sWEIV1gBo9IvyDBfXVtA9J+ncNeEOiPcE65QEek3w/yFNRfEIORg2sxHH6Ec97NzBImYFhrHHHABB2p5iEFf1Zl5YQJKN/3hqDflKdGu08Oa9dIpAfTtXvjwmny5liGMUJ9qKnOLuhLSk7DlUMg9HbMT//4cgVirVJh2exgYUBbhh+3tza/ar1DvS45mNowR8wfzIE6RXlgK7BjSXpE16w/8V7VeRpSCFw9BMo+96t/OH1i7EEgEn2st1nXjbtY/CNgjEWIM6ry8/I0z3TRjxOhhKQ5bvNyYialCOMxp26ra7c72++SU6B9drJbkgtHYEm+QK90EWZL8emxEUeUHNpJW9XoUtVdmqIreUq2R5ZPtYlZzBY1g9esXtNiSfJrbEBEGQ+GjtCBlx6HGYBwy3hd12IQFPsqBmcA2G1Rz6qkEHMOM0E8chREYCQTcMNEmITAF2hmLqJCPpiJnMTRzmw4NmAuzAtVEyQJspFozfTb3bPl8GpSvc9saZhyKIS+ovVpuHYI0A8+uy99PMn83xl2duXIa2XKGXtt4zfs+MmDdv89j9v8aUvEHNR7PwbpBX2WqFC8KlE6R9mht669humTtysEHCXcro2/HdsdpQSIUOfNm2t333237dmzx5kEmAdUCsSuZrgKvHKprLwLghfE7rhNqrfVCx+0Qa1q2H90r0TeCL0VeDhMm/w6EpwQ+83K7irBi+B6e/0GBoEUnan6qOn50BDyLprdYHfNqLHGKvZFwG+BljyST/1B/qxm+dgZSMTgxByCDvxcOsE5RF3HhUxAlBzEdytjAKrySeKQzC5RaSCKdnG00nNaTYHKoYoVDDpwdoWBJCswwlvkfyE7ZLPlYOne+ROtWb4YIsLgDbAmQSgfmBQlpeEaIBCYPCCq4JIYJDKB+crpuq/Yba+9/5zt+vB9W7F0tS2dfZ/8WITdNMO4Cf1dEFOnjzcZHYw5qaq8h5KywxvS3xQCVwyB+L1f8QNpxrEPgSgRwEYAH/jTpk11VQOOaKLeF/Tkc0knLlfS5kjWAzJK6L0TOddvQ9ZEoOa0L7Q6raU/cuqQ9hrQKopENO2zVb3zgsAlU+mLki/IUxEXoYJhJherq08LILC8TG30D02XE+oy9uDSJpvaJEQuW4JqsrFcUc1kZUKVDA19RYHyIlp2Uq0Y0o9uGtE/turElMmRFYzCwbXKFaGIB/1IOVWyA3G7BnEcMAiUzNI34M9ujdViELLuxEmsiGwaMmISCsUB1aXbHlrabnPbWZKJuDq0b0RWgYKB0lIi5MC5nh8HIT/0Kqqkgtb79Ni7216zzdvX27K71tj9i9dZa3W7OkG9oTGQh6HXn/eKjyMYBPWpnmdMuOEit5FW+Uep8zSkELhCCDAS03CbQcBnGmoztgYs13rkkUdt0qRJ9v777xu+EpAisAadcCX2B4FkgIXC2YUnEBAnUyJ+zFRr5BN/kXWeOW6nzpz0OyC68uVs/vxY+kloYzn+ha8hsH+B5uo6Qzoz7CsQOqa22MqF062J1QkyTIQwZ6VHqBahrhN6xz6gGoJewFhROmYRb4i78xsqhxUOTqDVT5nyI2EMghwhrFhgWaPXSz8YJzrLoXy4XIYEkZYoG/SOQFwwgET9k5VDp+WLp9qKhc0mX0/SOiDHiEFnyh8TRtLj/TS+Ugjw5YSvJ4EidimSNw3JoHXrgdftvZ2v2oKFS+zhVU/LWHSS/FGoM9SfGhIJL8H3pbGAOMcL04mLnpIa+ABIeyiBRhpdBQRSBuEqgDVeskZiDFqBScBYkW1x8YWPp8WBwQFvarRX4OJSjMKFaVDEMPNx2ug/ECHE0kHYmdy2u2cul7OmvDaYOSxjRXnqCxRM7+Ch5EEhunAWUCd1qNygmjq2jhCICJ8aBywumhwc7iilUaL6NYtr7f4FLVanLZar5UqJJ2CUCmIMmP/xHP1UItqeKr8IWs4YiDrEPgbOkjr4rBEpghgDkRlsCZhFIn3w2aRyOkRdchClCYGBo6r0aY0s51sK3bZsRoM9sapV7pX1kFQhrISAwQglJO9USpQm6EYaAoW+DByAPPCLMAzZfPjT9yxLZRxIvYSvkP0n9tjbW162KZOn2KNrnrSWqsli7HB1FXwwhP5P+s67Qx1I0R8JgWX8SHKakELgEyAA9krDbQgB1Az8ETjHXSz2CPic37Vzl0sRLg0WISRmjjF4EfwEpzr8eiDSIRmF/tCFaqgx2kRsptTM1ZLHO2zX8R3aSOis3i/EKMQG4mMOGwiY8sbXJEV6uRX5o4Yl7SWimRzhF5fHQujuLyBAHHo7U/szfGaFbDLmZa0pc1azP/mGEF8wkKnR1r04KxKBl5FgtWADQ4DTpDDjD3EgJErVMkXyD8vBEedxFQO8VuC3dOL/9AwGi1pPr7oMq88zmqlWaaYJQZIzZxkryiZEHdEgK5EVU/L2+eXN1qF6eo8oD+qSYJtA1yhV78PAgvv4V0gDEGDQJgM3nsZx7OnAif4M8OIW6iLxa3pMPS0Ys3XzwTM77KUN37D6umZbd+9nbGrtXDFuYg7UX/EZxpgvidWvWEBdqaMllSJSp4SDc4XS/XCZ/qYQuCIIBDx2RVnTTOMZAkgSFi9e7IwCqgbsEaKtAu0eOU8wzgVpVweZmppmWzBnoZ3uPGGnuk+I9EkMXxqJgeAENBjLHXlnTBnrMUzClOZq+9yDs2357DZrzPcHIis5MY6JsrU6RCzyuSExCxmR7yaR7WZBqlHkpU7kJeyUCWXJKJ8zEB7DOjDPl8tm7croRDwrwq+lioEwCbIi7HkYEakwIB2wDbUqp0Yz2FoR+pltE2ztqlnaRVIbOCmH56KDJN0gfzgUlQIUrnRxm59EGAGTMrhA1V3KFCEKmEhUEOx8/Itpy0t6c7z7sD331v+xIXk8/dTyZ2zOxAXqY8ZFKKJKXjdLz3oB6U8KgdGBAKM5DSkEHAJsbIN/hMbGBnfFfPr0aZ9RIjGIqxvIOMIsXBvgMpqjTp003doam23Hvi1iEORdsAyZMkv1GZYTHf0k4vtre1tlPsWsW56LbUZz1p5+oN3WzGuypnyXCHS/YCGIDMMYSIKgJZAQ9GE5wxnW7o4jkgJBSDALM3rlE+uApAHWALBBeli6yCqFHF4WRXgK3NcXH/pPEgX2OmAZJJs/yT6iSatL5rfl7TvWTbT5EnFgQAkjE4wnJf1QHTCOo3Cf8JZAmxC60vXtflLqgQsB4WDyQa30GHMapDM5xWeHTtsr679px08dsU+v/ZwtmHq3WL1G9S12CYK6ixtUUNnjF74kvUohcOMgkDIINw6WY74kVjC0trZqS90H7fz587Z+/Xrt19DvBCV6lovqBdd8lqsarqr17Ag4VWu559vegzvt1NBxETGpGUp4D0zKRZIwHpEhtgJqJZsezZKDhM8/0GafW95o06pPy5FSj9wriyDI+6QcLTuhR0qQyQxpFjksfgmJAaoHVitg5ChC7ofOnUlgm2ftd5EZFHMhxgBGwddaqtd0zUZNuHDGOLJKBm8sv2yrL0iSUbQffXKGLZqkegn+9TqqVb4jiZLOIjAfeqQs0JLx2EllTbzC02TkJvAAJrBSSbgMiFDraPsu6xrqtDe2fNtOnN5vn3voe2zRjFWCPQaqYsrUV0h6kBSp1xVfprD4rjROIXADIJD9HYUbUE5axDiAAMQfRgCjxdraWt/Oltnm5MmTS5vT0EzS/E/xtQRE4GwDzU6BOw5ukbO4rHVMXeSz2UCMQLMKKt513eHUk8bNj2AN+PB8lxXxbtBUfd70Rnma1InUCl29fWIOJBdwwly0BpgC2SQAO/6QQPhk0mFDKrBCfRCIB7Hn4iU6qrlGEiMdNsvf2HehJtdjs1rztmRG1u5bIIPE1VNtUp3qgrrBJRKhXJ7BJbNXmBfpoIfCKUQrSfRYl2kQJIAJQbHg6ZcwvE7kA7y8v5QC09ab67K3drxoO/dutZVLH9JyxsfUR0FyADPOczASVZL48Fz4U3IaUgiMIgSQIKYhhUAJAjAJMAAYLHZ3d9v27dt9CWRHR8cFTELpgWs8yWr53qypHTZz6mx7f9s7tmrhOmuvnSJsyZCEyAUmwSUVjl2v8UWV+pgTC1VOsBbIfRbfqrSHFrbY7Kn1NvfIgL21u0/6aEkBNMuv09bINZlGrXfArgDYjJAg6HdCgZx4AD/PIoaADaEQYTtZETfCEsl6rUZolAOkpfMn2JpF9TaztUb+GSQ1CNoDlUz5qCtUMJXz/uAdCv4uokjeyJPcSO55vtv9J8LEQRPgGYAHawegApQZ34PWb+/vedc+2PG2Lb1zta28c50YugYxgPoOeFQMRlg9omejui2F9e0+wm5K+1MG4aaAeey9BP8Iy5Yts3Pnzrk9Qnt7u0sWMGbEHiHosYW7ROCuNoAa0ak2ZCfa0oUrbOeBHZIkbLIHxSRkZYhX0CZCGW1ewHugTY5rr/YlFZ6f1QZAjo2PfFZJIyVJEI22mRNrrHVCjS2d02ybdp+3zbtP2vn+gvzxsxpEcNEzGDIiamZVAnN4lkjCbJRYKyXgLInyWOLILDUrG4OW6n6V22IPLJGKp73W6oUBIks20pOcsQ2ySkMiEW8ojrPZwCCQwBvTMAIBeuNimMQRrP4SvPhm8DSBGyTTsUG+Dl7b8KItnrPIHrrrUfXRRIGcPRgC6MOoQIIDo0C/xg4ZeWt6lkJgNCCg/XR8ijAaZadljjEIxKEAAmMbaJgBlj2++uqrLkV48sknra6OZXuiCz5skDZcjAw/udFF6VF9J0Mhuy47aX/3f/7SWiY12f9a9wM2uXo2KDAwHhA2FQdBhNCNpwAZIUDinUHQL+2GBEAWSKXtkJCz+tlxYMh27D1tp88PW492xBwY1t4NIiKQfTZ8QjVEnyCGxvExmyplJUaoUV/ix6B1QlaGhxNsqdYtzp5oUiPAAoS3OFtRIjq8VYeec/Kk09ItpYSVEKH24Tn1DI8k2T3LbfxDrzBaXZ0T4SDmjM/Fx7X6eFjgq5Kb6+HiWdt3eJt9dcN/S7U0xb774S9ZO1s3a6dGNmkq6CFUcbEDQj/om+MEeKchhcAoQyBlEEYZwGOp+EBgIPoj2AdGYceOHfbGG2+4RGH16tWBSXAcNZLv6topfbqrErTDYNWgbdj/mr2w/r/s6fv/l90z+yHp5DGbY40+uFFET4f7Ubi6l1R+7oSwMpcMB3g//InOi3vQrgyKXWIgUEuIYF3yTn2is89One22rv5h6xuuErMgoiNNAt4vM1oCl5XQukEgbG1usAnNjTalrdGmT8zYBDENAbIBNEE1EWiNC755KZRMTF+wZdClsnIQgtQgLLELCg5VCgO6GK51OMTnx0UMSwdMEsaJNrm+R0yfAAks6dph67WDJzfba+98zQZrm+w7HvluGavOlVFoTcgOwycGkLyAtcSG0z+UEhk4XaUhhcBoQSBVMYwWZMdguYiPYQ5gFCKTgKph0aJFviX0tm3bXJKAvwRmrGzEFL0yXk1zvXyQnE+JsnbXnGW2YcdLtufwLps/dalNqG8TUtQ8GDzomBE0WUKRV/Oqys6bENSgGBihroEEBHkCxoQBTlXyVVBlzdp2eUZToxU6GiU9kIRB9HpIJzASgJTFCnXiAmoT1QGPVyfp1brABsHVBMoHjIPEgmeVENUFyk9twow1nOtSaXre73CX4IXwWk/1pNv+xyEnKJSP2QAv4ARThgTtZNdhe/v9N8QnZ+yz933epjTO0l11mjMAykTGUgTcdRk7JIW4oJGGmwGBlEG4GVAeI+/wuauIEMwB+v8otq6pqbE1a9b40sf33nvPJkyYYLNmzSoxEVfbPGc+wJYKeIJryDbZ3QtX2XubN9iJ7iPWXD/JiRr0yolPYosQnhgvv2pZRPg6DbAPSZAW+CH2Q2AeKUA7ICD0OMrjWqfhYKLqk1VuoGIIrBTExLOS3YkVtyWnSPTYvA97BmfEdAt6hD8+L9SpEc+Fg3eFMrhPqUnw7M5u8GaVV3Yv5rntYqQHMQTIAVO6uijYY5LYlz9nL73xP9bT32ePPvhpmztpoSAnfxdIcJAcyAanilUjCqFXYTdYwkqPpCGFwM2DQPpF3zxYV/ybImPADN8lBCLM8RwnSg8//LCnb9iwwZkFyMu1BSFBKJkez2hWizvmBZIc1NbW2db971tOOxr6vgQgVV5wDXYO11avm/hUGXPgYExAyYzfN2By8GCoVhPYBBGMolQILHODqGPkyR9urKvFIVQLYLVKZbMnbe+k9MAAUHZRYgV2dESvzY6aVfLnb2yche2C3gMpghHBqVJeKxxgIiBJwd4guHZ2yHhn6CyJiThYxR/YBM91m/+AUnU4IxUHMCCBxPdYf/GoPfviv9jx0wftvlWP2OyZ96r/6tR/ckku24O84gIqNhXBLqCyMOFUATfMihgg5QOGW2lIITBKEAhjb5QKT4sdexCAMYBRiIwB1wSukRzcf//9rm7YunWrDQ3JGY+TiKttp1gLiD5MgmZNzIcnNE+yBfPvtH2Hdsti/5xuIUDXfZiUqy1eT1xbva76Rdf/gCN9FVNC/swegY2gIhrt5EDXTuCVjWsHm5+EBB51VU9MC7n8JklYDZRUCU5u9ESJ6RrJQenxz1+i50aIEc/wpiSpFPE86cTjLVx5m8jph37on1JwkCELGrLeobP28lvftP3HPrQHVj9sizuWyXNmk7Kqv9XXzhySX0dOhWCXwg2YtwDhZFRH5rL0kvQkhcDoQCBg/9EpOy11DEPA1QBJ/X22r3PS5syZY0uWLHH/CPhIyGtXRgJ5Yr547Tcu9RMRHApz/TODbc602IIZi62qJmtvb3tJLoV7hRY1e/U8EExlAvmGyONS0SSCS4n1A2JlVlvRAYwfj1JFgQeH/tVkeDM+0HjE7J6ldFFWDmlkjhkUo0aQ3EAw5ib3dFxQIAncHZFIcOaOkYj98EJ1rkD2eOgUtQJSDGQZ4y8whgJR9qFFA+MAjOMtuUFEEu6xk4GoWGeCVV6GuD1DJ+ztHS/Z1iM7beV9T9p9S56yCYXJ1pyXvAd4Aj7FnAP1avUdPReXm9IDSIVcceQPKCENKQRGGQKMuzSkEPhYCMAYRIYBD4sYKXZ0dNhbb71lBw8edHsFmAPyRCYh5v/Ygv1mQH2QmhkTZ9ud0++yrbvft+PnD+suKo4LSwCXRiydzKdChnBD5wGJpvrwAJb093ohEDmBhOzHceZx5BYCz8RIhiHjit04A6M6ZAOFXjlC2mhbdmy31YvWyUviOqmBpEZAZBCyX28l0+dTCIwKBFIGYVTAOr4KjUQ/xs0ypb/vvvtc5cDyx87OTmcO8nl53xOTcHUBAWpYfFefabZVd95vmdqivbbpBckAtO+AkCji1pEQEXZAzhcwCaVMyUyrdJ2epBC4HgiMjD8/Kw3xMAaRKkQ6D2Pq58KsBe2gOWTnbcfxjfbGptdt3tyl8lz5qLVVtYs3gOnWgykGvp6OSZ8dZQikw3OUATwuik8QYvSgCBOAPcJjjz3m0gO2h+7r63MDRtobGYnLtt0xaECu/BIQndbIxG76xA5b0LHYDh3fa/tO7hCLMKibDFMYg8AcYFEfrOpDGRfMxJIkFwVTcBpSCFwXBBhQ2MHE8ZfEbsjJuExQaNm4Y/wXZTQ6qJ05Pzyz3b728r/ZzOkz7aFln7aWunYZhtbI9kBGp1qtQGlpSCFQqRBIRnelVi+tVyVAgPk4SC8ue4x1mjFjhuE46cSJE4bR4rD2CyjIso7j4wPYNAQmURDzoBLgTdW2dtmnpIOt0YqGDdarJWEBjY7M0QJSTrgW3Y1/scw0TiFwYyAQxxxxUBhQro/eaEdz0YuKrAKRge1QVY/tOrnFvv7yf9mM9vn2qRWftqnN7RrXWBgouAQhOQ8p6W8KgYqDQMogVFyXVHaFogqBGMK8YMECP3bu3Gn79u0LxL5kIX/ptpTWJTimDeJZcnLJavopjbNt9ZIH7cCJ3Xawc4+rGkpCXEfMIOwweyN/KCawCeIwQkjKTq7SKIXANUAgjLGREcr4ZGBpkEVVWhi0pbJhI/LZATt4eqe9vuE5a25qtcfXfJfNmbTAFWlVrM4RV8yeDM4kpOO0BLv0pPIgkDII/3977xlkR3JdCZ9+pr0DGt4Dg4H3bgAMAI4nhxzRSZR2v5AUS1EKMTa+WH1ahcwvrRQKSRHShiRKq1CE3H4hkVKQXDqR4zgGGMzADMwA6AYw8LaBBhrtffdze87Nl40HN7YHeP06E6hXVVmZWZm3quucvHnzZv49k7yskQhBLjlQJdXfl9Hi8uXLocWcZI/Q1NQ0nE5pbMElHeSE4R6//7hmP5IuPk0dQimWzV1Dj4AlOMOFnPoSbfZNtuT8yZg7Ot1dbEBERZtCtiA7Dj9BAh9TAiKj6ukbGdW7JvsC9875ku2NUzIbhkghyRkLzX1X8OY7L3ERzQieWv8FOkKax3e6mDk1W0TaNa7NoBW0qEDwPMOXF/ZBAvkkgUAQ8ulpjMK6aNhBRovytKhjLezU1dU1bIeQOywhI0YFfSIdlOuIm31gdeTWJ0yTAFSVT8TyhzbgzOkTaOm5RENFXs1+m7WzUQwWoqFgfbRdz066CVeyygwhSGCkJOBogtMo2Pun14wHUpbJQ2KKBompoiH0ZTrw0ps/RntHK7atfRKz6SWxmLY1IgciGy64F9feVR81UhUN5QQJjKAEAkEYQWGO1aKkWZg0aRK2bNmCnp4eWx66v79/WBy6nuu6WcMCLniEFzXwgwY84uVoUSkWTFyNyeOmYnf9q1yoqI9p6GFR6lmmtZ6XyIE+0jp3BYbfIIFPSAI33zA/qUZ2OSkOGWi2TZpbW38rfrTr39HacQPb1jyHBVOXkxpw9dO0WITedW2yO5BfCr3Fee+t4xOSZSh2tEjAf6lHS31DPYqbKgcAAEAASURBVPNMAgJ+9YS0lz2Cpj82NjaaIyV5WvTXpUnwQZ9I+9yq+2VI7ywJHNBrEShpGiKoq55Cb3PLca2pCScvH2PsoLNHYI+Nn1qvK8gWq3wK2Q9xNjbsggRGQgJuIMu9t+49JbxLjUXQl5fE9oEW7Dn8Bi5xefRNq7dS+7WGwwrl1HRxWIIZHKmwt57VUYRze+T8XI5EDUMZQQIjL4GbX+2RLzuUOAYkYLYJ/OB5LcGChQuMKGhWw4ULFyxen0U/9VF7t4ag3Afr9ZPqVWO7BHYb83XzyCM81sTHhfOWcerjLOw6tB2tfdeYStMe6W+BH+cstzCy4T69Kk9H7owHIQQJfHQJ3P4qCeVzmKk4r7RavYOd2Hd0F0lsAx5d+RRWzX8EJUXlvK/ecTpNSpPwci8a7ByLM6PeeXvHRWtVaAhBAvknAX1RQwgS+MgSEDHw4C8tgRZ1ktHi+PHjsWfPHvT09iCVcn17pTVNAj+0+tZKT+CsEvgl5rnGedNUwRaltRgRA1cSqiqtpVvabWjvuYIjZ/eTHvTyIzukb28IQQKfqARucgEd3Qrk8nOQ0puYGcTRc/VoOPUOFq9YiEcXPoHyohqmLzYCLM4boUGitGKuBJED/s1k31+964HQfqKPMRT+MSQQPrMfQ3ghKz+bHFoQ6HuiIJCvqanBypUroWWiX3j+BQwOstdvQcSAH1t9IHl+yydXEdkQzZIOfVbl6f/h2UswY9ZMnD53As1tV5mKU8XSCUttxWXzBr2Bl2DYf1wJuFdKvxpA0z/jsNzzrZVlLMlrOjOEUxfexe4Db2LBgkVYzSXLiyNl1ImV0DaBryi1XEovA1v9fej91OqZCnr3rUQxiGycRYWfIIE8kkAgCHn0MEZjVXJtC/QRVNB+xowZWLNmDTo6OoaNFtPsdRmR4NCC1puJ88toS/zoG6m8ircCOPDABHFejXPKYwk4l3zt5zmyEMXxs++gP0HnSeyVJZk4yQ6YlsGV/Rd91NjQgz6/ctEcQpDATQlIVzUMyw6T9YrctulUqbQVUTug6TIpvpVJwr4th83ZCumiPgxkmnHowna8tO+7mD53DjYu/gwmRpfz/RZZpv6A+zi1YVrIKs5lnPVm692215zXpTewKRBRvbw6CSFIIP8kEAhC/j2TgqiRiIOMFkUS5EBJKz/K02JucH0q1z/z5CL3eu7xpIopWLZwJc5fOo+rrVf40aYWgSvn2UeXX3lNNXMfWsaoV5YFg9wywvFYloDeids+d4qyjbTAZhg4jxo+2q0RwhkHvByzJLKXKeIw1xAaLh3GzgM7MH3iDDyx8nFMrJjIopQzhCCBwpHAbX8xhdOw0JIHKwENPcRiMaxYsQJz5szB8ePHcZkW3oq/lQxwuIGahfcLxZr2yMVu5Jlu/7H96E/2sBw/+8HNpLDvs5EDlfb+Zb7fPcP1ApKAeS68tT3uDdGvNq83cCRBH8Y0+/mmiOI7S0ZKekGDQxLRM9dPYc+xXaiuGYdnNj2LqVUzEOf6ChGpB0IIEiggCQSCUEAPM5+aIg2C7A1KSkpsvYaqqirs37+ffhK6rZq65o0bbyUMd28FFbWYVDUZy+evwuXmyzh0+QATJvjJdh9295n3r7P6cuFjfXdJjtFYxwaGG6+3RvYBZlNg7xATyKDFyIL29M2hUQmCfhGHu4T9mo1wufscXtz7Y15N4XNbv4TJZbNIImRUS2sZZ3HLTCEECRSGBPwXtTBaE1qRNxLQwIG3TxA50FCDCMH27TvQ3X2TJORW2BOG3Dh/rA+w7BEWzlyGmdPnYPfBN3G9t5Gf6QFSAWkSbFTXWYcbNwgEwcsu7G+VgOMK7tdd0buiTUMI+iTymPu4xhYY9C4P8T270deIl3b9GMXxYjyz8QuYVDqTo1xxpuZy5cPkwrKEnyCBgpBAIAgF8RjzrxHqwedqCaZNm4ZVq1bhxo0bOHjwoC0P7TUHnhj487u1xjQC7KlVlozjQk4bOFSRwpv1r6M32aE76ZNu/cBhU7Tc7//dCgxxY1gCejn8pjdHn8EsMdCb5GcW0EtimnYuyaIkrvScxw/3fBNDQ7341MonMb9uKelECYcVSA4sr3bSS4QQJFA4EggEoXCeZd61JBfwo9Eo5s2bh9WrV+P06dM4ceIE/SM4nazS+eN7NsIAnzSBJGHehAVYt+gRnGhswOlrx/kR5+I3t3yblfiWiHsWGy6MEQmIB1jw74b2ihSR5WYLfbgUxh3sktb/6MeV7vN47fBP0Np9DY+tfQKLp62kl4MKugMvZnZ7MUkO6AQp2CBkBRh2hSKBQBAK5UnmYTukGTCSkP04y4nS0qVLMWfOHDQ0NJjRooiB0vnhiHs1Q0XoIx7h1LFieqlbx+Wg68ZPwIFj+9DadY0faDejwREFzWoQ+ch+vO9VaIgfYxLQ++C0Ta7hfKuyRq32imZfF7k00rBCmlMa2wdbsPvoa7h6/SKeefRzWDJtBd+/MvICy0GCkPsJzT0eY6INzS1ICYQ3uiAfa340yg8x2PAAq6RzkYRHH30UskvYt28f2tvbjRxodsN7Bn68I/QyY594fpyr43XYtvQpdHV04jANFgdTvbqB6xRaQXq1sx/x9yw4XBxbErA36OaAAl8RzZDVRBptIgdpRqQ4rNBOfxtvNWzHxctn8NTaz2Hl5I30aVDu3ippDlxRTOvMHcPbNrbepLHQ2kAQxsJTfkBtlFbADzP4vYiASMLGjRuNMOzduxda+fH9NAj6Kgv/tdmKeFwEZ/6EJVgyfyWOnj+CpvZLtDJ3sxpsEZ0H1OZw2zyWwDCCi7K6fwbyjJcTLzk8SJMYpDis0DXYip3vvo6zF85g05JtWDFrPTUHVSQWMb6DIrPclM/KdAW73zxuf6hakMCHlEAgCB9SYCH5h5eANAcKIgmeNGh5aLljbm5uhkjCwMDAexasElwpTjMQjZSgLFqNpfPo0rk4jl31O9Bf1EWNcVLfbSZ2sxres9BwcexIYBjI5c0gG9wLZe9VNK4Js1q6eQA91BzsaXgDh4+9g6UPrcTa+ZtRHq3hEBffPc5u0DCXgvRZKkJvpCs1W6AuhhAkUAASCAShAB5iPjbBxnCpLRA5EDHQ3g8j6FxGi/Pnz7eFnU6ePGk2CckkjQ2zZOL2Nqk8DfcyK43F+TFP8IAf6im107F67lqcv3Eae07u4Ad+yMaHtRZkCEECXgI3oVv0YJgi2LiCzrT0kvxqJDJ9OHh8FxpOv40N8zfhkWVbUFaqxZeocdDLx+GttHx8y4kSKUWE+TSLxpiCt0vg1RCCBApBAuErWghPMQ/bYArcLDFQ9bz2wFdV51rMad26dbZuQ319Pc6dO+cv37FX+hRVu67Pxs8z31w5rpGf+1UL1mLKtMk2XtxEJ0r6mN+LaNxRcIgYMxK4hST4E4G+cJ9An+TiSw1njuDw8QOY+9BsPLX+GVQW11KvwLeO9i8yO9B7HeH6CcPZ7SgYxI6Zl2iMNTQQhDH2wO9nc28nBbn39hoGxT3++OOYPHkyDh8+jCtXrpimQdoGgbzfpP7VAk/6QGd1uogVcSmcTDndJ9XhuZVfwqRMFX0j/AeaEufRFRmkE5t+qoUHaXyW4J434vINtqlc9v70a993XeP5Tfqh8xDyVwICZD40j9LaZx9l9tAu5R4X8cFrUz5Na9RLpOuaqZDh0FQ604aGC7vxVv1PMWvWQmxb9bP0cjCO0xn1fpVSX0B/B/paarP3kHs5VrLlxrjkWJZoKDaEIIFCkUAgCIXyJEdZO7yGQSSirKzMPC3qWCShq6vLNA4CcMXZxvZZHrVTX/ZscIcRjKuehM0bHkd7WzdOnDmKZKqL3++ogUERiYQ+6rbCo73xriTBhOJtI2hIZXyzb5i9QdjloQSyD80eYPb58did5tKCm49XL41b8oMvAJNoJEvPW2qBIWoPDl1+B7sO7cSM8fOxZcXjqCmuzsN2hyoFCdxfCQSCcH/lHe52FwnIcFEaBBktatqj1mwYHBzkBzz7yefX3B3p1x35YiyGhmNR9vTmz16JuTMX4cSpBjR3nOGIMkNUC0o78Od60dYDNM2BFSCdgYiDkuge6pmGkPcS8O6Q76ionqFI3s3N2ADTGdnkFT1w6+zbYZLvyADqL9Zj+6HtKKuqxWNrPo2plTNMa3BH8SEiSGCMSSAQhDH2wPOpudIMKGgYQUaLc+fOxZIlS3D27Flzx6x4b9g4rNu9owEqQzbkZSiNjMeqRRsQ51jEO/Xb0c8hhkE3puCmsdn9aFSmie825uDurxEGQYpjCnfcIETkmwTcY7utVu4pGgNwtI/Xjf5xr+Ejfeqy2gOONCSSKSQ4vPBu8xG81vATDiXU4gvbfgkTq6dz0IAulNNyoRxCkMDYlkAgCGP7+T+w1ntyoAqICChoeWit17BgwQIcO3YMx44fyyEI0gPcJajnzwumbeCSu5PGzcDaFRvQdLURe9/lrIZMP8GBwaamqQSdUVMgizM7c3s7sTFldxR+81gCuY/MqplLDhSh5+w3S8Az2QvoReH7EmMB8QTOtJ3A9nd+ilgkhq8884uoK5lKmxa6T07dcQNXSPgNEhhjEggEYYw98Hxprjc+VH1EFqQp0F6ahI2bNtrMhmNHj6GxsdFdsx4gE9/x7ZbRGSO5iSRE2PubP5MOlB5aRTfMO3CqqYFqZNqhD3thVBEOPNxQgxtWsHns91Rd54vUQj3ulIAnB7riSYHXFvBcz5SbEUiepqg9StIR0sX2E7a+QrSoBM9t+M+YVDYFMaaLiG2aNazRyjtvF2KCBMaQBAJBGEMPO5+aKjLgtQieGKh+AvvysnKsX0/PdcXFOHTokBkt+rpr9oHTAlhqi46wV2iQoG87P/KlsVqsXfo4KipKsf8wl4XuukydgSwSSAnoQ6FI3vCYw6udzZ79DuJhRYefPJTATXcDemj+wfHh6y0QIZB7Q2dYIt7oAg8yXJlRjpDOd72LF/f9AOn+FJ5Y8QzmjV/AIQZqDvhGyM2yyKSVlc0adkECY1UCgSCM1Sefp+32pKGurg5r1661ZaF3796NxJDTFDjLc5IE2REw3HR7m4V7Eo8Y7RHGV83Gk5ufRVd3Jx3f7EBfsoV5uKBTxM1skM2BNAnsM9qRAY0wJoRRIgGBuN4BzwBctf2qjCIGRg74TNMiB0pNm4Omzgt4Ye8P0N5zA0+u/gwWTl5GalDKxExIoukIKFNLkxBCkMAYl0AgCGP8Bci35kuD4IcbZs6caTMbLl26hLfe2sWq6sPtaqw0+vAXZVfT0wwEbXqhBfqxdAnmjl+BDas34/jZ3Th3pR6DmV7iAFMRVwQYKspMEeyE4BAwwQl3FPzqkd0a+PD4AA3Xeai96APXCqUHTj5zksPmvkbOVnge/R29+NLW/weLpq2mo60yKyYjzQH/OSfKej8cAb31HuEsSGBsSUBzwEIIEsgLCZgtAWvihx+0l8Gi/CK8885h1I6rwtJli+iBUUMEJAK8rkV2pBUww0P7qBMkpGZmKEYVlsxZjSvNJ7D38E5MoIX6pNpSxKIOFEyTbCk1yCAokV4hcGYTyaj6EbPTJm2B3gtpC8QXpCPi4BIX8WoduI63Dr2BltYOfOaRz2PJpFXOIJGkwg0pKLeevfIEbxiSRghBAuFrGN6BvJKASIInCtrLDmH16tUkCg9xvYZ6XLxwGckke3q0PNd1Rw70GvtXmT0/UwsIMqKoKq7DusWP0T2uFnR6Hb2pdkIG12swIMhtukiC60Xmxobj/JSAQNyRAkcM+PAsSKEks1M9SfA5p2lz0DvYhjeOvYDGa5ewefkTWDR9DaLpMtqj8IlbepUmaqiy9B65cx6EECQwpiXgv6pjWgih8fkhAWkMvN8Dv1fNtDz0pk2PoKamlp4Wj6LlBkGeU9GK6GCJHCEL9dlpbIQEUy7zW6+XW3Pap49biJWLN+PStUbsPPxT+kboIATI7S6DcCSLMbcAjl0MP/ktAQfm9tz07mSfpYYK5FM7Q8PUHpKDHXtewulLxzn9dS2Wz1uFkmglXxEutkQ2IaLoqKGsW/QicNNYUxhvyu9HH2p3XyQQCMJ9EXO4yQeVgKY5ihzIu6KCtAQiDpVVFdi4cSO1B2ns2bsPQ4mkDS+4RPrVx115RBAI/rbsM+0S+KGPF1ViwdyVmD17PupP7sPJc0dcGgMSxxHciLNW6AthtEpA2gMNORnRzCTRN9iNt/Zzquu5Y1izci2WzV+Oslg5nzFnsBiZ8DoDRyn0DijaftwLMVpFEeodJDAiEggEYUTEGAoZKQno4y6HSQo61mbHXCxnwoQ6rtmwDF2dLdi9ayeSCQ4V2GVaEKSkWJZGoYQgIS94MaMKURqfFZNw1GECnl75ZUyaMAtvvvsWTnecRB81CZlIP0nEIKdHsidJdBBAGEh4TYRUFAq517JRTn0RkMQJ6CP+SpZ+yxbhTgXaku2dWxFX8RRxtEfDMYJMygG+/F2kIkn+DqGTQ0k7T7yCo437sXLTYnz2of+C8ZjDt6JcLxYiekXs3dGPXHXrjclG6avorRV5GEKQwFiVQCAIY/XJj7J2e63CvHnzbGbD6dOnzUfCwMCAtcRrHHTiwEOqYwV+6TUUQRyoKavEUxs+i8hQBAeP7qb6ucvGq5022Y1aWxb7MfQgYmTZQPZUl+7UPmfT3MwcjkZEAhL6XTY+WG9DIk1A1iaVz1vDBEPoyzSj/tQenDl5mq63N2P94ietNp5sjkjVQiFBAmNAAoEgjIGHXAhN9B93zWBYtGiRrdlw/PhxnDp1ComELctkQxNK58lCxJBcoEGSwPgirr8wp/YhbFq+Bc3Nl3Ho1D70pQdIEgRChJdbuIAHJl66F/5bhntdLASp36c25Ij65h19ZM5ez5ObdAtesSMWqCdgBqZc1juR6cHe46/i0NFdWDx3KTYsfhxlkanDmqib5YejIIEggfeTQJjm+H4SCtfzRgICf2kHSstKzdNiX1+fLQ9dXV0N+UwQMfCaBu011iwgUQ9ToBLhIHWUJ8tmL0drRzOOnNyPmvG1WD5jK0p1zaBGgHRbGJ4V4cBIV1WeoGqYVdyWJZx+QAnkiDuXauVEu4JyLxo7cAMQfCX4MGiOmBlCMtLBmSovo/74O1g0ewUeWbEFlSV1fErhM/cBn0ZIFiRwiwSCBuEWcYSTfJWAyIFA3wLBoqyszIwWKyoqsGvXLnR3dxt58OlMi5AFFcMT0xIQKEgQymPVWL90C8aPG48Xdn4fTV2NtHfXlDjnjtnfw8YSTAuhgm7f/JRIIdQdcGZFhJ9PSgKkZnR2YH4O+FjS1AElI73Yd3In3jm+G3Mmz8fTm55DZfE4kr6YDT18UjUJ5QYJFLIEAkEo5KdbQG3zmgE1ScfSJEhzsGHDBlvgaefOnfD2CF7TYLhNAKEewUAiI1UCj5CJYVzpBGxb+TSqS8bhNbrebetvJODcboeguxH8lc/y6twTBZUlSzbtQ/ioEvDS1N6H96Nb5j3TMlJzkBqih8wuHDn3Nl1qH8CcqUvw3NavyNk2qUEZjVedU21fdtgHCQQJfHAJhK/bB5dVSPkAJeDtClQFTYVUUNy0adPMaLGtrc00CZ4kWAL+SHsgb3p0zEzvehEe8ZXn0s/qWc6euACfWvcMOjuv4e0j29E5KCdKLq16pxY8ctneaws8hPlzf7ew//AS8AJ2Ob1k71kOE6TNFkFDPLQ5iHWh/vJ+7KXNwcyJD+PpDV9CWbSW1+RIi+8KNQ1aliuEIIEggQ8vgUAQPrzMQo4HKAFpBxT8XmRh/vz5WLFiBc6cOYMjR44MGy2q8x8xf8oOhPSbVn79J1mIZcqwfPYarFv6CM5dPoWGiwcwmO4X7BCEskRBeWzSPA8ITPpnBdje6RMYEcJHloCeins+kuy9ggibM0SUnwM9P63P2Ysjl/Zhx8FXUFczFVtWPI3xxdNICLj4EkNRhNoDpc0+q3uVHeKDBIIE7i6BYL1zd7mE2FEkgXg8jmXLlqG3txf19fUoryjH0iVLqSWgbwSu0+AWdNIkOP4jYKhnqeGGqOhxJo718x9Db1c/9tRvx6TqGZg75WEkOdwQ52oORQQmOVviBAjLewfcCNveC9lGkRwfRFXvJTrT/PCiG/SRtkBy9kSCzrKL+nD08hG8/vYrmEBy8NSa5zClciaNUDVjxVMOHYYH9CCea7hnYUggaBAK4zmO2VbIFkE2CVqzYf369Zg1axaOHD6CxkbaFJj2QIMLClqZgYFIL9BXbzSdTDKuxIzZ1izeiJqqWry260Uu7HON1+l0h5sAylaNDH8pkt59CyJyCs6nhZ6gPQnbJ9I9OHHlKF7b/xqqyurwxcf+E6ZUzUCUQ0caQTIaYdoePfFsQTwKIUggSODDSSB89j6cvELqPJOAhhr8cENJSQk9La5BVVUV9u3bh5aWNuKDXnGNQzMQZ6I8FzmQ+jkSpQKNXvhEHSayF7p15ae5eM8QXtr+I7T2iSQkLG1EFvOu8+rQx6kgskiUZwIZzdWRjL2crR2amuqGFPyAj2jbuWsnuDLjDlTXVOMLn/rPmFg8nYsvcZIqn4uu2xRU8QJpfmy7pdDRLKFQ9yCB+yqBQBDuq7jDzT5JCYgo1NXVYe3atVyzIYk3d+9Fe0c3NdNZJ0imehZY6NwRBUQFPTRdzJRi3sRlWLN2Ndq6r2Pf4d3oNk+LDpqMZ6jyUnP77ZNszJgvmzCvcR1jDA7gNWPhMldkfKHhJyguLcHTa57FtMqpfHZ6lnouerJuKEk5bLOs4TM35l+nIICPJIHwl/ORxBYy5ZsEvI8EkQTNbJAmoelGC/a+fZD2BQMchqA9Ag3bBDnSJxhpIITI1M3GuQkypZkKLJm5GMtXLMGZCydw7GQ9icZQFqh8iz30+POwHxEJGJBnS8oeD2ttLDqDq9ev4OVXX0RPaS82rtuCWbXzEKcNiQ0/2JeM2iRpDBjjipD2wcVlSw67IIEggQ8hgWCk+CGEFZLmpwQMBAgECn465MKFC81oUUMNtdXlplWIc4Ue4Ygl5bCBlucp4mI/GnawC9yNTy3AUwumoLfzO9h56kXEpxZh0cQ1qEAVYswYESBRnW0IRBuHDBcHuukPQfTDB0Msf2J7V8Nboj70iYDv1nKycEiCYyHnogPJ29N/6Ft+8Az+hsM5GCFty3C4UyYaAtDzo7sCTl9VQukCtPCWgF7/NElxCBdunMD3Dv5v9I1vxX9d+D8xsWoir7A8e466jRuKkHCGRZB9J25GDFckHAQJBAl8AAkEgvABhBSSjE4JrFy50kjCyZMnzS5h8eLF5kNBKz+KSAiYtNfYtQ+Ky9CR0qaln0Jnbyfe3r8bE7dORmnVPMJRGQlFFoAsD8GN9gtZG3tfRHYvsnAnIN6WaGRPh5FxZIv9ZEuTvD058D1/N2QgY9IUXSg3tpzDG/te4+TFCjy75XOYWDHRnqO0RnpeIQQJBAl8MhK4z1+wT6YRodQggbtJQOC/evVqW6dB0x8vXbpkZMCTAz8DQiBjxIBQnyYoRaOlmFA5HY+ueAyRZArb976Aps5LBCvOfLBxcYJ/zKmyadVIkqB/Ig76J7rgKMOtx7k1FHm4SUpyr3zkYzGXkS7zI1fmg2d08O60BtIcOK2BFtgCDQ6TaGq9gO0HX+a0xn48s+HzWFy9YZjUeXKQS/A++J1DyiCBIIH3k0AgCO8noXB9VEtAazVIk1BZWWmeFpubr1t7cm0WFGEgQ8zOSIPAnn+MPhDmTFiIbas/x4WdWvDmOy+hs+8qu7qEMKq1U+q98q+HGnLrARs268S0BtqLAAjmPHDr3G88/IjBAarPfJfyFJUNSntren/lPuzNkNPf5941kfbAXXVtSZmDKg0xJNHSfRUv7vsh+hPdfA5P4KFJSyj+Sl+okTo9Rz07TxaGL4aDIIEggY8tgUAQPrYIQwH5LoHcmQ1vvLETHR0dw1X2wKK9aRZ4RX8UoghxqrQXzViDLeufxqWr5+jO91X0puiOmYhWpKEJphOU3RKMJHhYdqB3J1G4N2DeUtb7nqj8fA2+7arfvdsrOqbLztZASWUyOoRrXZfx/Ve/jVbOKNn2yONYMGUpSooqOaBDuxGv8bFhHj4rPosQggSCBEZeAuEva+RlGkrMEwn4MWr1MKdMnYKtW7eitbUVb7/9ttkmCGi8elppTauQSRicpWV7KAM6AtLaOVuxZfXTOH75EA6dfQv96Q5ekjcFgdtdQPoWTYKE4bUIOnYDDzoakaB7yUDRNgHxAwxmoMG22nCH6qH6vNcnxg0tOC2Aq7uGGZo6LuLFt/8PWoeu4XNbvoxFk1ZSc1CKjD0TSjOrNdCz8+RAx/5ZPkAJhFsHCRSUBN7rr7egGhoaM/YkoHUaBCamHeB4wNy5c7Fp0yY0NzejoaEBfX19jhRQNDc1CAJ8glx2okKc3vmKUY6V8zdhPrUJB4++jdNXD3JyZDdTacxcgCigI0bncoVbSEIucOcef5RnknuTj1vWR7n/B81zs273Am7Jq4jDNdq0kqamnF7n0ttv1L+Knv4uPPepz2PR9BVGDvQUpLWRoL0NiScHvkZ6hiEECQQJjJwEwiyGkZNlKCnPJOB7mMMkgQCzZMkSDCWGcPLESZSVldkiTx7AtJfGwAIBS+xZ/X0NI1QWT8DGpZ9B/2AfFwd6nvyh2IYfiuiqWbn0T8FAj4eyZRTw8YexPLHwcQFMRMQRBHc/lZ8t+rbdreluu3hfTm9WTHVRfU2+0tpkz1UNtUYkK02bg86+G9i+/2W09DdRY/MYlkxZTTmXMAXZmsDfNV3Z7giBHNwhkhARJPCxJRA0CB9bhKGAfJWAB37VTwCi81gshmVLl2H69OmmRbh48aLF32yDeqlypSR9tluLQfPtY/w3sWoKNq94issJT8Dr+1/ExdYTTDNI3JIDJjlckrbClWR4ZuinCEc17onmLssH+BVIOqDUCpNaZPJum0iK0nnS8gEKHqEkaqffbhYZIUnS1FJNW3QoL4qgARpJjFLmVMbOgRv43o5voqXrGrYufxKLp69GnDYHIgfD4C9RagshSCBI4L5IQH/NIQQJFKQEvAraA4z2iistLcW6deugGQ6vvPIKhxyuZwHMo4/2AjOzMjCg1R9KjOA3Y9x8fHrLV5Ag4L2+53m091wlPegncFHPQMdJDvKYmEX40ng2YkFtcO3Qnvd4j23EbjoCBfln4NwnuwIVJ81B92A7fvTad9HU1ogNKzdzCe61KI1UU/x0YiXtAR+FKIURnxGoSygiSCBI4INJIBCEDyankGqUSsCrtXMN2wRMWtBp8+bNqKyqxI4db9jMBksjVDdkZ8+V8xikPXD9XhrEcdwgSk+KU2pn46lHvoTB/jR2Hvop2nubSRKkSUgwr6CMgGagdrvQdOXjB1cfV46O1QtP8cAPZORe//h3G5kSPFlzsiXx4nTGFA1CW7rpPvntH3MFzRZ8ljJdP3cLYplykrFixOj5Urock6jkKg1E+GKNzAMJpQQJfAAJhD+3DyCkkGR0S0AkQQBlPVYaLSooburUqdi2dZst7KSZDZ2dnQQjpzVwVookCZwdYHzBYJ90gSBF6MLCGUuxftUWXLrRiH31uzGQ6CVJSHDjP+n9XabbBCfo/ughF/iNgDDClyhNgoJad/s1u/AAfyRrhdy96tvZ04btXHjpevsVbFn1GFY/vIkErIw6A7mzZoJs44wk8Nj5SPA06AE2KNw6SGCMSCAQhDHyoMdiM71xom+7AEozG7T3Ku8ZM2Zgw4YNaGtrw+HDhzE4OEBc4j+bhZDNaYhL50g8lYldhD3f4qISLJq7DIuWrMDZi6ex79AeJNODTMGxdg013EIShHRZtMsW+ZF2uUUQPxNcwKCvbxDdXb3UgHTb1sXj3r4BJIZoF8E65Gb5SPccwUzOfII1Yt17eruwc/d2nO2ox5rla7BizloqB0q5Loa0BjnWE9YAZiCjEKnQXIcQggSCBO6PBMIshvsj53CXByABr9b2ZMDvFS+SoH8ynps3b55NeTxw4IDNbHjkkUdYWwEZEckCx8qZLuZWE2K0Bh6A2ugkPDHvi0j3JvDWiVfRXzmILUueQEVRFQ3sSswsIRNN8l4xdohjLFEzIxzNUPk0aeSv01BonaKInC+YLwEH6zSpZJqo5Rji9VZW53IPcKUJXKkSaO9OoHcgif4hjuSTLMgYMEJbiHgkjarSCIdRophQA8ydAsyaCNTxJuUsJ253lqYkgoRQW+DLWzKbRvxdYHQq233gZFFWV3VifXkPVzszuXC8J+JcJKepbYmazJiOWbz0rHDm0v1kzNmRuI7/884/4UrfOXzpof+KZbOWozhCefG6eypWpeyPK0eUIWIy9Hf3FQ37IIEggU9KAoEgfFKSDeXmtQREFlJcAlqzGkQWtJBTd3e3zWwoLy+36ZBK40mGNA83g4O+CH0klMRKsXntY2jracWRYwdQVVKNtXM3kSBQTc7rwl8pxQVrohWGubyfLPoFvCnTVJCAKBEBUARC1IHLSRFKoyAHQHt/EucuDODwhQ5c6SnCALUDupbmGH1aJILAnKR7xyg1F8JnEY3WriFEbmRYjxTewQBqSjN4eHo1ls+rwfS6CKdtcpSflVFLRA6i/NG0zFSSlCTqLujaTTjWkTvzpEZnxgdYigNwEgBrCFOQSLhgqZhTrRpiW1rw6r4X0Hz9BjaveRIr56yxZ+C0PS6HJ3LZAm7Z6T4hBAkECdwfCXCVVOsa3J+7hbsECeSJBEyDwFffaxNULRGEXbt24cqVK+Z1cf78+cMEwYOW8vlj3xT24dGRuo4Xdn0HHZ1dHE9/hg5+1pgWoWewlQBYRiIhwzsSBHk81Pg6wVLDEeYBUUBPrYbXLYgrdA6kcb61H4fOJ3HyUg81BQRYkRplF41gOWmCcCqj1SSphYjSBbFhOOtHA0D11R34J3kszQTTsFtfEc9gzqRSLJ1djMVTyjGhPIJydhMizKMMxlf4Iy2J03BktQq6LoLAmyhexETliwbYfe2qsRyTj5utQFogVUJE5CqNtt7rdIL0U5y9fgrrF27G+sWb6Mx6PIt1MvVLPzNxCEECQQJ5IIHoHzDkQT1CFYIE7rsEBPTaBPoiCvF4HJMmTcKNGzdw4cIFjBs3DtXV1cPXVcHbyYHiIhxCiEfKMHHiFFxtbsT5y6dQPa4W5eXFOH5lP651nuYcyT6UlcTYUydYajMQtgJ5rtMiUoYiTZjEiaY03jzaiV0NXTh9jTYGdDPcG6mw4QD1oNPSTBB0MypHgwLqrWfbkWZbVKB+BeRJagUS1AgMMW2iqBiDqTi1C0k0Xh3A1RtDRkqixcWIxKjeN7QnoFPr4OiBUQyWpOJ5rFMrWeW7a/Zr8bqmJDwhY0jRL3LEHEXpYgpdQ63YfvglXGo6j/VLNmLNgs0oK6p2hEllq8LKreMQggSCBPJCAkGDkBePIVTifkvAK848QZCK2w8ntLS2YMf2Hab63rJlCyZMmHBX4JLa3ABRPpUIrn1FQ2jsOImdB36Mnu4ePP3UUzh3owEdXVdQyqGMupIZmDtpNSbVLEA8U2UGeVpgoCgSYx+/CF0EydcOduLAuX609dH2gMMG6tFzsABD8RIbkoimEiQsjCT4qpcvPpAyUkB4Jbj6TdisNtm8CnIIje4XsZ6agRFNRxHhvMhSrkxZFu/HRNpOzJsSw6OrJ2N8SRHTpOi/UI3SCKTsIFwwWpC9lwiN01FY002LoEsy0BQ1kYWDmw9CckAtyqtv/wTnm8+QHDyKDQu2Uh5VrBMNEqVhMGIgdkKewEI8YbOI8BMkECTwwCQQCMIDE3248YOUgCcIHpBybQwErI2NjfSPsAM1NTV49tlnUcxe9u1Bea3Hy72mNqbYU0/SH0LjjSP4Mb0Cpkp6MHX+JHT230CpxvwFzIkq1NUswsKp2zC5YjZitDugjSFaeoEfvdmE480ZagvKqCUgONPDoIA9SiKQMJTWWIBsDminkL23AT8BVsGN8wtgdebIQtocOHFmhfKTcMSleWCpsnRIkCTEySRKSSNK0z2YOyGOZz81DTOqM6hlClMoWFrdxYWYytGJCAjJgP4pFJG0RLiZ9QTjjbTwpp3UHLx84Hs4dq4eW5c9hW2rPoN4mlMZ2Q61QXYcuUFGo7nPIvdaOA4SCBK4vxIIQwz3V97hbnkiAd/T1t5rDlQ1Ay0ON8jLooYczp07Z/4R5DNBwGWEINsGf5wp4gqQ1nt3Rog1zFs3YTKa29sQKWe/OzqIRLKPDoBIEOg+OEOALEnXorZyig0XXGhJ4aX9bTjRnEI3Zz8kCNpJ/iOfINCqTnL1TFCn7QKhPgvcjhQIrdWzl8GlgtWJl6TZkKmDNAnq1MtOQDmkfJAD6RTry4YzfYz3YNkkD72cpXn6fBdJEetfyYWVSSYE+jKozNKA4XLsviQA5rzI3djqZSlZdorqivb+ZrzV8BpOXz6O1UvW44lVn0VxpoLkgAacKtdqpMyu3kZ6VGF3M9cWdzn8BgkECTwACQQNwgMQerhlfktAGgSFZDJpsxr279+PlStXYtWqVeamWdcExAI0h3GyHlAvO85NgwUJsyfoSLdj//mX0dTVwKtDmFQ6B1OpPZhMd811ZTOZvxxnbiTZw27ByRt02JxmftkCUEMgcJetASct2pCAeu5S6ws79euOuKeKXncWUPtYXjQAVvqbQKwy1S4RBxksOoB2+dlrV2+eW4xkYXJVGp9dy4WsZlegSmWxFmwwi1I+RzjcPEYOJTBCJMMwnXUxQ0POl+wcvIGd9S/j5JUGszfYuOQxDltU8B7yUClpafiCwcp3h+E3SCBIIL8kkP0rza9KhdoECTxoCYgASIOwbNky9Pf34+jRo+YjYenSpaZx8Gpw6wXTSFFIp562w2AaLRLcy/mvhLYGk4uXYN7khzC5fDqqy8ZzyIBaAsJlYxvw/O4mnG0nOeCwQhGHKIo4zRDmLEjaCgemAv8k1QCmCTDBCI7d5vB1mBq4q1ITCMndGX+VitoNrm2gIyn1lUPB6m/WDQR7+jPQEMG13iG8dphGlcUlWDI1BtaMGUgSWAGRBOkqImyoK5XTLRMshddS3IpIDvoz3TRIfBHnaKy5hjMV1i14lMMYWniJdRDRcDzFcYxbRxhUpRCCBIIE8kQCgSDkyYMI1cgfCWjIQVoETxI2btyIRCKBQ4cOcWZCOTT9UdeVzrQIBrMcsTdMJuJxL7JQTKBfPHMFyqOVqIyOQzylqYguz2UaIf5k73VcaiMkR8uYhyDLLcaZBkkSDuthWzkcEGBZ6v2reJsmmRWVg3ieZA9Mve9PLFoF8EA73teGCyyvyhIRkTkh6yPQVjzvo6GBNLUWjT0xPL/rMiZ9bi6mcipknGmKaM8gCqHhj5jICzOJcnAkgnJQEzIkB514ZffzqD9/EBuWbcEjCz+FErbfFl1SVVQX5rXbObtEOw4/QQJBAvkngTDEkH/PJNToAUogF/iHhxFYH/lIkNFiT08PnnjiCUyePNnIgdIUcfaCoBJcyMkHAa4BO3UFAtEoAVokQOr9nkQG3zuSwvbjrRw+oDGgSAFBeYj5NXVRi0LJ2oAZrIyM9dZlVmhw7G+Rs9fd1LvPjXLoK1LgSIWuu3Q3UznSoXq6WQkarFA+timZwIRoLxbUAf/piRmYSA6j+QwyepT2QTXkx8OmbarYNOvcnryBHdQcNJw6gA2LtuHxdZ82mwPnNEn3ZgVZH82+CMaIN59COAoSyFcJuK9IvtYu1CtI4D5LINdg0dsiSEtQWVlpS0RrNsPu3bvR0tJieCeCYEp7qu+1/IJAWkAsDYKGBOJmQ6DFhzR7gDMUGHeksZsOkFowKGIQKQZ9IhlxSFIrkWK+JNX0Kbkvjsj4kf4EeH/TAAhgWcbtQaAuv4wyZtRGq0gmUVqWq41lGgmwvIox/QHvRRsHgrX5U2A+QjeJjLQUTMFpmd3REhy/0Yu9J7vQw1mPabaRGYxCWEPNwJFahaJBdAxdwxvHX8DZRjpBWrEVj617xlZl1CwF5ZANpdqgekmepn2x2jEqhCCBIIG8lEAgCHn5WEKl8kECDvwJmGbtX2Rag7Xr1tq6DfK42Nmh1R+JpmmN1Mn1sQBZMepl01hRUwwJhh4H5bToWl8Ke0/3cuqjrlFZL5COSntA4I7LDmAISa7fkCBBEEmQgaCA2wwgDWBZXjboSL1520RUspsNGRhx4a1ZpyFuCaK+DB9dHu553a3zUExiU8x4DmswQTHdNMe5GJUITh/r1hurwMGzN3Cpud84gdZD8FMarTSlS3Zjz9EdaLi6G8sXLceWpU+RFnG2AtNaJrImN63RkRaXz9XbtyXsgwSCBPJPAoEg5N8zCTXKAwm4oQOpwx2oaS+iMGvmLNMkyNviwYMHuZJit3XWRQyiJAWaRCiyYIZ46skL1An0MjLkpEfsbwTOXivhmgfVNGjkAkXqTXOGQ5S98BgJQwnVEHH20mMEawGxuVc2DUBWKIojKTCNADUMGZEQBeMNXLihqI9x/bzOmRRUB0hf4GYnJKkdkDZCf/LSZohQcC0KDoHEM4ME9AEOdQwaYZEbZc2aKEoWk7hUo7G/Arsv9OMai6c9IgmFm245xHwduIrnj/z/OHpxNx6f8gvYMv9ZmmZWsQRpDlzQ8IPdTrekHG3jJREfBWkUnC2HmnHz2C6+z4/P58t5n+TDlzXEkRty6+Djc8t+rzh/LeyDBApNAoEgFNoTDe35xCWwcOFCPProo3j33Xdx7NgxM2DU0soCHYGe7dn7Vu9ZCgThIDEfnTw+eOwqHRRRnU9fAKQBBtRuCMBVW0MEN+0G9OcpVM1tEgvxpIXlu+vGDoxQ+N69lSGSYf+UX+WwPtqyBTqAVnmiEQRmEhF3XUMVGh5hCuKoFoY6e60bVzv7rR22aiQJzwB68OreF3Ho6CE8NHsJNi7bhsp4NeLUiOh+aa4w6YmVanAT/CUX3oCbkxXvw3rpOJV0wH03cFYZPmj4R2mUT3tfjr/u97qmtJqyqmN/rlkovgylVTkKflhJ6X2cz+fv4c9z95Y5/AQJFJgEwiyGAnugoTmfrAQ8sCxYsMAMF48fP06nSpVc/XExfvjDH2HBwocxg1qGqnIBpWwDBFAEHvKFU+cSaO8aZK++wgYhBMbs3zOFbAYU9OfoOLthP68IVkU0DF7NWFFx1FJIE8ChAQ0F6Jq2CI0cizjc4ZJr5F/DHgRSzYCgNkOaB0cAlFpEgXlYtNEa0yzIHoF15T+aSrIsajSUl96aWrozePdSEovHMS81E10Dzdh1/DWcv3QGW5b9DJ5Y+2lqInI+JywoIq+NBGUF7bVaJG85DObSyEieHnj9UI5leI8fgbjSaq9NQK5zu0cW6H12XbvbdV8fkSRfnvL4cv00Vl++v+bb48mDv0/YBwkUogRy/qILsXmhTUECIycBDw4qUUCyZMkS9Pb24siRQ4jTqK/5Wguam29g4qTTmDeHRGH6DNSOH4doPIYeTnRoOHGVXdUyA+Ss8t+A2pMC9eOJV9QEZA8E2uzCM0oIy2MNLVgSnotISEvBHjeHMJRHRoBFIgmm0lch3Hgsw0f5L7A1HFRW9q4iCJbGfkU4HFHR/aRNkPOkGO+ZYLnpWCVOXxlCz4I0yjmjoen6ZVy4eBorFq/CtuXPkhxUMJeq6IA7F0B1bIDsSQllpzgPzB6MRRR07OWcW4YVnv3x5eWSAiufZfpgbVPzssHn0V5b7r10ruD32Syuzpae8mBZuu7r/H519GWEfZDAaJZAIAij+emFut9XCXgA8cCkmQ3yrjgw0Id6kgQtbSwV+ZUrV9FyoxNnTp/D9NkzMOvhBWgdLENzG40P0+U0QnTArT68+usKhmWGzEIiF5PdmQ2B69crXkCu/j/BSgmH07IcDmuoNA0vuHLVu84hGC4xf919RQAsqZXDPKy/ylXJWhUySkdRiSHNpqClArNc6+xDY0saE2ZHudLlFHxq49OYOmkqHSk5PwdqvwNqRwA8iGrvZaYW+CB5+jQ6vlsan/Zu+9ze/e1lqRWOAN2a0wO87uXzK6+OFRSvc20KIhI+zqe3C+EnSGAMSCAQhDHwkEMTR04CtwNRbW0tNm/ajMGhQfyIQwzJQaq/ab3f18fx+uR1dA90I1I1EVeoQugbYu8+VkbApW8Equ8F5NIkCCSHNQMG3tIOuCCYclAlMFd6ulASsOsfwd+mVCoF/8vJES854qBfrREhcKYGQJTABdk4aOxegKh7Eyizd9B13UF5VC/5bKAZpGkRkqkhTstM4nhjKxbM5aqPNVO51drgSJSaByMW8piUDbnAqihPBHQroyDZoQGXXDYEHNag9kB+JgTEWmY7NwznZ6Q8WyqUlpYagDc3N9sy3crvgV3X/bHyahPQq1461jUZTxqRyF5TvNa0kI1FZ2enTW29hRxwiOTY0WOYPXu2XdM9fFm3H+s8hCCB0S6BQBBG+xMM9b+vEhB4CTR8ENDUjKsl1soQjoDMC/FYCaqrSjF77gysXLsaqbIaNOy4QsuBYvbECb0EZQ0NCLY1NKBevN/zcha8dQ+VRgDnRYG6SyhIk1ZAGgNHGGRtILsBwXoiyvqx/KjAz2wWVLbK0j21d1TBzZDgaU5w93b3jBEME1xaOh0zysCFmzR8EcH51i50pyajjmAcNyfMWntCeVzw8rGhAtWIhUpGfn/q5Cns3LnTiIDkqKW0P/3pT6Ours6A/zd/8zfNxfXv//7vY8qUKVao8ooUaF9WVob/+I//wIULF/Abv/EbuHr1Kr72ta/hW9/6FqZPn+arYSRDzq26urqMFMj+oYSuo2VYevbsWTNaVGIRhhiHh7T/whe+gKnTpqK9vR2/8Au/gL/6q7+CDFI7OjrM3kSGi7rnr//6r2PDhg1mU1FdVW0rfnoiMVyBcBAkUAASCAShAB5iaML9kYCATltucOcEQMYXc0nnibUTMHPmPDz88DzUjqukkWAElzqB1h6COGcuyBZAgC9Qtf6rwFNehKIOiAX0AnwF9WTZsTZDwgRJgXkkZNpS+klIcj9kNgNxxssWgWlZNU2LLOI9k1zTQUtJK8hA0dsXaE6Cu2+cZctIUIRBMwfiBFX5K+AwhaZD8r5m4MiqqHry7qiU13rTaBsAJnJpBRkymg8IiUQXub+FPCmC/wXsiheB8VoCAbJ66VoISzNCxo8fj5deesnA+aGHHjJnVJ///OcNvFkyDUB/iKGhIfzyL/+ygb8nHHv37jVw16qbWqJbQYC/ePFiyFfFd7/7XezZs8fsRQTq8oCpdKrPyZMn7fjRRzfz2ZWYPYlkrLK9pqGvrw8vvPAC/vVf/9XuKzfbP/rRj/DXf/3XWL58uZEKERxfH6tA+AkSKBAJBIJQIA8yNOPBS2Djpo0EIBomjqsj0BIb5RGR1eoloPYnNY7vANNQMxrDkEBcIMverQBGQB3LznzISFPBf7IFiJA8aBplWsMSySFsXleDd890o7FDGgsNGYhfOM0EF2mm/yU5bgadHsW5rkPGnDBpXYg4b5/SSpEkDPKKGKEWIMllqKMxDk1wmkWEC0jJxZORFbICURjxB03HZCUF71xxMor2Hp7KJlFVNnLC/fsED6CzZ88hGajD1q1bDXC/8Y2/Mq3A4cOH8bd/+7eQ5kAA/y//8i+YM2cOVq9ebSW3tbWZgyqdqCwB/ODgoBEH2YKICKinf/HiRevd//Zv/7YRD5UhUqFt06ZNRkS8xuDv/u7vrOyvf/3rprVQuf0D/WhqaqJdyQANTpsxceJE83tx6dIl83sh7YHW5Hjrrbfw8z//89Ay4D74NvrzsA8SGO0SCARhtD/BUP8HLwGBKHvuixcvJSlwPgDMiyIRVADe15/AQEJgL7qgOAE1SQEBWh4MMwJ+uVS2cYZB9so1TKDx/CTKYvSymJITI10nSKf6MG/6ZDRdakdTYgCxuAgCnSAxD+i2GSQi1CVQy0DCMMBFlaQ+Z1FRDn/ETC0wQPJSQk0DhztSSZQWU+OQ1loSrA/rPkBNgS0MlZ0ZEdH8zOzQhGwS5E66o5vtmMx4ttkaw9zvFSQbgad65f39fezR7yVYb7Yeu+JPnDiBP//zPzcwvn79uslSQxW/9Vu/hb/8y7/EihUrhkmBv4+uNxxtwOnTp613Lw2E1sr49re/DQ1TjBvH2SOU76xZs1BSUoJp06aZ9kD5dU+RgJdffhm/8iu/Mqyl0LWG+garS0NDA/7oj/4ITz75JK5du0bD0yuW5y/+4i9seES2Ev/0T/9k99FQhNrotEkqJYQggcKQQCAIhfEcQyseoASsI837R9hLl3OgSEzg7owPNe1vIDGIQQKvAFW9chknJom0Au8ipo9TQwACONJ9TDJI9b4MA2lwR58Gif4kl4iOkiQMshyCPklBBZOX0k1Rur+DWgJ6QmT+YoJehJ4ZMyQSUQ4jRAb7UcnZB31JnpFsxDi7ooRDEzGSgQGWkeECU8XFHGbo60IpPS9GaB8xyPuXlFVybQiCOZsQY76IVpZkPeQJMsn6R1n3/r4B2iNUmALBEQRHeu7FFnLtEjronlohzqmfFy9eMNLwve99z1T1Ggr4zne+Y3EyBPy5n/s5/O7v/q7ZF3iCobwCfq2u+a1vfsuGKWS/IAIgAqLhiUmTJplsZUsgAiH7hTNnzpidg8pV/m9+85t4++236cOiwgjEZz7zGdNKrF271kiJhiH+7M/+DCtXrjTNhEiCd56kuihoOXD5w1B5IQQJFKIEAkEoxKca2nR/JUDAtnF6DhVoOCBjaxlopJ/AQSxJEVC0+Z40BxVQTFAZGhxgT58aBKq1q8uBxzfNQP3hS1zsaAZaW3o5TbIZK9bOQ3klZxDQN9LhE9dw4VIrXTGz2N5uVPNg8cLJmD2jlMs4pHHqUh+OX2jDkvnT8fCsyYT8DI6e68GBM9fx8IwqrFs6jyA3hHcv9OL4xWbUVlZhzbp5GF9GwkADhsbr/dh/qp1koBSDHG7QkAKZBEkC7R+4T9GmoYikIUmyQbojvmN7MhmTt7X3LpI3+wO2X34Y1PMWuLe2tkFOpjQL5Ktf/aqBrYYBNNTw8MMPo6qqynr4Gnaom1Bn4C1AVhAROHr0qOWVHcAPfvADK+P8+fNmeyDAFojLIPEf/uEfjBz88z//M+/ZaunefPNNsyOQ7YPuJfsC1UNDEKqrDCG1rLf2Kusnz/8E3/zXb9rsBZ2LKMj/hQwlX331Vav78LNl/hCCBApFAoEgFMqTDO14oBIwXCAZEGgaYFJjUESNgutmc8dzZwCn6wRW9vxL+NcXI5lAZsjWYJhanUJrTQkO7znM3n4M6xZOR0VJH3bvPIqHF0zBsocm4EbTVfpFooaBwwPT6kqwcG4FDuw/znIGCPar0d7dAQw2Y9/OJjw8pwYLZ83FsTMDWDRzCmpoa/Dm7lPoSCp/Hz6zbSGazrVg754zqKJNwWPPrMH1tiGcbqbRRLTCDB5lUKk1JmSRYMaO1DVkaL9gfehse535ojXrrs9AYJ2rfq+pqTGbAc1A6CXRkbvqV155BX/8x39sYP3lL3/ZwPj3fu/3zNBQN1MZvueusjS74Fd/9VdN7f+Hf/iHmDNnjhGBn/mZn7F0SrN+/XosWrTIiML/+IP/gXVr15kdwd///d/jd37nd8x4UTYO0hL86Z/+Kb7xjW9g3rx5ll9aDw/6MtyUpkCEwrdDGgXVX4TCp/PX7iqEEBkkMAolEOjuKHxoocr5JwF2jtnZFmxyGIHeDGGbJiSSDNDwMKmeJ49lya+ZChGqHOSlcJBZZLyoKZIlBMH6w0dx7GofTt3gUMI4DjHQn8KsKTWE5ThV5bwJ7QyUXveaUAVUE6CmVpVhXPV4tHdyZsPAIC6cPI0f+cH9AAAUfElEQVQZ40pRxSEEGSYWUQPw1oGT6OPNViypQyrRS3uEIsyfQIIylMDU6VM5VbMO164mUFxBR06sk7QUNjOC6YY4NMEaopTDIcXUIMiBkmZMyEOjzDCd5uDenxIPoGr97Nmz8N//+/+Hr3/91/Hf/tv/i7lz53Koo9h695rRICCWTYIMATVjQP4QbuYHNFtBWgYNDWhGghxViQj8yZ/8iWkBZs6cOQzaGsJR2er1F8eLDdD//d//3YwLn3rqqWGtxLPPPotly5bh3/7t30w74e8nQqKZE9IYqB6adqmhDA1TyDjRazRuJ0CUXAhBAgUhgaBBKIjHGBqRFxIg4AsEBaw6knqeJggEEgEUrQ84RTBCvwKEd15KI0FVfay0AoOJfk4G0PRH+h7Q+H9pFXqZZpDHV69fw8EDdOVcMQ7dXCexjwqHaDEXSqJdQywZQSst7esPHaZFAg0MI2eJ+CX4ylNr0Hz+AlX4p7Bmy3QylCRa2rrw7e+/gE9vWoDNGxbitX1nQTMEnDv9Lk43tlFjwbkKR0+ju2QyUrFazqZgNhKADAmCbA84QdP5VmDPuqxEa0BYA60tatG99QdKx6vMoF65et6vv/66TWkUAdAMBA0nbNu2Dd///vcNvDUEcOrUKYtTPg1JaEqk7Aa0iRzIZkDlaRjgZ3/2Z804cenSpeaTQPH+nhqO0PkOGjBqyqK0ExpKEHnwWgmVJ1sHkQE/hKD9P/7jP1qc6vnjH/8Yr732mhEI1cdrDlQ/P4RiNw0/QQIFJIFAEAroYYamPHgJOB2C6mEIar81pTFUxzh8QJB1sQRbEoUkgWsoSY+L7J0nOcOgj133TEnc1m5IJQdx6GQHPvvoUpQQQDkRAsWVk3Hg0DGCFsGcPeIz529gycJZeOqZx9DY3I7KumkkFG20rC/GuXf7UVUzzojJ5NpyLF6/FP1tV2hrQCNGVqKvq42+Bs7j2ac3Ydbpa0hxyuDEqdNxpjWJ+vPt9JroVOxqCc0fWUc5dkrRriGFumpHckR0pDd4vx60vy4Alt8C2R587WtfsymMf/M3f2M9cc0WEHGQul89c9keaEqhwF1g/fgTjxuwb9myxaY2avxfQdMPpT2Q5kBTHUUSNm/ebHWSQyYRCt1XBom/+Iu/aNoG2RcoTuRBAK9NNggK0l5o5kRLS4s5WZJjJK25oZkUuo9sGWTX8Mgjj+CZZ55B45VGTItMM6+OKieEIIFCkkD0DxgKqUGhLUECD04Cogeut+wIguvJDpEWnLrYio4BTjmk8Z8GHjRlMEXHRJFosVsWmdoCqf0bm/qQLqkhaBXj+vVWtNImYOLkGmToovn05W5c7+A0xWgJLjZ14VoPNQw3BlFOb36lVIFfau6nAeINWt2nMH3GDHQOlaIzUYSOXmkQeqgWn0CNQCnebmhCc08alxqvsyalqKitQrysAi1dKRovtqM3wdkLsVI2gUMIAlBpQnisqZa10QS2rRyH8SXUZDA3oxlEfEgV7oGPAk6RBPXaZVQosK/kCpgC9927dxu4q3ev4QU/80DDDbIHkDGgfBHMnjXbZiiot15fX28OjpRHUwzlFElTEjW1UfYF0gjMUPupddD+137t14xsiDxoyqOCiMfr21+3aZC6r8pVnEiDbCRETn7pl37JtBf79u0z8vGVr3zFiIJmW2joQrMnvvpfvoonnnjCjgNBMNGGnwKSQNAgFNDDDE150BJw+oNhLQIBU8BaXVpEQOUUQxotDhIoiziFMZUiWSBBKKLBn6Yp9g/2YNfBNvb4J3BYotIBclkJTl3pxbFzl6xXnYhy7YFoLXYcuUaSUImh8lpc7E3gwv4mM4BMRTkQEKlGw5UBHLvciYEUhzqifQS/mIH52auN1CAMIULXz0OlvEckiZ3v0qgRHYR31pr2DenycYgVkxzQusDGR7IiFQUQ/o+vjKGGl83iwMiBi7f0Ljab49adJwkiCn29fTYkIF8E6pmrN3/kyBGbjihtgVT4IhIHDhwwZ0UyNLQpodkeuuwBBP7ylCijRG0C9S9+8YvWk5ctgfLLc6KCB24RAF8PxctNcpx2Gp4c6JpsCz772c/qsjlLksOmAc42ee6550xjoPqp7O3bt5vxozQe3lmS15RY5vATJFAAEuC6LPyLDSFIIEhgBCQgP4SCWutPszy3PsIg4XnH4ev4/qFBdEfG87psEMTNSRI47bCY4/3axzizQbYIKTkyYk82xsWYErQ1kJvjKMFrgH+pRbRnoImg5R8i4dD6jRn6NaD7RKI2/TBQMxHXzAjaHaSpBUgwOipLe/lLIMLLM2OadgqgFiKje0pLwOEMdp9p21BCOwZO7eO9iqktSLP8FI91fw0nlGX68fTCMnzukVpUMp/We3AqBNIFahmIvneVoQdOAbTAWB4Q5RBJoZbrWMQ4Y0NxtwflEzGQRkDgrbyKk8dErbEg+wNpDTQk4T9jMii8fPmygbYWc1LIJQW5JEGzEGT/oOEFX0crR3KiQaaCPDMqje7j7RY0VVOeHXUv2VBIw6Gg+2gLIUigUCQQCEKhPMnQjgcrAdFsgqoIAmGQwO2CrPxTNFo83ZTA//rpZXRGptDpEQFeoE0sKSUhGErQOI7DC1LVm5qbmgU5MRo2hlOJBsZZAOIMCPpVpN0CPSdyhkKc99WsCGP67OGKNCSGHEEgqhLDNVWRZXPxJRo4cJaCq6PcOid57xK/JLSAmo6RMizTOV2WaSLrxVUhlb883YuvPT4Na2bT8RJvplJETIqooXgvgiBJ3ALAPBeQCmAFulpVUZX3BOBeICvZ+OB7/bl7Xcu9j4E945TGX1Ocv4+P00JO5uCK6TyJ8XUQmdN/BcX5Mv259v6eOg4hSKCQJBCGGArpaYa2PBgJGIA48BLMO6h3VdEluVCeNrkYU8eVo6OV3hI5VEAXikyXJFkgBNNLoXKLWMiCMEI3x1qMieMIjDOI5lX2pmULYLcRASGwcnhCCn45MZKHQ019lMMjQXeMGgKtyCDslXGhSEKEdg1peUa0XAJFaQqkhVAeOSBSqSpH1gVOa5GhbYSIgEjIdBoezJzCO7JR1k4xHNOEsN6uCCvnbj8ecP1eaUQOFGwRqmz+3Ot2MefHA72P8ud+r3ifX3t/7NPnxvlrfq+hAwW/H86jhuW0zaf317W/W1zu9XAcJDBaJeCo9Witfah3kEBeSEA04OaWgycG71omuYT4s37JJFTRWVGMYEt4NtwRwMsIUDCufr4WUlKcVl90/X7+iTI/6YFgnmp/EgkOI8h4UNm06TjJXrCGA3Sc0nWVZbVSH1hDEiQhSsszq6tmKSiF4hnn4nVOYsK4IgJmksMUGWoIOOGC/g/6sXAmPQzGstoRxjEhN9XNSlRECEECQQIFJIGgQSighxma8oAkMAyWdmCwqZoIOAX2gmj18pfPiWJPfQoDXN4xnaEvAYK4+ue6rh6+WzXR5RDwRkgMVIqPkV8COVlSjIJ8KSi4X8W5eIvksVtWWh6PpA9w90mLAPCaVoAUESADGC5H9VARGQ1BsL6qOdeC4gqSCUzm1MZFU2PgshAur7uJqufyuJ2PDfsggSCBApBA0CAUwEMMTXjQEsgFZtaFoGvA6avFy1Jgj6ODxa3L6lCa6XF2AwJnIbJtPrH2ihPyij5Ib0DbAR67tNIwaJCAKnrmt+WYBebSPORuTCE7AW1RAr60GNpiVCPEyChEEOIcPlB+ERFtGqYQkTGX0HaXDEqZsIyzHRZMK8OsOq75wPtSSRFCkECQwBiQQCAIY+AhhyZ+shIgxhqUC86HwZ6R6qALyhUrNX0pO+9LZpbg4WkVXE9BSywrSNEvxM1FXacTUKmyU7DZApbWpXdpdY05zcBP6X0ZN8txiyxJ6yDtgdNWqEZ+czmkJ9D1m/E8YUibN8XUUD9qyyJYMW8iqslyaPlg1+wulk5pQwgSCBIoRAnoqxBCkECQwMeQgHDSwSaBVic5wCn4tUgaHUa4KFNNcQSrF43H+KpSg3T5J3QAffcKONh2BbJzb7YEupvIQVQzCEggZLloVgRkJBp2cEMP1DzYrApdox7C7BZkm6A1FFx9fVV1TfYLbnNpRDyKpGFg+pVLxmP6RA2AaDUJTUfUMIUPd9eB+KthHyQQJDB6JRAIwuh9dqHmeSIB9aZ9/9ss2hWhzQLV/14nz2mFZbT6WTG5FMtn19Dgbwhl6S6UF9E7ojQBzKQVIDlxkZxCNgC2rBMGOY1wkDeQJYERAgNoXVMa3ptIbzRDfgYE7FaWiIEIgyrh4qOcvhi1YQmBegYJEooUZ03IVsHGDbiLyqMj03C+A/0edGL5jAgeXVDKRaFUhopiAziUwez6P7wNN1e3CyFIIEigICQQCEJBPMbQiAcpAYGj3+xIhOBmhLvKJYM1JVB/cBPpvuBTy4vxEP3rVBX1cOIA3SsL2JnP+QRQZoI44zQrIW15FacgWLar7hqvWx/eVBckGbZXCgE/ZzJQO6C6SC8Q4TURCWcQyXLo90CLQ2kp6hTXaNBeVssxEonSdB9mjo/g2S0TMJF+lUqG2YDIQfazYW0kSfHXdNsQggSCBApGAvxWDH9RCqZRoSFBAvkuASnqW+gA8R9fuIgzXRH0R6sJ3VrUWT4LuFogQVdGhdIkqHefIUnQFEiZLNoAAYcS3GCA0JmYTZR20yV53Xr4vMp8CqQK3FSgnQ7/yEFTeSnRn7xCBCFKbUKKHgTLOYwwrbwXP/fMTEyvLUYNcxSTPJhTBaMQjCBHcHdWPbNF3lb+8I3CQZBAkMColEAgCKPysYVKj3oJkJcnCOAnWzP4yf4bONmWRhcXSSpirz7KoYK44TkRV84LdMxdkhoBeiUgGaANAM8F/LrIQzvS3iG36IB6+a53b+SAMWmyDhEJIx+8GqPnwBR9McuRk8qKcEpDklMaZ9VE8OV15XhoZhXKWGiMWoZiS5Mtnzs3dKF8WXYgrYKrgBKFECQQJFAAEggEoQAeYmjC6JOA3Bmn2CtP0ubgzI0EXj/aioarKXSmK6gpcM6IZAvgwV3DAmZcKG2CAbHA312VJYJg2uGzLA94lO3W++mNohCyNXAGjMpBSkAvjnE6WDIXTJlBkpBBTJ1YgSdW1mHzZMaTMKhMrdegGxRxuCL3Pp6gmPSNIGSHHkbf4wg1DhIIEriLBIKjpLsIJUQFCXziEqAWQDYB6pnPmxBH2ZoJqC3pxL6znVyvoQaD6Tg0EVLgLFfMKZEFzlrg6glGIORZQbhtGgODe0G5UFyg7ocDLIGBuoYjNEAhGwU3OME/fRo/DnG6ZZxLOJejm46carBxeS3m1HLdBaZVSaIEVCCwXOeZUXfUnbTdEu6IuOVqOAkSCBIYhRIIGoRR+NBClQtBAgJgGgdqtcWYFlACuvlz+GIaz++7grZUOXq5JLSWhlbnXMaLmtYoPwQCeBEE54JZyJzTc6dtgrQFrncvyqBr0hdoQqUbknAqCGkdUqgqzmBCaQLr51fjkYWVXJaa6zNQuyEy4pZ7lsZCOR0tcKWxSCtLexd0n8ARvDTCPkigMCQQCEJhPMfQilEmAeuUq86uk2+YLS8D2ho70nizoQVHrgygI1WGPqoSYgT+GGdBZNJyeKThBoI+EdnAm+RBMyDU45dWQXRAQVwhw+mJNGpgPsXKYyJXauRwQnVkEJOrUti2aia9JMZJFGiIyMzy02h+DmSUaOSC99N9VJ42q6+uKTCG95VXBF3LoSm6GEKQQJDAKJdAIAij/AGG6o9OCRjgGtj6+vOE6KueepKI3EWmcLJpEPUXunCldRA9vYOMK6FhY4UDZdkkGFUQSLM/L8Kgf8wrI0QFgXmGSzWDtgWyZ+B8BYwjEZhdV4xFdJ28eG4lJpSTGIhaGMlgeuYX8XCBkM9jX02LNuLAq2INIiXcebpAnUYIQQJBAgUkgUAQCuhhhqaMHgncCro6894Jpc7nRuBVTDfnQ15rH8DFlj6cbY3ifEsSnd29BGfZBHCVBuvoc+CB6U39L1sFzoKQPoF+mThDIYGK0jSmVVdgzoQYHppUyqmL5RhPnsGFGXldMpPuQYG/rIqOBfyqlYv3e96M5bt0uhtPuVMVlM7FKDaEIIEggUKQQCAIhfAUQxtGnQQ8qJqCXpgrRDaYdZBsUYRoW8KZV0QE2qkM6BpIoodb0/UM2jp70dOfQHdPP4aScq0sUlCEsuIoqitLMa6mEnX0YzC5lg6ZSuKo5JrT8uRoCy5JYryV7qNgd+eJjBJFF6w6OfGmjjAqwESZW22bNXVSJblVJ1RaCEECQQKFIIFAEArhKYY2jDoJyBGysxrwVIH9b4/K1AC4rj1h2/EFti/JmQzSLGgeg+u1K6cHeL/3vXhl07HU/tqGCQAPDM6Z2WwHfAafjhc1BTNDHwluyIIXFLLGj65U1dVFu/qpRooQ9QghSCBIoFAkEAhCoTzJ0I5RJgHBu4LmG4gquODwWjEG6U6jz4tmF+DH/6klUHql8iRBe+V1udzeEvm8do1ALidLZm8g2iCg557EROXZPYwI6Mxi3HUdZwmCW77JEQTdywJtHBxlKctGhF2QQJBAIUjgVl1hIbQotCFIYFRIwMFrzug/ay31vgN3v3egzSsWIdrAA9kZMLvTDPhyXD41XTEu1h14xYRibRhA6zMoqExRDJ47QuKi/LGVYpaOSqcSXTqREauXoi2ovGyZ2ZiwCxIIEhj9EggahNH/DEMLggSCBIIEggSCBEZcAoH2j7hIQ4FBAkECQQJBAkECo18CgSCM/mcYWhAkECQQJBAkECQw4hIIBGHERRoKDBIIEggSCBIIEhj9EggEYfQ/w9CCIIEggSCBIIEggRGXQCAIIy7SUGCQQJBAkECQQJDA6JdAIAij/xmGFgQJBAkECQQJBAmMuAQCQRhxkYYCgwSCBIIEggSCBEa/BAJBGP3PMLQgSCBIIEggSCBIYMQlEAjCiIs0FBgkECQQJBAkECQw+iUQCMLof4ahBUECQQJBAkECQQIjLoH/C0HUmhmA7hYtAAAAAElFTkSuQmCC;" vertex="1" parent="NlQjg2sOnCsZT6vufGFp-1">
          <mxGeometry x="154" y="610" width="520" height="509" as="geometry" />
        </mxCell>
      </root>
    </mxGraphModel>
  </diagram>
</mxfile>
